<svg xmlns="http://www.w3.org/2000/svg" width="284" height="285" viewBox="0 0 284 285">
    <g fill="none" fill-rule="evenodd" stroke="#FFF" stroke-linecap="round" stroke-linejoin="round">
        <path stroke-width="4" d="M9.53 29.602l8.404-5.052M45.095 78.733l8.746-6.012M44.654 79.016c-4.124 3.086-10.72 2.755-18.154-1.66C14.003 69.934 3.873 53.783 3.873 41.283c0-5.464 1.935-9.326 5.157-11.323"/>
        <path stroke-width="2" d="M10.224 29.332c4.114-1.819 9.885-1.04 16.276 2.755C38.997 39.51 49.127 55.66 49.127 68.161c0 4.609-1.378 8.078-3.742 10.25"/>
        <path stroke-width="4" d="M53.845 72.724c1.799-2.178 2.823-5.305 2.823-9.28 0-12.5-10.13-28.65-22.626-36.073-6.306-3.745-12.008-4.552-16.111-2.827"/>
        <path stroke-width="2" d="M34.725 37.783l6.391-3.58M40.382 43.441l6.39-3.58M45.095 50.043l6.391-3.58M47.924 56.645l6.39-3.58M48.867 63.246l6.39-3.58M49.81 68.905l6.39-3.58M28.966 33.067l7.588-4.251M22.257 29.602l7.675-4.3"/>
        <g>
            <path stroke-width="4" d="M73.577 13.42l7.012-4.215M103.25 54.412l7.298-5.016M102.883 54.65c-3.441 2.575-8.945 2.297-15.147-1.386-10.426-6.193-18.88-19.669-18.88-30.098 0-4.558 1.616-7.78 4.304-9.447"/>
            <path stroke-width="2" d="M74.155 13.195c3.433-1.517 8.248-.868 13.58 2.299 10.427 6.192 18.88 19.668 18.88 30.098 0 3.846-1.15 6.74-3.123 8.552"/>
            <path stroke-width="4" d="M110.552 49.4c1.501-1.818 2.355-4.426 2.355-7.743 0-10.43-8.452-23.905-18.878-30.098-5.261-3.124-10.02-3.798-13.442-2.358"/>
            <path stroke-width="2" d="M94.598 20.246l5.333-2.988M99.318 24.967l5.333-2.988M103.25 30.476l5.334-2.988M105.61 35.983l5.334-2.987M106.398 41.492l5.332-2.988M107.184 46.213l5.333-2.988M89.793 16.311l6.332-3.547M84.196 13.42L90.6 9.834"/>
        </g>
        <g>
            <path stroke-width="4" d="M128.167 6.201l5.796-3.483M152.696 40.087l6.03-4.147M152.391 40.282c-2.844 2.13-7.394 1.9-12.52-1.145-8.62-5.119-15.606-16.258-15.606-24.88 0-3.767 1.335-6.432 3.557-7.808"/>
            <path stroke-width="2" d="M128.645 6.015c2.838-1.254 6.818-.717 11.226 1.9 8.619 5.12 15.606 16.258 15.606 24.88 0 3.179-.95 5.572-2.582 7.07"/>
            <path stroke-width="4" d="M158.73 35.943c1.24-1.503 1.947-3.66 1.947-6.4 0-8.622-6.987-19.76-15.605-24.88-4.35-2.583-8.283-3.14-11.112-1.95"/>
            <path stroke-width="2" d="M145.543 11.844l4.408-2.469M149.444 15.747l4.408-2.47M152.696 20.3l4.407-2.47M154.646 24.853l4.409-2.47M155.297 29.406l4.407-2.47M155.946 33.309l4.409-2.47M141.571 8.591l5.234-2.932M136.944 6.201l5.294-2.965"/>
        </g>
        <path stroke-width="2" d="M21.787 60.46c0 2.604 2.11 5.929 4.713 7.425 2.603 1.497 4.714.598 4.714-2.006v-7.544c0-2.604-2.11-5.929-4.714-7.425l-4.713-2.71v-9.43l9.427 5.417M138.689 30.281V17.078l-1.885.616"/>
        <g stroke-width="2">
            <path d="M83.031 40.239V22.024l-2.6 1.082M90.185 44.417c-1.796-1.05-3.252-3.356-3.252-5.153V27.555c0-1.797 1.456-2.402 3.252-1.353 1.796 1.048 3.251 3.355 3.251 5.152v11.71c0 1.796-1.456 2.402-3.251 1.353z"/>
        </g>
        <g>
            <path stroke-width="2" d="M207.51 229.352v-32.065"/>
            <path stroke-width="4" d="M276.332 156.656v32.065l-68.821 40.631"/>
            <path stroke-width="2" d="M207.51 197.287l68.822-40.631M139.4 157.58l-24.261-14.127M207.451 197.209l-35.274-20.543"/>
            <path stroke-width="4" d="M115.139 154.075v-10.622l52.594-30.991M207.451 229.274l-33.457-19.483M276.273 156.656l-26.338-15.09"/>
            <g stroke-width="2">
                <path d="M225.385 144.969l-2.198-1.264M230.572 147.95L228 146.471M236.164 151.148l-2.952-1.68M222.92 149.91l-2.198-1.264M228.108 152.891l-2.574-1.48M233.7 156.088l-2.952-1.68"/>
                <g>
                    <path d="M220.457 154.85l-2.199-1.264M225.644 157.83l-2.574-1.478M231.235 161.028l-2.952-1.68"/>
                </g>
                <g>
                    <path d="M218.631 159.777l-2.198-1.264M223.818 162.759l-2.573-1.48M229.41 165.956l-2.953-1.68"/>
                </g>
                <g>
                    <path d="M216.433 164.92l-2.199-1.265M221.619 167.9l-2.573-1.478M227.211 171.097l-2.952-1.68"/>
                </g>
            </g>
            <path stroke-width="2" d="M147.002 270.77l134.987-79.22M147.174 282.205v-11.317"/>
            <path stroke-width="4" d="M281.989 192.493v11.317l-134.815 79.22M133.032 112.33l6.6-3.772M2.931 187.778l33.623-19.485"/>
            <path stroke-width="2" d="M147.002 270.77L2.932 187.778"/>
            <path stroke-width="4" d="M2.931 187.778v11.317l144.243 83.935M155.998 118.365l-16.366-9.807M281.046 191.55l-4.734-2.797"/>
            <g>
                <path stroke-width="2" d="M157.544 49.143l86.734 51.084v56.585"/>
                <path stroke-width="4" d="M219.428 142.177l-61.884-36.448V49.143M157.544 49.143a10.838 10.838 0 0 1 11.515-.321l75.534 44.487a10.848 10.848 0 0 1 5.34 9.346V147.1c0 3.702-1.886 7.147-5.004 9.14l-.652.417"/>
                <path stroke-width="2" d="M157.639 87.098l86.125 50.726M206.568 127.832l-11.313-6.366c-1.562-.879-2.829-2.858-2.829-4.421 0-1.563 1.267-2.116 2.829-1.238l11.313 6.366c1.562.879 2.828 2.858 2.828 4.42 0 1.564-1.267 2.118-2.828 1.24z"/>
                <g stroke-width="2">
                    <path d="M231.983 118.776L194.35 96.504c-1.064-.635-1.926-2.012-1.926-3.075V82.19c0-1.064.862-1.41 1.926-.776l37.632 22.272c1.063.635 1.925 2.012 1.925 3.075v11.238c0 1.063-.863 1.411-1.925.777zM215.995 97.927l13.2 7.866M215.995 101.699l13.2 7.866M215.995 105.471l13.2 7.867"/>
                </g>
                <path stroke-width="2" d="M203.377 158.415l-24.99-14.39 6.8-13.218 24.99 14.39z"/>
                <path stroke-width="4" d="M212.065 171.604l-48.864-28.141 13.298-25.846"/>
            </g>
            <path stroke-width="4" d="M226.414 179.88l-18.485-11.06 13.723-31.797"/>
            <path stroke-width="2" d="M221.652 137.023l18.484 11.06-13.722 31.796M244.278 145.758l-3.77 2.41"/>
            <path stroke-width="4" d="M226.366 179.77l17.912-10.576v-23.436M221.652 136.85l3.771-2.828 18.855 11.317"/>
        </g>
        <g>
            <path stroke-width="2" d="M30.189 126.535l-2.173 1.238c-1.93 1.1-1.946 3.879-.029 5l35.567 20.656a4.724 4.724 0 0 0 4.756.006l62.666-38.795c1.694-.993 1.61-3.471-.149-4.347l-2.555-1.27M90.588 99.752l-58.794 33.96M126.846 116.181l-7.184-3.95"/>
            <path stroke-width="2" d="M130.204 124.59l-62.758 37.143a3.973 3.973 0 0 1-4.013.007l-35.048-20.174"/>
            <path stroke-width="4" d="M122.18 105.475l8.916 5.194a4.754 4.754 0 0 1 2.36 4.107v6.575c0 .987-.522 1.9-1.372 2.4M28.386 141.29l-1.441-.841a2.796 2.796 0 0 1-1.387-2.415v-6.078c0-1.696.904-3.265 2.373-4.114L92.094 90.72a4.75 4.75 0 0 1 4.77.007M70.433 181.688l-2.987 1.737a3.973 3.973 0 0 1-4.013.006l-33.661-19.404a2.796 2.796 0 0 1-1.387-2.415v-19.573M104.299 162.002l-10.821 6.29M131.147 124.824v9.198"/>
            <path stroke-width="4" d="M28.386 144.775l-3.956 3.914a3.682 3.682 0 0 0 .752 5.808l33.795 19.468c1.424.82 3.22.597 4.399-.548L98.15 139.68"/>
            <path stroke-width="4" d="M113.335 124.45a124.82 124.82 0 0 0 9.45-26.39l.66-2.8c2.94-12.481-12.9-20.459-21.173-10.665l-1.856 2.197a124.76 124.76 0 0 0-24.856 46.97l-.57 2.041-.955 3.96c-.764 3.17-.252 6.108 1.078 8.516"/>
            <path stroke-width="2" d="M97.15 90.854l16.512 9.68c1.442.844 1.89 2.876 1 4.537-.888 1.66-2.778 2.32-4.22 1.476L93.087 96.375M89.642 102.192l16.477 9.658c1.443.845 1.89 2.877 1.002 4.538-.89 1.66-2.78 2.32-4.222 1.476L85.526 107.68M83.487 112.827l16.032 9.397c1.443.845 1.89 2.877 1.001 4.538-.889 1.66-2.779 2.32-4.221 1.476l-15.695-9.2M78.352 124.059l14.569 8.54c1.442.844 1.89 2.876 1.001 4.537-.889 1.66-2.78 2.32-4.222 1.476l-13.661-8.008"/>
        </g>
        <path stroke-width="2" d="M54.268 147.143c6.67-3.855 14.1-8.148 19.887-11.49"/>
        <path stroke-width="4" d="M185.915 36.935a245.934 245.934 0 0 1 10.21-6.42 221.774 221.774 0 0 1 13.489-7.416l-.119-.405-15.82-9.387 51.546-.012v30.599l-15.785-9.367h-.772a219.137 219.137 0 0 0-15.55 8.44 246.462 246.462 0 0 0-9.634 6.04M70.81 175.518v35.837"/>
        <g>
            <path stroke-width="4" d="M172.628 250.965l-16.003 9.148-17.37-10.136"/>
            <path stroke-width="2" d="M173.994 150.009l-17.369 10.135-17.37-11.078"/>
            <path stroke-width="4" d="M139.255 149.066l17.346-10.329 17.393 11.272M138.17 231.115L120.8 241.25l-17.37-10.135"/>
            <path stroke-width="2" d="M137.746 162.314l-16.946 10.09-17.37-10.135"/>
            <path stroke-width="4" d="M103.43 162.27l17.347-10.33 16.97 10.374M103.807 212.107l-16.003 9.338-17.37-10.135"/>
            <path stroke-width="2" d="M103.43 176.303l-15.626 9.305-17.07-9.96"/>
            <path stroke-width="4" d="M70.734 175.648l-.3-.176 17.346-10.328 15.65 9.566v1.593M172.628 150.054v99.968M139.632 149.111v100.911M103.807 162.314v68.846"/>
            <path stroke-width="2" d="M156.601 160.428v99.025M120.777 173.16v68.374M87.78 185.892v34.894"/>
        </g>
    </g>
</svg>
