<svg xmlns="http://www.w3.org/2000/svg" width="301" height="300" viewBox="0 0 301 300">
    <g fill="none" fill-rule="evenodd" stroke="#FFF" stroke-linecap="round" stroke-linejoin="round" transform="translate(2 1)">
        <path stroke-width="2" d="M153.806 283.988l143.182-84M153.988 296.113v-12"/>
        <path stroke-width="4" d="M296.988 200.988v12l-143 84M138.988 115.988l7-4M101.964 137.45l37.024-21.462M.988 195.988l18.007-10.44"/>
        <path stroke-width="2" d="M153.806 283.988l-152.818-88"/>
        <path stroke-width="4" d="M.988 195.988v12l153 89M186.488 129.815l-12.596-8.072M295.988 199.988l-11.828-7.58"/>
        <path stroke-width="2" d="M251.434 129.471l-31.865-18.852c-.9-.537-1.63-1.703-1.63-2.603v-9.513c0-.9.73-1.194 1.63-.657l31.865 18.852c.9.537 1.63 1.703 1.63 2.603v9.513c0 .9-.73 1.194-1.63.657zM229.913 137.137l-9.58-5.389c-1.323-.744-2.395-2.419-2.395-3.742s1.072-1.792 2.395-1.048l9.58 5.389c1.323.744 2.395 2.419 2.395 3.742s-1.072 1.792-2.395 1.048zM207.179 148.652l4.631-8.997 21.16 12.182-5.759 11.188-19.214-11.062M230.712 223.071v-27.142"/>
        <path stroke-width="4" d="M283.988 165.535v27.143l-53.276 30.393"/>
        <path stroke-width="2" d="M230.712 195.929l53.276-30.394M230.662 195.862l-49.674-28.874"/>
        <path stroke-width="4" d="M181.988 132.988l15.042-8.862M230.662 223.004l-49.674-29.016M283.938 165.535l-15.95-9.547"/>
        <path stroke-width="2" d="M188.402 70.529l73.586 43.242v47.897"/>
        <path stroke-width="4" d="M240.803 149.279l-52.815-31.291v-47M188.402 70.529a9.18 9.18 0 0 1 9.75-.273l63.96 37.658c2.802 1.65 4.875 4.821 4.875 8.073v37c0 3.133-1.95 6.508-4.59 8.195l-.552.353"/>
        <path stroke-width="2" d="M188.482 102.658l72.928 42.937"/>
        <path stroke-width="4" d="M195.649 145.595l8.804-17.104M234.568 174.189l-27.898-16.061M246.719 181.194l-15.652-9.362 11.619-26.915"/>
        <path stroke-width="2" d="M242.686 144.917l15.652 9.362-11.619 26.915M261.845 152.311l-3.193 2.04"/>
        <path stroke-width="4" d="M246.678 181.101l15.167-8.952v-19.838M242.686 144.771l3.193-2.395 15.966 9.58M75.78 9.144l11.576-6.956M119.934 78.908l10.39-6.493M120.046 79.269c-5.527 1.713-12.854.405-20.891-4.367-17.213-10.221-31.167-32.461-31.167-49.674 0-7.523 2.666-12.841 7.104-15.591"/>
        <path stroke-width="2" d="M102.988 14.988v29l16.946 34.92M113.271 9.144l-10.283 5.844"/>
        <path stroke-width="4" d="M112.988 9.091v28.26l17.855 34.804"/>
        <path stroke-width="2" d="M76.734 8.771c5.668-2.503 13.618-1.432 22.421 3.795.909.54 1.809 1.113 2.699 1.718"/>
        <path stroke-width="4" d="M112.988 8.284a65.587 65.587 0 0 0-3.443-2.212C100.86.915 93.004-.197 87.352 2.179"/>
        <path stroke-width="2" d="M102.988 43.988l10.453-6.637"/>
        <g stroke-width="2">
            <path d="M166.039 45.614c-2.733-1.596-4.949-5.105-4.949-7.839V19.959c0-2.733 2.216-3.655 4.949-2.059 2.733 1.596 4.949 5.105 4.949 7.839v17.816c0 2.733-2.216 3.655-4.949 2.059zM134.587 15.215l5.669 3.274M143.988 5.419v14c0 1.657 1.343 3.784 3 4.752l10 5.84M152.988 10.675v27"/>
            <g transform="translate(174 29)">
                <ellipse cx="4.648" cy="5.424" rx="2.241" ry="4.016" transform="rotate(-36.763 4.648 5.424)"/>
                <ellipse cx="17.648" cy="21.072" rx="2.241" ry="4.016" transform="rotate(-36.763 17.648 21.072)"/>
                <path d="M1.654 18.988l20.334-11"/>
            </g>
        </g>
        <g transform="translate(45 134)">
            <path stroke-width="2" d="M75.921 36.068L51.373 50.319a4.495 4.495 0 0 1-4.521.007L1.627 19.738c-1.61-.944-1.529-3.298.142-4.13L4.197 14.4M4.966 22.021L27.144 8.759"/>
            <path stroke-width="2" d="M2.362 26.502l45.312 30.81a3.775 3.775 0 0 0 3.814.006L76.651 42.84"/>
            <path stroke-width="2" d="M2.362 40.502l45.312 30.81a3.775 3.775 0 0 0 3.814.006L84.8 52.151"/>
            <path stroke-width="2" d="M2.362 34.502l45.312 30.81a3.775 3.775 0 0 0 3.814.006l29.5-17.33"/>
            <path stroke-width="4" d="M2.368 27.497a2.644 2.644 0 0 1-1.305-2.28V18.97c0-1.607.854-3.094 2.243-3.902l22.681-13.57a4.517 4.517 0 0 1 4.533-.007l5.281 2.366M84.799 46.988v11.104c0 .945-.502 1.819-1.318 2.295L51.488 78.823a3.775 3.775 0 0 1-3.814-.006l-2.839-1.649-38.79-26.593a5.75 5.75 0 0 1-2.857-4.993l.071-17.066"/>
            <ellipse cx="11.685" cy="74.337" stroke-width="4" rx="3.489" ry="6.961" transform="rotate(-35.295 11.685 74.337)"/>
            <ellipse cx="36.775" cy="89.57" stroke-width="4" rx="3.489" ry="6.961" transform="rotate(-35.295 36.775 89.57)"/>
            <path stroke-width="4" d="M78.176 66.39c.941 1.561 1.528 3.24 1.528 4.644 0 2.722-2.206 3.374-4.928 1.456-1.532-1.08-2.901-2.744-3.805-4.477M4.966 65.032l35.842 21.213c3.562 2.108 8.065-.459 8.065-4.598V79.22"/>
            <path stroke-width="4" d="M76.65 65.785c3.562 2.108 8.065-.459 8.065-4.598V58.76M11.686 69.401l11.735-6.913M99.699 37.765L81.481 47.833a6.11 6.11 0 0 1-5.969-.032l-11.364-6.439c-6.992-3.962-15.66 1.089-15.66 9.126M89.798 21.833c2.638-2.456 6.489-3.525 10.178-2.406"/>
            <path stroke-width="2" d="M9.488 32.027v21.899M14.488 35.027v21.899M19.488 39.027v21.899M24.488 42.027v21.899M29.488 45.027v22.899M34.488 49.027v21.899M78.488 45.988v16.938M73.488 45.488v20.438M68.488 48.027v21.899M63.488 51.027v21.899M58.488 54.027v21.899M53.488 57.027v21.461M39.488 52.027v21.899M44.488 56.027v21.899"/>
        </g>
        <circle cx="163.488" cy="106.488" r="17.5" stroke-width="4"/>
        <path stroke-width="2" d="M179.944 147.47l.043 18.088c.015 6.287-3.317 12.093-8.713 15.184a16.922 16.922 0 0 1-16.64.118l-.661-.367c-5.486-3.04-8.904-8.869-8.922-15.211"/>
        <path stroke-width="4" d="M182.489 155.3a23.657 23.657 0 0 0 10.716 2.716l8.674.111a5.877 5.877 0 0 0 5.952-5.877 5.877 5.877 0 0 0-5.877-5.877h-11.165a6.863 6.863 0 0 1-6.221-3.964l-4.277-9.173c-1.884-4.04-5.265-7.23-9.467-8.719-.726-.257-1.353-.421-1.779-.422l-9.273-.042a39.656 39.656 0 0 0-17.174 3.826l-7.7 3.652a23.693 23.693 0 0 0-13.096 20.89l-.149 21.632a5.895 5.895 0 1 0 11.791.038v-24.086a6.863 6.863 0 0 1 3.964-6.221l7.397-3.449h.196c.011 7.553.029 17.662.05 25.18"/>
        <path stroke-width="4" d="M162.988 233.988a9 9 0 0 1-9 9 9 9 0 0 1-9-9v-68"/>
        <path stroke-width="2" d="M162.988 229.488v4.5M162.988 184.477v45.011M164.736 233.319a8.958 8.958 0 0 1-1.748-5.331"/>
        <path stroke-width="4" d="M180.988 154.988v73a9 9 0 0 1-16.252 5.331"/>
        <circle cx="34.343" cy="75.274" r="15.348" stroke-width="4"/>
        <path stroke-width="4" d="M20.273 111.986a43.727 43.727 0 0 0-5.278 30.456c.546 2.844-1.377 5.171-4.272 5.171h-.898c-2.869 0-5.17-5.205-5.17-5.205V128.59a44.8 44.8 0 0 1 23.357-39.336M20.043 127.048c-.018-11.95-.031-15.06-.031-15.06"/>
        <path stroke-width="2" d="M51.669 127.289a15.448 15.448 0 0 1-22.856 13.596l-.596-.326a15.443 15.443 0 0 1-8.043-13.511"/>
        <path stroke-width="4" d="M19.988 127.457v59.637c0 4.359 3.563 7.893 7.958 7.893s7.958-3.534 7.958-7.893"/>
        <path stroke-width="2" d="M35.904 143.672v41.315M37.113 186.031a7.852 7.852 0 0 1-1.208-4.199"/>
        <path stroke-width="4" d="M50.482 186.031a7.889 7.889 0 0 1-6.685 3.694 7.889 7.889 0 0 1-6.685-3.694"/>
        <path stroke-width="2" d="M51.867 109.988v36.025"/>
        <path stroke-width="4" d="M40.988 88.988c11.354 1.135 20 10.689 20 22.1v29.9M70.988 168.988v-25l20-12 11 7v6"/>
        <path stroke-width="4" d="M121.988 151.988l-17-8-20 12v23"/>
        <path stroke-width="2" d="M70.988 143.988l11 7 20-12M84.988 155.988l17 10 20-12"/>
    </g>
</svg>
