<svg xmlns="http://www.w3.org/2000/svg" width="301" height="302" viewBox="0 0 301 302">
    <g fill="none" fill-rule="evenodd" stroke="#FFF" stroke-linecap="round" stroke-linejoin="round">
        <path stroke-width="2" d="M155.806 286.988l143.182-84M155.988 299.113v-12"/>
        <path stroke-width="4" d="M298.988 203.988v12l-143 84M126.988 126.988l21-12M2.988 198.988l20-11.587"/>
        <path stroke-width="2" d="M155.806 286.988l-152.818-88"/>
        <path stroke-width="4" d="M2.988 198.988v12l153 89M163.242 124.126l-15.254-9.138M297.988 202.988l-29-17M9.988 38.268l8.913-5.357M47.712 90.363l9.276-6.375M47.244 90.663c-4.375 3.273-11.372 2.921-19.257-1.76-13.255-7.87-24-24.995-24-38.25 0-5.793 2.052-9.888 5.47-12.006"/>
        <path stroke-width="2" d="M10.723 37.981c4.364-1.928 10.486-1.103 17.265 2.922 13.255 7.87 24 24.995 24 38.25 0 4.887-1.461 8.566-3.969 10.868"/>
        <path stroke-width="4" d="M56.993 83.992c1.908-2.31 2.994-5.625 2.994-9.84 0-13.255-10.745-30.38-24-38.25-6.688-3.971-12.737-4.827-17.089-2.998"/>
        <path stroke-width="2" d="M36.712 46.942l6.779-3.796M42.712 52.942l6.779-3.796M47.712 59.942l6.779-3.796M50.712 66.942l6.779-3.796M51.712 73.942l6.779-3.796M52.712 79.942l6.779-3.796M30.603 41.942l8.049-4.508M23.487 38.268l8.141-4.559"/>
        <g>
            <path stroke-width="4" d="M77.923 16.11l7.437-4.47M109.398 59.575l7.74-5.319M109.008 59.826c-3.65 2.731-9.488 2.437-16.067-1.469-11.059-6.566-20.025-20.855-20.025-31.914 0-4.833 1.713-8.25 4.564-10.017"/>
            <path stroke-width="2" d="M78.536 15.87c3.641-1.608 8.749-.92 14.405 2.438 11.059 6.566 20.025 20.855 20.025 31.914 0 4.078-1.219 7.147-3.312 9.068"/>
            <path stroke-width="4" d="M117.143 54.26c1.592-1.927 2.498-4.693 2.498-8.21 0-11.059-8.965-25.348-20.025-31.914-5.58-3.313-10.627-4.027-14.258-2.501"/>
            <path stroke-width="2" d="M100.22 23.347l5.657-3.168M105.227 28.353l5.656-3.168M109.398 34.194l5.657-3.168M111.901 40.034l5.657-3.168M112.736 45.875l5.656-3.168M113.57 50.881l5.657-3.168M95.123 19.175l6.717-3.761M89.186 16.11l6.793-3.804"/>
        </g>
        <g>
            <path stroke-width="4" d="M130.827 7.455l6.148-3.694M156.845 43.385l6.397-4.397M156.522 43.592c-3.017 2.258-7.843 2.015-13.281-1.214-9.142-5.428-16.553-17.239-16.553-26.381 0-3.995 1.416-6.82 3.773-8.28"/>
            <path stroke-width="2" d="M131.334 7.257c3.01-1.329 7.232-.76 11.908 2.015 9.142 5.428 16.553 17.239 16.553 26.381 0 3.371-1.007 5.908-2.738 7.496"/>
            <path stroke-width="4" d="M163.246 38.991c1.316-1.593 2.065-3.88 2.065-6.786 0-9.142-7.411-20.953-16.553-26.381-4.613-2.739-8.785-3.329-11.786-2.068"/>
            <path stroke-width="2" d="M149.258 13.438l4.676-2.618M153.396 17.576l4.676-2.618M156.845 22.404l4.675-2.618M158.914 27.232l4.676-2.619M159.604 32.06l4.675-2.619M160.293 36.198l4.676-2.619M145.045 9.989l5.552-3.109M140.137 7.455l5.615-3.144"/>
        </g>
        <path stroke-width="2" d="M22.988 70.988c0 2.761 2.239 6.286 5 7.873 2.761 1.587 5 .634 5-2.127v-8c0-2.761-2.239-6.286-5-7.873l-5-2.873v-10l10 5.745M141.988 32.988v-14l-2 .653"/>
        <g stroke-width="2">
            <path d="M87.951 44.546V25.232l-2.759 1.148M95.539 48.976c-1.905-1.112-3.449-3.558-3.449-5.463V31.097c0-1.905 1.544-2.547 3.449-1.435 1.905 1.112 3.449 3.558 3.449 5.463v12.416c0 1.905-1.545 2.548-3.449 1.435z"/>
        </g>
        <path stroke-width="4" d="M176.906 14.45l9.188-5.248-11.106-6.214h36v21l-11.354-6.566-9.081 5.128"/>
        <g>
            <path stroke-width="4" d="M23.988 138.04v54.8"/>
            <path stroke-width="2" d="M126.7 110.988l-25.922 14.293-26.57-15.499"/>
            <path stroke-width="4" d="M72.988 194.988l-22.683 13.283-25.994-15.431"/>
            <path stroke-width="2" d="M73.988 138.04l-23.683 14.431-26.111-14.231"/>
            <path stroke-width="4" d="M24.311 138.04l25.958-15.863 22.782 13.922M73.988 222.794l26.79 15.761 26.21-15.567v-112l-26.246-17-26.534 15.635z"/>
            <path stroke-width="2" d="M100.988 125.281v113.707M49.988 152.903v54.358"/>
        </g>
        <g>
            <path stroke-width="4" d="M242.756 205.433l5.379 3.123"/>
            <path stroke-width="2" d="M182.767 157.777a29.852 29.852 0 0 0 13.22-24.79l-4.571 1.493"/>
            <path stroke-width="4" d="M267.988 130.154v-20l-73-42.166-24 15v20l73 42.166z"/>
            <path stroke-width="2" d="M243.988 125.154l-73-42.166M243.988 144.988v-19.834l24-14.166M215.999 122.426l-18.179-10.501a5.666 5.666 0 0 1-2.832-4.907c0-2.047 2.216-3.326 3.988-2.302l18.179 10.501a5.666 5.666 0 0 1 2.832 4.907c.001 2.047-2.215 3.326-3.988 2.302z"/>
            <path stroke-width="4" d="M267.988 131.521v65l-18.85 11.75M169.151 162.798a29.72 29.72 0 0 1-5.112 4.004l-.123.076 73.026 42.348a29.686 29.686 0 0 0 14.046-25.232v-43.007"/>
            <path stroke-width="2" d="M248.135 208.556c7.853-8.569 7.853-18.254 7.853-31.955v-39.613M255.991 203.36c4.792-7.311 3.996-15.54 3.996-27.759v-39.613M260.988 200.988c4-7 3-15.168 3-27.387v-39.613"/>
            <path stroke-width="4" d="M243.752 145.029l-4.249 14.069c-4.463 14.779-18.079 24.89-33.516 24.89l-73-42h.886c15.492 0 29.142-10.181 33.558-25.03l3.748-12.602"/>
            <path stroke-width="2" d="M177.988 154.988l8.906 5.195"/>
        </g>
        <g stroke-width="2">
            <path d="M199.988 27.988l9 5.256-9 4.744 5 2.966c2.761 1.638 5 5.204 5 7.966v7c0 2.761-2.239 3.672-5 2.034-2.761-1.638-5-5.204-5-7.966M222.988 41.419v14c0 1.657 1.343 3.784 3 4.752l10 5.84M231.988 46.675v27M213.587 48.215l5.669 3.274"/>
            <g>
                <path d="M261.488 86.33c1.381.814 2.5 2.145 2.5 2.974v2.4c0 .828-1.119.84-2.5.026s-2.5-2.145-2.5-2.974M261.488 86.303c-1.381-.814-2.5-2.145-2.5-2.974v-2.4c0-.828 1.119-.84 2.5-.026s2.5 2.145 2.5 2.974M239.988 68.347l1.434 8.009c.329 1.837 1.773 3.865 3.451 4.844"/>
                <path d="M246.988 72.435l-3.723 15.511c-.161.672-.837.826-1.621.369-.915-.534-1.656-1.709-1.656-2.623M249.988 74.187v11M249.988 77.007l1.715-.995c1.398-.811 4.047 1.333 4.611 3.733"/>
            </g>
        </g>
        <g stroke-width="4">
            <path d="M177.988 229.988c10.089 0 18-7.643 18-17.732 0-10.089-8.179-18.268-18.268-18.268h-22.625v29h-11.107v7h11l.107 9.964h-11.232l.125 7.036 11.107.036v12.964h6.893v-13h18v-7h-18v-10h16z"/>
            <path d="M161.988 201.059h15.651c6.228 0 11.277 4.909 11.277 10.964 0 6.055-5.049 10.964-11.277 10.964h-15.651v-21.928z"/>
        </g>
    </g>
</svg>
