<svg xmlns="http://www.w3.org/2000/svg" width="301" height="299" viewBox="0 0 301 299">
    <g fill="none" fill-rule="evenodd" stroke="#FFF" stroke-linecap="round" stroke-linejoin="round">
        <path stroke-width="2" d="M155.806 283.988l143.182-84M155.988 296.113v-12"/>
        <path stroke-width="4" d="M298.988 200.988v12l-143 84M85.113 147.383l37.793-22.231M72.37 154.925l6.618-3.937M2.988 195.988l17-10.062"/>
        <path stroke-width="2" d="M155.806 283.988l-152.818-88"/>
        <path stroke-width="4" d="M2.988 195.988v12l153 89M190.056 138.804l-11.986-6.795M297.988 199.988l-21.169-12M200.087 242.072l83.023-48.185V86.988"/>
        <path stroke-width="4" d="M264.294 174.165l-18.306-16.376-33 19.199-25-13h-28v9h25l24 13.275 32.451-18.834 14.319 11.69-5.77 3.349 10 6.029 10-17.637z"/>
        <g stroke-width="2">
            <path d="M160.988 245.188c0 3.403 2.677 4.617 6 2.72h.001c3.305-1.887 6-6.186 6-9.571v-9.833c0-3.403-2.677-4.617-6-2.72-3.305 1.887-6 6.187-6 9.572v9.832h-.001z"/>
            <path d="M160.988 235.355v-11.063c0-4.073 3.224-9.246 7.2-11.554 2.651-1.539 4.8-.585 4.8 2.131M184.842 203.073l-.708.411c-3.394 1.97-6.146 6.318-6.146 9.713v22.125c0 3.394 2.752 4.549 6.146 2.579l.708-.411c3.394-1.97 6.146-6.318 6.146-9.713v-22.125c0-3.394-2.752-4.549-6.146-2.579zM202.842 192.626l-.708.411c-3.394 1.97-6.146 6.318-6.146 9.713v22.125c0 3.394 2.752 4.549 6.146 2.579l.708-.411c3.394-1.97 6.146-6.318 6.146-9.713v-22.125c0-3.394-2.752-4.549-6.146-2.579zM213.988 197.22v23.354M214.613 210.378v-.118c0-2.037 1.651-4.646 3.687-5.828 2.037-1.182 3.688-.489 3.688 1.547v9.952"/>
        </g>
        <path stroke-width="4" d="M105.988 241.072l-86-50.084v-113"/>
        <path stroke-width="4" d="M105.95 231.05c.012-.493.038-.975.038-1.478 0-33.798-27.266-77.096-61-97.012V98.547l-15-8.736v97l75.962 44.239z"/>
        <g stroke-width="4">
            <path d="M61.988 135.447l-8-4.659c-1.657-.965-3-3.09-3-4.747s1.343-2.218 3-1.253l8 4.659c1.657.965 3 3.09 3 4.747s-1.344 2.218-3 1.253zM57.988 133.118v8"/>
        </g>
        <g stroke-width="4">
            <path d="M101.23 179.716l-5.657-8.951c-1.172-1.854-1.172-3.753 0-4.243 1.172-.489 3.071.617 4.243 2.471l5.657 8.951c1.172 1.854 1.172 3.753 0 4.243-1.172.489-3.071-.617-4.243-2.471zM98.402 175.24l-7.071 2.953"/>
        </g>
        <g stroke-width="4">
            <path d="M83.448 153.621l-7.396-7.357c-1.532-1.524-2.261-3.702-1.63-4.866.632-1.164 2.385-.872 3.917.651l7.396 7.357c1.532 1.524 2.261 3.702 1.63 4.866-.632 1.164-2.385.873-3.917-.651zM79.75 149.943l-3.812 7.025"/>
        </g>
        <g stroke-width="4">
            <path d="M113.518 208.203l-3.453-9.227c-.715-1.911-.083-3.334 1.411-3.179 1.495.155 3.286 1.83 4.001 3.741l3.453 9.227c.715 1.911.083 3.334-1.411 3.179-1.494-.155-3.286-1.83-4.001-3.741zM111.792 203.589l-9.021-.937"/>
        </g>
        <g stroke-width="4">
            <path d="M115.988 233.896v-8c0-1.657 1.343-2.218 3-1.253 1.657.965 3 3.09 3 4.747v8c0 1.657-1.343 2.218-3 1.253-1.657-.965-3-3.09-3-4.747zM115.988 229.896l-10-5.824"/>
        </g>
        <path stroke-width="2" d="M81.846 208.522l-38.069-60.239 3.535-1.477 38.069 60.239zM275.988 90.053L153.11 162.011v99.811l122.878-71.958z"/>
        <g transform="translate(61 1)">
            <path stroke-width="4" d="M112.094 132.021c-10.13 7.552-26.313 6.727-44.547-4.1-30.684-18.22-55.559-57.865-55.559-88.549 0-13.606 4.891-23.166 13.011-28.004"/>
            <path stroke-width="2" d="M24.999 11.368c10.192-6.072 25.47-4.705 42.548 5.435 30.684 18.22 55.559 57.865 55.559 88.549 0 12.45-4.095 21.512-11.012 26.669"/>
            <ellipse cx="67.544" cy="72.355" stroke-width="2" rx="35.494" ry="63.738" transform="rotate(-36.735 67.544 72.355)"/>
            <path stroke-width="2" d="M61.806 61.772c1.573-.325 3.569.107 5.741 1.396 2.538 1.507 4.836 3.9 6.499 6.551M76.745 75.611c.158.757.242 1.498.242 2.21 0 5.077-4.253 6.749-9.5 3.734-5.247-3.015-9.5-9.575-9.5-14.652 0-1.107.202-2.053.573-2.823"/>
            <g stroke-width="2">
                <path d="M67.147 30.955v8.793M67.147 104.501v8.793"/>
                <g>
                    <path d="M108.716 97.208l-8.793-5.222M35.17 54.337l-8.793-5.222"/>
                </g>
            </g>
            <g stroke-width="2">
                <path d="M66.988 29.988v9M66.988 104.988v8M108.716 97.208l-8.793-5.222M35.17 54.337l-8.793-5.222M102.988 72.988h-8M38.988 71.988h-7"/>
                <g>
                    <path d="M86.895 120.297l-4.223-10.221M50.875 34.782l-4.223-10.221"/>
                </g>
                <g>
                    <path d="M88.613 49.375l-4.582 4.784M50.289 89.39l-4.582 4.785"/>
                </g>
                <g>
                    <path d="M102.697 114.56l-7.547-8.995M39.17 39.772l-7.547-8.995"/>
                </g>
            </g>
            <path stroke-width="2" d="M89.712 72.855c-.474-1.031-1.467-1.842-2.214-1.808l-17.726-.171c-.614-.852-1.38-1.611-2.225-2.112-.732-.435-.411-.616-.979-.578l-11.74-13.749c-.765-.896-1.743-1.214-2.184-.712-.441.503-1.179 1.636-.415 2.531l11.743 13.752c-.005.074-.023.137-.023.216 0 1.987 1.611 4.554 3.597 5.733 1.946 1.155 3.376.92 3.441-.972h18c.741-.032 1.195-1.108.725-2.13z"/>
        </g>
        <path stroke-width="4" d="M85.948 12.283l14.757-7.675c10.062-4.138 23.993-2.126 39.386 7.014 30.684 18.22 55.559 57.865 55.559 88.549 0 10.986-3.188 19.333-8.69 24.688l-13.743 8.328"/>
        <path stroke-width="2" d="M137.938 9.891l-11.901 6.193M146.954 15.42l-11.902 6.193M154.843 21.613l-11.901 6.193M161.938 28.681l-11.901 6.193M168.905 36.416l-11.901 6.194M175.889 44.866l-11.901 6.193M182.624 54.488l-11.902 6.193M187.79 66.694l-11.117 5.785M193.165 78.374l-11.901 6.193M195.306 90.391l-11.901 6.193M196.576 99.82l-11.902 6.193M196.007 107.966l-11.901 6.193M193.741 115.585l-11.901 6.193M128.488 5.321l-11.584 6.333M118.938 2.891l-11.901 6.193"/>
    </g>
</svg>
