<svg xmlns="http://www.w3.org/2000/svg" width="301" height="300" viewBox="0 0 301 300">
    <g fill="none" fill-rule="evenodd" stroke="#FFF" stroke-linecap="round" stroke-linejoin="round">
        <g stroke-width="4">
            <path d="M89.578 133.791l-1.611-1.054a24.613 24.613 0 0 0-16.417-2.162M65.693 165.827a97.95 97.95 0 0 0 23.803-16.028M43.888 131.741v5.515c0 1.412-.471 3.195-1.834 4.351l-9.049 7.676c-3.549 3.01-6.554 6.841-8.667 10.836-2.812 5.315-1.063 11.798 3.686 15.224"/>
        </g>
        <path stroke-width="4" d="M44.085 131.083a20.247 20.247 0 0 1-6.832-15.188c0-2.079.312-4.084.893-5.972"/>
        <path stroke-width="2" d="M71.557 130.582a20.229 20.229 0 0 1-14.008 5.609c-5.166 0-9.881-1.93-13.464-5.109"/>
        <path stroke-width="4" d="M75.229 125.87a20.383 20.383 0 0 1-3.672 4.712M77.517 112.238c.216 1.186.329 2.408.329 3.657a20.21 20.21 0 0 1-2.616 9.975M49.508 116.784c-5.257-.91-9.705-3.184-12.017-8.152v-4.403a17.919 17.919 0 0 1 26.415-15.777l.591.381a29.059 29.059 0 0 1 11.701 14.856"/>
        <path stroke-width="2" d="M59.479 153.543l7.69-8.315h10.676v-1.385c0-5.158-2.919-9.871-7.537-12.169 1.675 3.954 1.7 7.909-.32 10.899-2.169 3.21-6.248 4.648-10.946 4.322"/>
        <path stroke-width="4" d="M75.388 103.119l12.794 7.423c.317.183.095.667-.251.545a14.286 14.286 0 0 0-17.531 7.128l-1.602 3.229a5.307 5.307 0 0 1-7.409 2.237l-12.618-7.327"/>
        <path stroke-width="2" d="M48.772 116.354l4.877-8.867c3.608-6.56 11.669-9.222 18.474-6.1l1.347.618 1.918 1.113M62.736 150.022l6.05 3.521 4.118-2.471v-5.765M68.786 153.543V164.8M72.904 150.249l7.162 7.161"/>
        <g>
            <path stroke-width="2" d="M155.806 284.988l143.182-84M155.988 297.113v-12"/>
            <path stroke-width="4" d="M298.988 201.988v12l-143 84M126.988 124.988l18-10M2.988 196.988l23.855-13.776"/>
            <path stroke-width="2" d="M155.806 284.988l-152.818-88"/>
            <path stroke-width="4" d="M2.988 196.988v12l153 89M199.06 145.381l-54.072-30.393M297.988 200.988l-23-13"/>
        </g>
        <g>
            <g stroke-width="4">
                <path d="M117.13 192.724a97.955 97.955 0 0 0 26.634-18.106c.171-.164.336-.332.494-.506 3.819-4.195 2.72-10.888-2.026-13.995l-1.611-1.054a24.613 24.613 0 0 0-16.417-2.162M96.542 158.068v5.515c0 1.412-.471 3.195-1.834 4.351l-9.049 7.676c-3.549 3.01-6.554 6.841-8.667 10.836-3.096 5.853-.662 13.121 5.217 16.165.789.409 1.613.725 2.457.948"/>
            </g>
            <path stroke-width="4" d="M96.739 157.41a20.247 20.247 0 0 1-6.832-15.188c0-2.079.312-4.084.893-5.972"/>
            <path stroke-width="2" d="M124.211 156.909a20.229 20.229 0 0 1-14.008 5.609c-5.166 0-9.881-1.93-13.464-5.109"/>
            <path stroke-width="4" d="M127.883 152.197a20.383 20.383 0 0 1-3.672 4.712M130.171 138.565c.216 1.186.329 2.408.329 3.657a20.21 20.21 0 0 1-2.616 9.975M102.162 143.111c-5.257-.91-9.705-3.184-12.017-8.152v-4.403a17.919 17.919 0 0 1 26.415-15.777l.591.381a29.059 29.059 0 0 1 11.701 14.856"/>
            <path stroke-width="2" d="M115.39 176.349l4.433-4.794h10.676v-1.385c0-5.158-2.919-9.871-7.537-12.169 1.675 3.954 1.7 7.909-.32 10.899-3.982 5.894-14.402 5.812-23.273-.182a29.051 29.051 0 0 1-2.627-1.999M90.886 171.175l3.163 1.471a52.596 52.596 0 0 1 3.508 1.794"/>
            <path stroke-width="4" d="M128.042 129.446l12.794 7.423c.317.183.095.667-.251.545a14.286 14.286 0 0 0-17.531 7.128l-1.602 3.229a5.307 5.307 0 0 1-7.409 2.237l-12.618-7.327"/>
            <path stroke-width="2" d="M101.426 142.681l4.877-8.867c3.608-6.56 11.669-9.222 18.474-6.1l1.347.618 1.918 1.113M115.39 176.349l6.05 3.521 4.118-2.471v-5.765M121.44 179.87v11.257M125.558 176.576l7.162 7.161"/>
        </g>
        <g>
            <g stroke-width="4">
                <path d="M237.315 175.993l-4.124-1.705a97.945 97.945 0 0 1-30.213-19.67 10.237 10.237 0 0 1-.494-.506c-3.819-4.195-2.72-10.888 2.026-13.995l1.611-1.054a24.613 24.613 0 0 1 16.417-2.162M250.2 138.068v5.515c0 1.412.471 3.195 1.834 4.351l9.049 7.676c3.549 3.01 6.554 6.841 8.667 10.836 1.455 2.75 1.689 5.813.918 8.603"/>
            </g>
            <path stroke-width="4" d="M250.004 137.41a20.247 20.247 0 0 0 6.832-15.188 20.27 20.27 0 0 0-.893-5.972"/>
            <path stroke-width="2" d="M222.531 136.909a20.229 20.229 0 0 0 14.008 5.609c5.166 0 9.881-1.93 13.464-5.109"/>
            <path stroke-width="4" d="M218.859 132.197a20.383 20.383 0 0 0 3.672 4.712M216.572 118.565a20.395 20.395 0 0 0-.329 3.657c0 3.626.951 7.029 2.616 9.975M244.581 123.111c5.257-.91 9.705-3.184 12.017-8.152v-4.403a17.919 17.919 0 0 0-26.415-15.777l-.591.381a29.059 29.059 0 0 0-11.701 14.856"/>
            <path stroke-width="2" d="M239.639 161.281a52.58 52.58 0 0 0-1.983 1.883l-10.737-11.609h-10.676v-1.385c0-5.158 2.919-9.871 7.537-12.169-1.675 3.954-1.7 7.909.32 10.899 3.982 5.894 14.402 5.812 23.273-.182a29.051 29.051 0 0 0 2.627-1.999"/>
            <path stroke-width="4" d="M218.7 109.446l-12.794 7.423c-.317.183-.095.667.251.545a14.286 14.286 0 0 1 17.531 7.128l1.602 3.229a5.307 5.307 0 0 0 7.409 2.237l12.618-7.327"/>
            <path stroke-width="2" d="M245.316 122.681l-4.877-8.867c-3.608-6.56-11.669-9.222-18.474-6.1l-1.347.618-1.918 1.113M231.353 156.349l-6.051 3.521-4.117-2.471v-5.765M225.302 159.87v11.257M221.185 156.576l-7.162 7.161"/>
        </g>
        <g>
            <g stroke-width="2">
                <path d="M256.092 198.019l8.054-4.599c3.013-1.72 3.595-4.367 2.863-7.133-.757-2.859-2.49-3.981-5.503-2.261l-3.621 2.068-1.868 1.011a49.378 49.378 0 0 1 4.206 19.853v.1M256.78 201.976l9.416-5.366"/>
            </g>
            <path stroke-width="2" d="M263.589 160.614c-.235 1.534-1.305 3.037-3.219 4.246-4.5 2.841-11.964 2.98-16.671.311-2.194-1.244-3.401-2.879-3.61-4.557"/>
            <path stroke-width="4" d="M240.089 160.614c-.239-1.923.833-3.903 3.236-5.42 4.5-2.841 11.964-2.98 16.671-.311 2.704 1.533 3.91 3.66 3.593 5.731"/>
            <path stroke-width="2" d="M259.838 174.194c-.212 1.021-.932 2.013-2.167 2.819-3.075 2.008-8.175 2.105-11.391.216-1.608-.944-2.441-2.206-2.488-3.482"/>
            <path stroke-width="4" d="M242.933 171.957a20.937 20.937 0 0 0-10.347 18.061v11.878c-.935 3.882.839 7.744 5.407 10.381 7.957 4.594 21.36 3.731 29.936-1.927 5.352-3.531 7.559-8.094 6.53-12.143v-8.19c0-8.997-5.445-16.125-12.694-19.249"/>
            <path stroke-width="2" d="M260.777 170.769l-.951 3.439"/>
            <path stroke-width="4" d="M263.586 160.614l-2.809 10.155"/>
            <path stroke-width="2" d="M243.473 172.722l.652 2.323"/>
            <path stroke-width="4" d="M240.09 160.614l2.546 10.434"/>
        </g>
        <g>
            <g stroke-width="2">
                <path d="M51.476 188.401l8.054-4.599c3.013-1.72 3.595-4.367 2.863-7.133-.757-2.859-2.49-3.981-5.503-2.261l-3.621 2.068-1.868 1.011a49.378 49.378 0 0 1 4.206 19.853v.1M52.164 192.359l9.416-5.367"/>
            </g>
            <path stroke-width="2" d="M58.973 150.997c-.235 1.534-1.305 3.037-3.219 4.246-4.5 2.841-11.964 2.98-16.671.311-2.194-1.244-3.401-2.879-3.61-4.557"/>
            <path stroke-width="4" d="M35.473 150.996c-.239-1.923.833-3.903 3.236-5.42 4.5-2.841 11.964-2.98 16.671-.311 2.704 1.533 3.91 3.66 3.593 5.731"/>
            <path stroke-width="2" d="M55.222 164.576c-.212 1.021-.932 2.013-2.167 2.819-3.075 2.008-8.175 2.105-11.391.216-1.608-.944-2.441-2.206-2.488-3.482"/>
            <path stroke-width="4" d="M38.317 162.339A20.937 20.937 0 0 0 27.97 180.4v11.878c-.935 3.882.839 7.744 5.407 10.381 7.957 4.594 21.36 3.731 29.936-1.927 5.352-3.531 7.559-8.094 6.53-12.143v-8.19c0-8.997-5.445-16.125-12.694-19.249"/>
            <path stroke-width="2" d="M56.161 161.151l-.951 3.439"/>
            <path stroke-width="4" d="M58.97 150.996l-2.809 10.155"/>
            <path stroke-width="2" d="M38.857 163.105l.652 2.322"/>
            <path stroke-width="4" d="M35.474 150.996l2.546 10.434"/>
        </g>
        <g>
            <g stroke-width="2">
                <path d="M108.518 220.213l8.054-4.599c3.013-1.72 3.595-4.367 2.863-7.133-.757-2.859-2.49-3.981-5.503-2.261l-3.621 2.068-1.868 1.011a49.378 49.378 0 0 1 4.206 19.853v.1M109.206 224.17l9.416-5.366"/>
            </g>
            <path stroke-width="2" d="M116.015 182.808c-.235 1.534-1.305 3.037-3.219 4.246-4.5 2.841-11.964 2.98-16.671.311-2.194-1.244-3.401-2.879-3.61-4.557"/>
            <path stroke-width="4" d="M92.515 182.808c-.239-1.923.833-3.903 3.236-5.42 4.5-2.841 11.964-2.98 16.671-.311 2.704 1.534 3.91 3.66 3.593 5.731"/>
            <path stroke-width="2" d="M112.264 196.388c-.212 1.021-.932 2.013-2.167 2.819-3.075 2.008-8.175 2.105-11.391.216-1.608-.944-2.441-2.206-2.488-3.482"/>
            <path stroke-width="4" d="M95.359 194.151a20.937 20.937 0 0 0-10.347 18.061v11.878c-.935 3.882.839 7.744 5.407 10.381 7.957 4.594 21.36 3.731 29.936-1.927 5.352-3.531 7.559-8.094 6.53-12.143v-8.19c0-8.997-5.445-16.125-12.694-19.249"/>
            <path stroke-width="2" d="M113.203 192.963l-.951 3.438"/>
            <path stroke-width="4" d="M116.012 182.808l-2.809 10.155"/>
            <path stroke-width="2" d="M95.899 194.916l.652 2.323"/>
            <path stroke-width="4" d="M92.516 182.808l2.545 10.433"/>
        </g>
        <path stroke-width="4" d="M147.988 185.988h22l-.024-22.64 35.466 42.854-35.466 42.855v-21.069h-22.166"/>
        <g>
            <g stroke-width="2">
                <path d="M167.268 67.595l.097.053c1.665.9 3.191 2.851 3.504 4.655.422 2.428-1.253 3.447-3.377 2.298 1.962 1.061 3.541 3.557 3.437 5.486-.097 1.809-1.768 2.301-3.632 1.293l-2.1-1.135c1.962 1.061 3.541 3.557 3.437 5.486-.097 1.809-1.768 2.301-3.632 1.293l-4.734-2.559-22.365-12.093-7.129-3.855V44.6l4.988 1.099c5.265 1.16 8.837-1.804 8.837-7.333v-3.515c0-1.849 1.384-2.757 3.23-1.856 1.969.961 3.889 3.408 3.889 5.354v13.797l15.773 8.686c1.953 1.056 3.526 3.532 3.439 5.457-.081 1.835-1.781 2.323-3.662 1.306zM165.198 80.245l-6.885-3.722M167.493 74.601l-9.18-4.963M167.493 67.717l-9.18-4.963"/>
                <path d="M123.086 39.875l7.689 4.546v24.096l-7.689-4.53z"/>
            </g>
            <path stroke-width="4" d="M186.856 97.663l-10.506-.131-1.464 11.001-11.882-6.393-6.776 6.097-10.536-11.191-10.536-.203-6.776-13.424-11.882-6.457-1.464-12.583-10.506-11.231 4.183-8.859-6.723-13.432 8.873-3.106-1.401-12.556"/>
            <path stroke-width="2" d="M109.46 15.195l11.529 3.359 4.243-8.804 11.545 9.054 8.915-3.035 8.915 12.676 11.544 3.429 4.243 13.393 11.53 9.109-1.401 11.042 8.873 12.7-6.724 6.162 4.184 13.383"/>
            <path stroke-width="4" d="M128.592 7.973l-5.106-1.488-14.026 8.71M187.363 97.663l13.519-8.71-4.588-14.171 7.414-4.442-9.159-13.632 1.401-11.042-11.53-9.108-4.243-13.393-11.544-3.43-8.915-12.676-7.604 4.064-11.298-8.861-14.622 7.859"/>
            <path stroke-width="2" d="M181.861 54.945l14.026-8.189M171.311 44.396l14.026-8.189M166.79 32.339l14.026-8.188M180.992 66.089l14.895-8.973M189.281 78.103l14.026-8.189M145.692 15.762l14.026-8.189M154.734 27.818l13.518-7.748"/>
        </g>
    </g>
</svg>
