<svg xmlns="http://www.w3.org/2000/svg" width="100" height="101" viewBox="0 0 100 101">
    <g fill="none" fill-rule="evenodd">
        <path fill="#CD7524" fill-rule="nonzero" d="M53 30v15h16a3 3 0 1 1 0 6H53v6h23V30l-3 2-2.979-2L67 32l-3.063-2-2.875 2L58 30l-2.938 2L53 30zM96 88H81V68.343h15z"/>
        <path stroke="#545352" stroke-linecap="round" stroke-linejoin="round" stroke-width="2" d="M78 8v6.5a7.5 7.5 0 0 1-15 0V8M72.844 1h-4.688A5.157 5.157 0 0 0 63 6.156V8l4.083-3c3.216 1.962 6.909 3 10.676 3H78V6.156A5.157 5.157 0 0 0 72.844 1zM81 54l.042 45.005L59.03 99 59 58M70 62v37M52.509 31.21c-.133.362-.252.732-.356 1.11l-3.157 11.443C47.992 47.403 50.731 51 54.508 51H69a3 3 0 1 0 0-6H53"/>
        <path stroke="#545352" stroke-linecap="round" stroke-linejoin="round" stroke-width="2" d="M81 54l.632-20.234 5.603 25.391c.386 1.751 2.08 3.02 3.835 2.648a3.26 3.26 0 0 0 2.485-4.004l-5.29-25.065A13.528 13.528 0 0 0 75.028 22h-9.323c-3.548 0-6.85 1.329-9.363 3.572"/>
        <path stroke="#545352" stroke-linecap="round" stroke-linejoin="round" stroke-width="2" d="M85.814 71v-4.5a4.5 4.5 0 0 1 9 0V71"/>
        <path stroke="#545352" stroke-linecap="round" stroke-linejoin="round" stroke-width="2" d="M99 91H81V68h18zM53 45V26l2.125 2 2.792-2 3.166 2 2.834-2 3.166 2L70 26l2.917 2L76 26V57H53v-6M59 95.042h22.038"/>
        <path fill="#CD7524" fill-rule="nonzero" d="M25 68.343h14.787V88H25z"/>
        <path stroke="#545352" stroke-linecap="round" stroke-linejoin="round" stroke-width="2" d="M43 8v6.5a7.5 7.5 0 0 0 15 0V8M40.042 57L40 99.005l19-.004M50.894 62v37"/>
        <path stroke="#545352" stroke-linecap="round" stroke-linejoin="round" stroke-width="2" d="M40 57l-.845-23.234-5.603 25.391c-.386 1.751-2.08 3.02-3.835 2.648a3.26 3.26 0 0 1-2.485-4.004l5.29-25.065A13.528 13.528 0 0 1 45.76 22h9.323c1.565 0 3.081.258 4.504.74"/>
        <path stroke="#545352" stroke-linecap="round" stroke-linejoin="round" stroke-width="2" d="M34.974 71v-4.5a4.5 4.5 0 0 0-9 0V71"/>
        <path stroke="#545352" stroke-linecap="round" stroke-linejoin="round" stroke-width="2" d="M22 68h18v23H22zM34 57h19"/>
        <g>
            <path fill="#CD7524" fill-rule="nonzero" d="M4 68.343h14.787V88H4z"/>
            <path stroke="#545352" stroke-linecap="round" stroke-linejoin="round" stroke-width="2" d="M22 9v5.5a7.5 7.5 0 0 0 15 0V9H22zM19.042 57L19 99.005l22-.004"/>
            <path stroke="#545352" stroke-linecap="round" stroke-linejoin="round" stroke-width="2" d="M19 57a43.676 43.676 0 0 0 .193-18.04l-1.038-5.193-5.603 25.391c-.386 1.751-2.08 3.02-3.835 2.648a3.26 3.26 0 0 1-2.485-4.004l5.29-25.065A13.528 13.528 0 0 1 24.76 22h9.323c1.565 0 3.081.258 4.504.74"/>
            <path stroke="#545352" stroke-linecap="round" stroke-linejoin="round" stroke-width="2" d="M13.974 71v-4.5a4.5 4.5 0 0 0-9 0V71"/>
            <path stroke="#545352" stroke-linecap="round" stroke-linejoin="round" stroke-width="2" d="M1 68h18v23H1z"/>
        </g>
        <path stroke="#545352" stroke-linecap="round" stroke-linejoin="round" stroke-width="2" d="M23 19h-2.362a2.201 2.201 0 0 1-2.165-2.596L19.81 9.08a9.85 9.85 0 0 1 19.379.001l1.337 7.324A2.2 2.2 0 0 1 38.362 19H36M51 1h-1a7 7 0 0 0-7 7l1.209.302A56.84 56.84 0 0 0 58 10V8a7 7 0 0 0-7-7zM27.401 57h-8.362M32 91v8"/>
    </g>
</svg>
