<svg xmlns="http://www.w3.org/2000/svg" width="83" height="101" viewBox="0 0 83 101">
    <g fill="none" fill-rule="evenodd" transform="translate(1 1)">
        <g fill="#CD7524" fill-rule="nonzero">
            <path d="M20 67h18v20H20zM78 87H61V67h17z"/>
        </g>
        <circle cx="18.5" cy="13.5" r="7.5" fill="#CD7524" fill-rule="nonzero"/>
        <path stroke="#545352" stroke-linecap="round" stroke-linejoin="round" stroke-width="2" d="M57 7v6.5a7.5 7.5 0 0 1-15 0V7M51.844 0h-4.688A5.157 5.157 0 0 0 42 5.156V7l4.083-3c3.216 1.962 6.909 3 10.676 3H57V5.156A5.157 5.157 0 0 0 51.844 0zM60.042 98.005L38.03 98 38 53h22zM49 61v37"/>
        <path stroke="#545352" stroke-linecap="round" stroke-linejoin="round" stroke-width="2" d="M43 53v1.362A4.639 4.639 0 0 1 38.362 59M55 53v1.362A4.639 4.639 0 0 0 59.638 59M33 70v-5a5 5 0 0 0-10 0v5"/>
        <path stroke="#545352" stroke-linecap="round" stroke-linejoin="round" stroke-width="2" d="M17 67h21v23H17zM73.555 56.801l-6.583-27.548A10.752 10.752 0 0 0 56.514 21H42.337a10.752 10.752 0 0 0-10.413 8.074l-7.13 27.727a3.261 3.261 0 0 0 2.513 4.01c1.731.352 3.409-.85 3.849-2.561l6.25-24.276L38 53h22l.632-20.234 6.561 25.484c.441 1.711 2.118 2.914 3.849 2.561a3.261 3.261 0 0 0 2.513-4.01z"/>
        <path stroke="#545352" stroke-linecap="round" stroke-linejoin="round" stroke-width="2" d="M65.348 70v-5a5 5 0 0 1 10 0v5"/>
        <path stroke="#545352" stroke-linecap="round" stroke-linejoin="round" stroke-width="2" d="M81 90H60V67h21zM20 6.444V12M18 0h4v3h-4z"/>
        <circle cx="20" cy="12" r="9" stroke="#545352" stroke-linecap="round" stroke-linejoin="round" stroke-width="2"/>
        <path stroke="#545352" stroke-linecap="round" stroke-linejoin="round" stroke-width="2" d="M55.004 21.942a6.416 6.416 0 0 1-5.435 3.014c-2.663 0-4.949-1.631-5.925-3.956M20 12l-2 2M8 7H0M7 12H2M8 17H4M38 94.042h22.038"/>
    </g>
</svg>
