<svg xmlns="http://www.w3.org/2000/svg" width="98" height="100" viewBox="0 0 98 100">
    <g fill="none" fill-rule="evenodd" transform="translate(1 1)">
        <g fill="#CD7524" fill-rule="nonzero">
            <path d="M83 78h5v13h-5zM91 72h5v19h-5zM19.313 72h-2.625A6.687 6.687 0 0 1 10 65.313V60h16v5.313A6.687 6.687 0 0 1 19.313 72z"/>
        </g>
        <path stroke="#545352" stroke-linecap="round" stroke-linejoin="round" stroke-width="2" d="M13.964 55H22v5h-8.036zM3 66.804v9.284M33 67.312v8.284M28.565 90H7.891A6.89 6.89 0 0 1 1 83.109V83h34.456v.109A6.89 6.89 0 0 1 28.565 90zM89.109 98H68.435a6.89 6.89 0 0 1-6.891-6.891V91H96v.109A6.89 6.89 0 0 1 89.109 98zM22.166 44.093h-8.368v-1.969a3.938 3.938 0 0 1 3.938-3.938 4.43 4.43 0 0 1 4.43 4.43v1.477z"/>
        <circle cx="14.29" cy="49.523" r="1.477" fill="#545352" fill-rule="nonzero"/>
        <circle cx="21.674" cy="49.523" r="1.477" fill="#545352" fill-rule="nonzero"/>
        <path stroke="#545352" stroke-linecap="round" stroke-linejoin="round" stroke-width="2" d="M24 75v8H11.964v-8M29.467 60H30.6c1.878 0 3.4 1.791 3.4 4s-1.522 4-3.4 4h-1.095M7.034 60H5.432C3.537 60 2 61.791 2 64s1.537 4 3.432 4h1.957M0 78.796c0-1.36 1.119-2.462 2.5-2.462S5 77.436 5 78.796M31.041 78.813a2.48 2.48 0 0 1 4.958 0"/>
        <g stroke="#545352" stroke-linecap="round" stroke-linejoin="round" stroke-width="2">
            <path d="M80.391 91H62V75.104h25.632"/>
            <path d="M75.85 78h-8.162A5.251 5.251 0 0 1 65 80.717v4.566A5.245 5.245 0 0 1 67.687 88H76M82 78v-2.896h-6V91h6"/>
        </g>
        <path stroke="#545352" stroke-linecap="round" stroke-linejoin="round" stroke-width="2" d="M96 91V71h-8v20M87.124 78H80v13M19.224 75H16.74c-5.431 0-9.833-4.524-9.833-10.106L7 60h22.057v4.894c0 5.582-4.403 10.106-9.833 10.106zM29.057 55H6.907v-6.8a4.107 4.107 0 0 1 4.107-4.107H24.95a4.107 4.107 0 0 1 4.107 4.107V55z"/>
        <g stroke="#545352" stroke-linecap="round" stroke-linejoin="round" stroke-width="2">
            <path d="M18 38V11M80 74.611V36.71M52 12V0M57.668 20.669a6.398 6.398 0 1 0-11.819-4.909L18.805 7.726l-1.322 3.182 62.619 26.129 1.322-3.182-23.756-13.186z"/>
        </g>
        <path stroke="#545352" stroke-linecap="round" stroke-linejoin="round" stroke-width="2" d="M75 86a3 3 0 1 1 0-6"/>
    </g>
</svg>
