<svg xmlns="http://www.w3.org/2000/svg" width="100" height="100" viewBox="0 0 100 100">
    <g fill="none" fill-rule="evenodd">
        <g stroke="#545352" stroke-linecap="round" stroke-linejoin="round" stroke-width="2">
            <path d="M63 7v8a4 4 0 0 0 4 4 4 4 0 0 1 4 4v16.643C71 50.886 61.822 60 50.5 60S30 50.886 30 39.643V23a4 4 0 0 1 4-4h17c6.627 0 12-5.373 12-12"/>
            <path d="M38 55.773v7.435c0 2.238-1.5 4.197-3.66 4.781l-14.343 3.877A25.702 25.702 0 0 0 1 96.678 2.323 2.323 0 0 0 3.322 99h93.356A2.323 2.323 0 0 0 99 96.678a25.701 25.701 0 0 0-18.997-24.812L65.66 67.989A4.952 4.952 0 0 1 62 63.208v-6.712"/>
        </g>
        <path stroke="#545352" stroke-linecap="round" stroke-linejoin="round" stroke-width="2" d="M71 46a59.149 59.149 0 0 0 5-23.8V20c0-7.18-5.82-13-13-13a6 6 0 0 0-6-6H45.375C34.122 1 25 10.122 25 21.375c0 8.71 2.06 17.296 6.011 25.058L31.808 48M68.063 68.642A37.34 37.34 0 0 1 50.5 73a37.337 37.337 0 0 1-17.901-4.54"/>
        <path stroke="#545352" stroke-linecap="round" stroke-linejoin="round" stroke-width="2" d="M67 33l-.055-.16c-.064-.405-3.445-9.951-3.445-9.951s-3.38 9.546-3.445 9.951L60 33h.039c-.014.129-.039.256-.039.389a3.5 3.5 0 1 0 7 0c0-.133-.025-.26-.039-.389H67zM30 77h38v18H30zM68 80h4v12h-4z"/>
        <path fill="#CD7524" fill-rule="nonzero" d="M33 80h6v12h-6z"/>
    </g>
</svg>
