<?xml version="1.0" encoding="utf-8"?>
<!-- Generator: Adobe Illustrator 22.0.1, SVG Export Plug-In . SVG Version: 6.00 Build 0)  -->
<svg version="1.1" id="Слой_1" xmlns="http://www.w3.org/2000/svg" xmlns:xlink="http://www.w3.org/1999/xlink" x="0px" y="0px"
	 viewBox="0 0 300 300" style="enable-background:new 0 0 300 300;" xml:space="preserve">
<style type="text/css">
	.st0{fill:#CD7524;}
	.st1{fill:none;stroke:#545352;stroke-width:4;stroke-linecap:round;stroke-linejoin:round;stroke-miterlimit:10;}
	.st2{fill:none;stroke:#545352;stroke-width:2;stroke-linecap:round;stroke-linejoin:round;stroke-miterlimit:10;}
	
		.st3{fill:none;stroke:#545352;stroke-width:2;stroke-linecap:round;stroke-linejoin:round;stroke-miterlimit:10;stroke-dasharray:7;}
	.st4{fill:#545352;}
</style>
<g id="Слой_3">
	<path class="st0" d="M75,43c0,0.8,0,8.7,0,8.7L64,69v10l21.9,13.4V49.8L75,43z"/>
	<path class="st0" d="M177.5,249.7L212,269l3.8-3.3c8.8-7.7,23.4-21.1,30-30.8l19.8-34.5l-16.3-10.7l-8.5,2.5l-13.8-4.5l-16.6,29.2
		C204,226.5,187.1,243.3,177.5,249.7L177.5,249.7z"/>
	<path class="st1" d="M191.4,145.5c-0.4,2.3-0.6,4.5-0.6,6.7c0,1.8,0.1,3.6,0.4,5.1"/>
	<g>
		<path class="st1" d="M191.2,157.4c0.8,4.8,2.9,8.4,5.9,10.8l32.2,19.3c6.1,5.4,16.3,5.3,27.9-1.5c18.6-10.9,33.7-34.8,33.7-53.4
			c0-7.7-2.6-13.3-7-16.4l-33.7-20.4c-6-3.6-14.9-3-24.8,2.5"/>
		<path class="st1" d="M256.6,119.8c-3,16.7-15.9,35.6-31.5,45.4"/>
		<path class="st1" d="M228.5,186.6c-3.1-3.3-4.9-8.2-4.9-14.6c0-18.6,15.1-42.5,33.7-53.4c10.9-6.4,20.6-6.9,26.7-2.5"/>
	</g>
	<line class="st1" x1="250.6" y1="190.6" x2="265.7" y2="199.6"/>
	<path class="st1" d="M265.7,199.6l-4.9,10.2c-10.7,22.5-26.7,42-46.6,56.9l-3,2.2l-33.8-19.3l0,0l1.2-0.9
		c21.1-15.9,37.7-37,48.3-61.2l0,0"/>
	<g>
		<path class="st2" d="M247.1,218.4L247.1,218.4c0.9,0.5,1.6,0.2,2.2-0.4l0,0c0.5-0.6,0.2-1.5-0.7-2l-2.6-1.5c0,0,0,0,0,0
			c-1.1-0.6-2.4-0.1-3,1l-0.2,0.4l-3.3-1.8l1.6-2.2"/>
		<path class="st2" d="M252.9,213.4L252.9,213.4c-0.4,0.7-1.5,0.9-2.5,0.4l-6.1-3.2c-0.9-0.5-1.4-1.5-1-2.2l0,0
			c0.4-0.7,1.5-0.9,2.5-0.4l6.1,3.2C252.9,211.7,253.4,212.7,252.9,213.4z"/>
		<path class="st2" d="M255.7,208.3L255.7,208.3c-0.4,0.7-1.5,0.9-2.5,0.4l-6.1-3.2c-0.9-0.5-1.4-1.5-1-2.2l0,0
			c0.4-0.7,1.5-0.9,2.5-0.4l6.1,3.2C255.6,206.6,256.1,207.6,255.7,208.3z"/>
		<path class="st2" d="M257.7,203.1L257.7,203.1c-0.4,0.8-1.5,0.9-2.4,0.4l-6.2-3.6c-1-0.5-1.4-1.6-1-2.4l0,0
			c0.4-0.8,1.5-0.9,2.4-0.4l6.2,3.6C257.7,201.3,258.1,202.4,257.7,203.1z"/>
	</g>
	<polygon class="st0" points="215.9,135.4 217.8,154 185.8,136.1 185.6,125.5 181.7,115.2 207.5,130.3 208.8,123.9 	"/>
	<g>
		<line class="st2" x1="105" y1="92" x2="115.5" y2="97.8"/>
		<line class="st2" x1="45.8" y1="57.6" x2="63.8" y2="68"/>
		<line class="st1" x1="169" y1="107.7" x2="207.5" y2="130.3"/>
		<line class="st2" x1="114.7" y1="75.9" x2="136.7" y2="88.8"/>
		<line class="st2" x1="56.5" y1="41.8" x2="75" y2="52"/>
	</g>
	<path class="st0" d="M208.5,65.2v17.1l22.7,12.3l17.6-4c2.2-0.5,4.6-0.2,6.6,1l28.5,16.6l-3.7-4.2c-5.2-5.8-11.2-10.8-17.9-14.7
		l-22.2-13C230.4,70.7,219.7,66.9,208.5,65.2L208.5,65.2z"/>
	<path class="st1" d="M192.5,140.4c-0.5,1.7-0.9,3.4-1.2,5.1"/>
	<path class="st3" d="M208.7,111.9c-7.6,8.4-13.4,18.7-16.2,28.5"/>
	<path class="st1" d="M225.4,98.3c-0.3,0.2-0.6,0.4-1,0.6c-5.7,3.3-11,7.9-15.7,13.1"/>
	<g>
		<line class="st1" x1="227.7" y1="69.6" x2="271.1" y2="95.2"/>
		<path class="st1" d="M251.6,89.5c-1.7,0-3.4,0.1-5.1,0.3c-0.5,0.1-1,0.1-1.6,0.2c-4.7,0.7-9.3,2.3-13.7,4.6l0,0L210,83.1"/>
		<path class="st2" d="M271.1,95.2c-5.7-3.5-12.4-5.6-19.4-5.7"/>
		<path class="st1" d="M284.1,108.3c-3.3-5.3-7.8-9.8-13-13"/>
		<path class="st1" d="M213,65.4c5.2,0.5,10.2,1.9,14.7,4.2"/>
		<path class="st1" d="M208.5,65.2c1.5,0,3,0,4.5,0.2"/>
	</g>
	<polygon class="st0" points="76.5,2.1 76.5,21.3 95.3,32.1 95.3,12.2 	"/>
	<path class="st4" d="M83.5,13.7v5.8c0,0.4,0.2,0.9,0.5,1.1c0.2,0.2,0.5,0.4,0.8,0.5c0.6,0.4,1.4,0,1.4-0.7c0.1-1.9,0.2-5.1,0.3-6.7
		c0-0.6-0.3-1.1-0.8-1.4l0,0C84.6,11.9,83.5,12.6,83.5,13.7z"/>
	<polygon class="st0" points="160.6,53.8 156.5,60.8 156.5,76.8 153.5,80.4 153.5,86 190.5,106.7 190.5,70.9 	"/>
	<polygon class="st4" points="157.5,66.7 165.5,61.3 190.5,74.7 190.1,82.3 180.1,83 158.5,71.2 	"/>
	<polygon class="st4" points="86.5,50.7 86.5,90.7 92.4,94.5 104.5,101.8 105.5,91.8 115.5,75.8 115.5,66.9 	"/>
	<line class="st1" x1="197.5" y1="297.8" x2="296.6" y2="240.3"/>
	<g>
		<g>
			<g>
				<g>
					<polyline class="st3" points="56.6,298.8 1.5,267 1.5,31.9 12.9,15.8 12.9,0.3 					"/>
					<line class="st3" x1="209.5" y1="52.4" x2="296.8" y2="1.8"/>
					<line class="st3" x1="208.8" y1="52.7" x2="209.5" y2="52.4"/>
				</g>
			</g>
			<line class="st3" x1="116" y1="136.8" x2="116" y2="298.8"/>
		</g>
		<line class="st3" x1="251.8" y1="298.8" x2="297.5" y2="272.1"/>
		<path class="st3" d="M141.5,264.8v29.7c0,1.4,0.7,2.7,1.9,3.4l1.4,0.8"/>
	</g>
	<line class="st2" x1="208.5" y1="65.2" x2="98.2" y2="0.8"/>
	<polygon class="st1" points="96,31.8 76,20.9 76,1.8 96,12.8 	"/>
	<path class="st2" d="M85,21.2L85,21.2c-0.8-0.5-1.5-1.6-1.5-2.4v-6.6c0-0.8,0.7-1.1,1.5-0.6l0,0c0.8,0.5,1.5,1.6,1.5,2.4v6.6
		C86.5,21.5,85.8,21.7,85,21.2z"/>
	<polygon class="st2" points="191,112.9 149,88.4 149,47.4 191,71.9 	"/>
	<line class="st2" x1="149.9" y1="88.1" x2="153.5" y2="86"/>
	<path class="st1" d="M159.4,55.4c-4.9,5.6-3.5,14.4,3,18.1l11.7,6.7c4.7,2.7,10.2,3.3,15.2,2"/>
	<path class="st2" d="M157.1,76.9c0.9,2.7,2.7,5.1,5.4,6.6l11.7,6.7c4.7,2.7,10.2,3.3,15.2,2"/>
	<polyline class="st2" points="190.5,74.7 165.5,60.8 157.5,65.8 	"/>
	<line class="st2" x1="165.5" y1="60.8" x2="165.5" y2="57.6"/>
	<path class="st1" d="M157.1,66.9v9.9l-0.5,0.3c-1.9,1.1-3.1,3.1-3.1,5.3l0,0c0,2.1,1.1,4.1,3,5.2l32.9,18.6"/>
	<path class="st1" d="M156.2,99.6l-11.4-6.5c-2.1-1.2-3.9-3.9-3.9-6.1V38.7c0-2.1,1.7-2.9,3.9-1.7l48.3,27.6
		c2.1,1.2,3.9,3.9,3.9,6.1V119c0,2.1-1.7,2.9-3.9,1.7l-22.7-13.4"/>
	<polyline class="st1" points="142,104.2 142,264.8 197.5,298.1 	"/>
	<polyline class="st1" points="208,130.3 208,53 121,1.1 	"/>
	<polyline class="st1" points="93.8,103.8 45,74.8 45,56.8 57,43 57,1 	"/>
	<line class="st2" x1="86" y1="50.5" x2="86" y2="89.1"/>
	<line class="st1" x1="252.4" y1="89.8" x2="284" y2="108.2"/>
	<g>
		<path class="st2" d="M194.2,252.2L194.2,252.2c0.8,0.4,2,0.4,2.6-0.1l0,0c0.7-0.5,0.6-1.3-0.2-1.7l-2.2-1.3
			c-0.8-0.4-2-0.4-2.6,0.1l-1.2,0.9l-2.8-1.6l2.5-1.9"/>
		<path class="st2" d="M201.5,248.2L201.5,248.2c-0.6,0.6-1.7,0.8-2.5,0.3l-5.3-2.9c-0.8-0.4-1-1.3-0.4-1.9l0,0
			c0.6-0.6,1.7-0.8,2.5-0.3l5.3,2.9C201.9,246.7,202,247.6,201.5,248.2z"/>
		<path class="st2" d="M206,244L206,244c-0.6,0.6-1.7,0.8-2.5,0.3l-5.3-2.9c-0.8-0.4-1-1.3-0.4-1.9l0,0c0.6-0.6,1.7-0.8,2.5-0.3
			l5.3,2.9C206.4,242.5,206.5,243.4,206,244z"/>
		<path class="st2" d="M210.1,239.8L210.1,239.8c-0.6,0.7-1.7,0.8-2.5,0.4l-5.3-3.1c-0.8-0.5-1-1.4-0.4-2.1l0,0
			c0.6-0.7,1.7-0.8,2.5-0.4l5.3,3.1C210.5,238.2,210.7,239.1,210.1,239.8z"/>
	</g>
	<line class="st1" x1="64" y1="79" x2="105" y2="102.8"/>
	<polyline class="st1" points="105,91.8 115,75.8 115,66.7 75,43 75,51.8 64,69 64,79 	"/>
	<line class="st1" x1="105" y1="92" x2="105" y2="103"/>
	<path class="st0" d="M155.9,87.9c-8.8-3.1-19.2-1-26,7.1l0,0l33,18.4l0,0c7.4-9,18.9-12.4,27.9-7.3L155.9,87.9z"/>
	<path class="st1" d="M129.9,94.9L129.9,94.9c6.8-8.1,17.8-10.4,26.5-7.4l32.9,18.6c-9-5.1-19.1-1.9-26.5,7.1l0,0L129.9,94.9z"/>
	<path class="st1" d="M208.8,123.9c4.6,7.1,7.6,15.4,8.3,24.1l0.6,6.9l-32-18.9l-0.4-6.3c-0.3-4.6-1.2-9.1-2.8-13.2"/>
	<path class="st3" d="M190.5,106.7L190.5,106.7c7.5,4.2,13.8,10.2,18.4,17.2"/>
	<g>
		<polyline class="st2" points="163.1,106.7 155.6,102.7 155.6,104.2 		"/>
		<path class="st2" d="M166.6,103.8L166.6,103.8c-0.8,0.5-2.1,0.6-2.9,0.2l-5.2-2.8c-0.8-0.4-0.8-1.2,0-1.7l0,0
			c0.8-0.5,2.1-0.6,2.9-0.2l5.2,2.8C167.4,102.5,167.4,103.3,166.6,103.8z"/>
		<path class="st2" d="M172.6,101.1L172.6,101.1c-0.7,0.4-1.9,0.4-2.7-0.1l-5.2-2.8c-0.8-0.4-0.9-1.1-0.1-1.5l0,0
			c0.7-0.4,1.9-0.4,2.7,0.1l5.2,2.8C173.2,100.1,173.3,100.7,172.6,101.1z"/>
	</g>
	<g>
		<path class="st0" d="M140.5,61.5c-11.5,2.7-21.7,9.4-28.9,18.8l-28,36.9l32.3,19.6l31.7-40.3c6.1-7.7,14.2-13.5,23.5-16.7l0.4-0.1
			L140.5,61.5z"/>
		<g>
			<path class="st1" d="M83.9,118.1L116,77c5.7-7.3,13.6-12.5,22.5-15l2-0.5l32.1,18.7l0,0c-9.6,2.2-18.1,7.6-24.2,15.3L116,136.8
				L83.9,118.1z"/>
		</g>
		<path class="st2" d="M99.6,120.6L99.6,120.6c0.8,0.5,2,0.3,2.6-0.5l0,0c0.6-0.8,0.4-1.9-0.4-2.5l-2.4-1.6c-0.8-0.5-2-0.3-2.6,0.5
			l-1.1,1.5l-3-2l2.2-3"/>
		<path class="st2" d="M105.5,115.1L105.5,115.1c-0.6,0.8-1.7,1.1-2.5,0.5l-5.3-3.5c-0.8-0.5-1-1.6-0.4-2.5l0,0
			c0.6-0.8,1.7-1.1,2.5-0.5l5.3,3.5C105.9,113.2,106.1,114.3,105.5,115.1z"/>
		<path class="st2" d="M109.2,110.3L109.2,110.3c-0.6,0.8-1.7,1.1-2.5,0.5l-5.3-3.5c-0.8-0.5-1-1.6-0.4-2.5l0,0
			c0.6-0.8,1.7-1.1,2.5-0.5l5.3,3.5C109.6,108.3,109.8,109.4,109.2,110.3z"/>
		<path class="st2" d="M112.9,105.4L112.9,105.4c-0.6,0.8-1.7,1.1-2.5,0.5l-5.3-3.5c-0.8-0.5-1-1.6-0.4-2.5l0,0
			c0.6-0.8,1.7-1.1,2.5-0.5l5.3,3.5C113.3,103.5,113.5,104.6,112.9,105.4z"/>
	</g>
</g>
</svg>
