<?xml version="1.0" encoding="utf-8"?>
<!-- Generator: Adobe Illustrator 22.0.1, SVG Export Plug-In . SVG Version: 6.00 Build 0)  -->
<svg version="1.1" xmlns="http://www.w3.org/2000/svg" xmlns:xlink="http://www.w3.org/1999/xlink" x="0px" y="0px"
	 viewBox="0 0 300 300" style="enable-background:new 0 0 300 300;" xml:space="preserve">
<style type="text/css">
	.st0{fill:#CD7524;}
	.st1{fill:none;stroke:#545352;stroke-width:2;stroke-linecap:round;stroke-linejoin:round;stroke-miterlimit:10;}
	.st2{fill:#545352;}
	.st3{fill:none;stroke:#FFFFFF;stroke-width:2;stroke-linecap:round;stroke-linejoin:round;stroke-miterlimit:10;}
	.st4{fill:none;stroke:#FFFFFF;stroke-width:4;stroke-linecap:round;stroke-linejoin:round;stroke-miterlimit:10;}
	.st5{fill:#FFFFFF;}
	.st6{fill:none;stroke:#545352;stroke-width:4;stroke-linecap:round;stroke-linejoin:round;stroke-miterlimit:10;}
	.st7{fill:#C6592E;}
	
		.st8{fill:none;stroke:#545352;stroke-width:2;stroke-linecap:round;stroke-linejoin:round;stroke-miterlimit:10;stroke-dasharray:7;}
</style>
<g id="Слой_8">
</g>
<g id="Слой_2">
</g>
<g id="Слой_3">
	<g>
		<g>
			<line class="st1" x1="104.988" y1="91.988" x2="115.479" y2="97.836"/>
			<line class="st1" x1="45.789" y1="57.59" x2="63.84" y2="68.015"/>
			<line class="st1" x1="114.686" y1="75.912" x2="208.467" y2="130.824"/>
			<line class="st1" x1="56.467" y1="41.824" x2="75.586" y2="53.019"/>
		</g>
		<path class="st0" d="M177.525,230.557l34.454,19.274l3.84-3.326c8.847-7.664,16.66-16.445,23.242-26.124l26.633-39.164
			l-17.698,7.927c-5.281,2.365-11.348,2.217-16.507-0.404l-13.295-6.754l-16.357,24.341
			C195.394,215.915,187.135,224.147,177.525,230.557L177.525,230.557z"/>
		<path class="st0" d="M208.533,65.215v17.105l22.712,12.292l17.634-4.016c2.235-0.509,4.581-0.152,6.563,1l28.528,16.579
			l-3.702-4.166c-5.16-5.807-11.206-10.761-17.914-14.678l-22.19-12.959C230.423,70.683,219.689,66.897,208.533,65.215
			L208.533,65.215z"/>
		<path class="st6" d="M191.353,145.51c-0.395,2.295-0.602,4.546-0.602,6.725c0,1.836,0.147,3.552,0.43,5.143"/>
		<path class="st8" d="M208.713,111.916c-8.882,9.899-15.412,22.274-17.36,33.594"/>
		<path class="st6" d="M225.419,98.259c-0.324,0.181-0.65,0.367-0.976,0.558c-5.681,3.326-11.034,7.867-15.729,13.099"/>
		<g>
			<path class="st6" d="M191.181,157.378c0.848,4.773,2.918,8.422,5.911,10.822l32.226,19.268
				c6.055,5.417,16.308,5.305,27.937-1.504c18.607-10.895,33.691-34.811,33.691-53.419c0-7.727-2.601-13.324-6.976-16.446
				l-33.709-20.356c-5.986-3.627-14.872-3.04-24.842,2.515"/>
			<path class="st6" d="M256.595,119.837c-2.997,16.68-15.857,35.567-31.49,45.425"/>
			<path class="st6" d="M228.455,186.629c-3.104-3.282-4.891-8.223-4.891-14.629c0-18.607,15.084-42.523,33.691-53.418
				c10.88-6.371,20.555-6.879,26.715-2.482"/>
		</g>
		<path class="st6" d="M265.694,180.487l-28.393,43.074c-6.844,10.382-15.671,19.31-25.975,26.27l0,0l-33.801-19.274h0
			c10.24-6.879,19.01-15.725,25.801-26.024l14.868-22.547"/>
		<g>
			<line class="st6" x1="227.728" y1="69.559" x2="271.07" y2="95.245"/>
			<path class="st6" d="M251.646,89.535c-1.681-0.026-3.382,0.061-5.095,0.265c-0.519,0.062-1.039,0.134-1.559,0.217
				c-4.693,0.745-9.341,2.266-13.746,4.595l0,0l-21.259-11.517"/>
			<path class="st1" d="M271.071,95.243c-5.748-3.542-12.413-5.6-19.425-5.708"/>
			<path class="st6" d="M284.061,108.255c-3.281-5.331-7.755-9.786-12.99-13.012"/>
			<path class="st6" d="M213,65.406c5.16,0.486,10.155,1.898,14.728,4.153"/>
			<path class="st6" d="M208.479,65.218c1.517-0.016,3.026,0.047,4.521,0.188"/>
		</g>
		<polygon class="st0" points="76.479,2.136 76.479,21.325 95.285,32.136 95.285,12.195 		"/>
		<path class="st2" d="M83.479,13.68v5.83c0,0.439,0.193,0.855,0.53,1.136c0.212,0.177,0.483,0.362,0.759,0.536
			c0.596,0.375,1.376-0.034,1.405-0.738c0.078-1.898,0.21-5.115,0.27-6.714c0.022-0.591-0.309-1.134-0.843-1.389l0,0
			C84.616,11.872,83.479,12.589,83.479,13.68z"/>
		<polygon class="st0" points="160.583,53.784 156.486,60.836 156.486,76.836 153.479,80.375 153.479,85.991 190.48,106.727 
			190.48,70.918 		"/>
		<polygon class="st2" points="157.479,66.673 165.479,61.324 190.479,74.684 190.092,82.324 180.092,82.965 158.467,71.199 		"/>
		<polygon class="st2" points="86.479,50.669 86.479,90.657 92.435,94.543 104.479,101.836 105.479,91.836 115.479,75.836 
			115.479,66.916 		"/>
		<line class="st6" x1="197.479" y1="297.836" x2="296.578" y2="240.346"/>
		<g>
			<g>
				<g>
					<g>
						<polyline class="st8" points="56.586,298.824 1.479,267.005 1.479,31.851 12.917,15.775 12.917,0.324 						"/>
						<line class="st8" x1="209.47" y1="52.352" x2="296.751" y2="1.836"/>
						<line class="st8" x1="208.842" y1="52.715" x2="209.47" y2="52.352"/>
					</g>
				</g>
				<line class="st8" x1="115.979" y1="112.836" x2="115.979" y2="298.824"/>
			</g>
			<line class="st8" x1="251.772" y1="298.824" x2="297.479" y2="272.085"/>
			<path class="st8" d="M141.479,264.836v29.725c0,1.411,0.739,2.719,1.947,3.447l1.373,0.828"/>
		</g>
		<line class="st1" x1="208.533" y1="65.215" x2="98.196" y2="0.836"/>
		<polygon class="st6" points="95.988,31.836 75.988,20.907 75.988,1.836 95.988,12.765 		"/>
		<path class="st1" d="M84.979,21.199L84.979,21.199c-0.828-0.518-1.5-1.609-1.5-2.438v-6.6c0-0.828,0.672-1.08,1.5-0.563l0,0
			c0.828,0.518,1.5,1.61,1.5,2.438v6.6C86.479,21.464,85.807,21.716,84.979,21.199z"/>
		<polygon class="st1" points="190.988,112.918 148.988,88.421 148.988,47.421 190.988,71.918 		"/>
		<line class="st1" x1="149.89" y1="88.122" x2="153.479" y2="85.991"/>
		<path class="st6" d="M159.424,55.421c-4.9,5.588-3.522,14.379,3.039,18.144l11.72,6.725c4.728,2.713,10.194,3.328,15.201,2.003"/>
		<path class="st1" d="M157.067,76.922c0.866,2.684,2.691,5.091,5.396,6.643l11.72,6.725c4.728,2.713,10.194,3.328,15.201,2.003"/>
		<polyline class="st1" points="190.48,74.684 165.479,60.836 157.479,65.836 		"/>
		<line class="st1" x1="165.479" y1="60.836" x2="165.479" y2="57.59"/>
		<path class="st6" d="M157.069,66.916v9.92l-0.497,0.277c-1.91,1.064-3.093,3.078-3.093,5.263l0,0c0,2.143,1.138,4.124,2.989,5.204
			l32.916,18.637"/>
		<path class="st6" d="M193.113,120.622l-48.25-27.571c-2.14-1.223-3.875-3.949-3.875-6.089v-48.25c0-2.14,1.735-2.884,3.875-1.661
			l48.25,27.571c2.14,1.223,3.875,3.949,3.875,6.089v48.25C196.988,121.101,195.253,121.845,193.113,120.622z"/>
		<polyline class="st6" points="197.479,298.086 141.988,264.836 141.988,158.836 		"/>
		<line class="st6" x1="141.988" y1="114.678" x2="141.988" y2="158.836"/>
		<polyline class="st6" points="197.479,147.992 207.988,131.988 207.988,52.988 121.035,1.122 		"/>
		<polyline class="st6" points="56.988,0.988 56.988,42.988 44.979,56.828 44.979,74.836 115.988,116.988 115.988,97.988 
			197.479,147.992 		"/>
		<line class="st1" x1="85.988" y1="50.511" x2="85.988" y2="89.122"/>
		<line class="st6" x1="252.358" y1="89.805" x2="283.97" y2="108.176"/>
		<g>
			<path class="st1" d="M194.198,233.083L194.198,233.083c0.776,0.446,1.955,0.389,2.635-0.127l0,0
				c0.679-0.517,0.602-1.298-0.174-1.744l-2.247-1.294c-0.776-0.446-1.955-0.389-2.635,0.127l-1.231,0.936l-2.809-1.617l2.461-1.872
				"/>
			<path class="st1" d="M201.454,229.066L201.454,229.066c-0.587,0.622-1.728,0.77-2.547,0.329l-5.342-2.874
				c-0.819-0.441-1.008-1.302-0.421-1.925l0,0c0.587-0.622,1.728-0.77,2.547-0.329l5.342,2.874
				C201.853,227.583,202.042,228.444,201.454,229.066z"/>
			<path class="st1" d="M205.951,224.875L205.951,224.875c-0.587,0.622-1.728,0.77-2.547,0.329l-5.342-2.874
				c-0.819-0.441-1.008-1.302-0.421-1.925l0,0c0.587-0.622,1.728-0.77,2.547-0.329l5.342,2.874
				C206.35,223.391,206.539,224.253,205.951,224.875z"/>
			<path class="st1" d="M210.139,220.662L210.139,220.662c-0.586,0.678-1.727,0.837-2.546,0.354l-5.348-3.148
				c-0.82-0.483-1.01-1.424-0.425-2.103l0,0c0.586-0.678,1.726-0.837,2.546-0.354l5.348,3.148
				C210.535,219.043,210.726,219.984,210.139,220.662z"/>
		</g>
		<line class="st6" x1="98.094" y1="98.661" x2="104.988" y2="102.836"/>
		<polyline class="st6" points="104.988,91.836 114.988,75.836 114.988,66.669 74.988,43.003 74.988,51.752 63.988,69.003 
			63.988,75.988 		"/>
		<line class="st6" x1="104.988" y1="91.988" x2="104.988" y2="102.988"/>
		<path class="st0" d="M105.684,93.893c-0.009-0.215-0.015-0.429-0.021-0.644L87.527,82.948l-4.611-2.946
			c-13.668-8.732-31.907-2.9-37.973,12.142l-8.995,22.304l34.69,19.704l8.369-20.989c4.5-11.288,15.58-17.645,26.765-16.962
			C105.737,95.432,105.702,94.663,105.684,93.893z"/>
		<path class="st6" d="M104.52,96.151c-10.751-0.154-21.181,6.146-25.513,17.012l-8.369,20.989l-34.69-19.704l8.995-22.304
			c6.066-15.042,24.305-20.874,37.973-12.142l4.611,2.946l17.461,9.918"/>
		<g>
			<polyline class="st1" points="51.933,115.707 41.985,110.307 42.271,112.596 			"/>
			<path class="st1" d="M54.037,110.596L54.037,110.596c-0.371,1.054-1.466,1.476-2.448,0.944l-6.395-3.471
				c-0.981-0.533-1.476-1.819-1.105-2.872v0c0.371-1.054,1.466-1.476,2.448-0.944l6.395,3.471
				C53.912,108.256,54.407,109.542,54.037,110.596z"/>
			<path class="st1" d="M56.839,103.587L56.839,103.587c-0.37,1.052-1.465,1.473-2.446,0.94l-6.395-3.471
				c-0.981-0.533-1.477-1.817-1.107-2.869v0c0.37-1.052,1.465-1.473,2.446-0.94l6.395,3.471
				C56.714,101.251,57.209,102.535,56.839,103.587z"/>
		</g>
	</g>
</g>
</svg>
