<svg xmlns="http://www.w3.org/2000/svg" width="305" height="302" viewBox="0 0 305 302">
    <g fill="none" fill-rule="evenodd">
        <g fill-rule="nonzero" transform="rotate(1 -2629.628 3168.1)">
            <path fill="#CD7524" d="M110.988 163.988l-7 8-14 12 71 42 35.294-132.429L35.988.988l-35 131 8 5 24 14 9-1 7 8 8-1 6 8 8 1 5 8 21-15c1.814-1.607 8-5 8-5 7 1 7.718 8.435 6 10z"/>
            <path fill="#FFF" d="M177.254 149.49l14.573-54.305-74.889-43.672-14.646 54.263zM24.142 60.202L38.725 5.903l73.188 42.68-14.901 54.113zM22.674 65.664L5.362 130.12l8.694 5.133 66.358 39.181c.552-.823 1.166-1.733 2.005-2.316 14.568-10.131 17.204-23.154 26.568-16.131 8 6-11.443 23.458-15.794 25.992l19.629 11.59 17.474-65.061.036-.062L22.674 65.664z"/>
            <path fill="#CD7524" d="M220.094 121.828l14.515 8.66a7.033 7.033 0 0 1 3.256 7.894l-17.942 64.592a5.68 5.68 0 0 1-5.673 5.387c-1.085 0-2.16-.144-3.198-.425l-17.107-11.892a5.06 5.06 0 0 1-1.982-5.524l17.025-60.533 11.106-8.159z"/>
            <ellipse cx="44.664" cy="22.467" fill="#545352" rx="4.078" ry="5.153" transform="rotate(-22.426 44.664 22.467)"/>
            <ellipse cx="122.667" cy="67.471" fill="#545352" rx="4.078" ry="5.153" transform="rotate(-22.426 122.667 67.47)"/>
            <path fill="#545352" d="M29.898 140.729l-14.49-9.127c-2.369-1.407-4.011-4.938-3.666-7.886.345-2.948 2.545-4.196 4.915-2.789l16.114 9.9c2.369 1.407 3.647 4.765 2.854 7.499-.794 2.734-3.358 3.81-5.727 2.403zM189.968 85.961l-26.021-15.25c-1.659-.958-2.502-3.273-1.884-5.172.619-1.899 2.465-2.661 4.124-1.703l14.758 8.747 11.263 6.503c1.659.958 2.502 3.273 1.884 5.172-.618 1.898-2.465 2.66-4.124 1.703zM168.968 158.961l-33.021-19.25c-1.659-.958-2.502-3.273-1.884-5.172.619-1.899 2.465-2.661 4.124-1.703l21.758 12.747 11.263 6.503c1.659.958 2.502 3.273 1.884 5.172-.618 1.898-2.465 2.66-4.124 1.703zM162.968 180.961l-33.021-19.25c-1.659-.958-2.502-3.273-1.884-5.172.619-1.899 2.465-2.661 4.124-1.703l21.758 12.747 11.263 6.503c1.659.958 2.502 3.273 1.884 5.172-.618 1.898-2.465 2.66-4.124 1.703z"/>
            <path fill="#FFF" d="M165.968 169.961l-33.021-19.25c-1.659-.958-2.502-3.273-1.884-5.172.619-1.899 2.465-2.661 4.124-1.703l21.758 12.747 11.263 6.503c1.659.958 2.502 3.273 1.884 5.172-.618 1.898-2.465 2.66-4.124 1.703zM151.284 215.36L124.4 199.896c-3.109-1.795-5.304-6.367-4.902-10.212.402-3.845 3.247-5.507 6.356-3.712l29.011 16.445c3.109 1.795 4.827 6.147 3.839 9.722-.989 3.574-4.311 5.016-7.42 3.221z"/>
        </g>
        <g stroke="#545352" stroke-linecap="round" stroke-linejoin="round">
            <path stroke-width="4" d="M262.217 257.921l-.472 27.09"/>
            <path stroke-width="2" d="M142.24 233.178l69.418 42.123 41.81-147.372L95.633 32.156l-42.06 146.358 4.54 2.794 27.185 16.859"/>
            <path stroke-width="2" d="M155.537 203.166l-3.757 3.398c-1.775 1.652-1.146 3.432 1.403 3.975 2.55.544 6.053-.355 7.827-2.007l1.652-1.494M119.554 243.072l-19.313 10.815c-2.166 1.212-2.319 4.25-.287 5.67"/>
            <path stroke-width="4" d="M128.607 222.564c9.257-5.592 16.227-10.626 24.018-18.116a6.778 6.778 0 0 1 8.799-.495 6.65 6.65 0 0 1 2.236 3.049 6.63 6.63 0 0 1-1.162 6.511c-6.985 8.344-13.842 13.757-23.407 19.014l-19.543 10.943"/>
            <path stroke-width="2" d="M108.712 234.379l15.377-8.288c1.547-.85 3.078-1.729 4.592-2.633"/>
            <path stroke-width="4" d="M115.64 214.08c3.32-1.825 7.503-.635 9.343 2.658l3.332 5.961"/>
            <path stroke-width="2" d="M95.195 226.23l20.498-11.274"/>
            <path stroke-width="4" d="M101.759 206.042l.82-.462c3.32-1.824 7.502-.634 9.342 2.659l3.333 5.96"/>
            <path stroke-width="2" d="M82.534 217.775l19.879-11.187"/>
            <path stroke-width="4" d="M7.325 249.565l37.704-20.376 23.334-24.255a18.28 18.28 0 0 1 7.726-4.288l12.444-3.348c4.34-1.05 8.853.91 11.019 4.786l2.028 3.628M119.703 243.744l-.221 12.82a12.79 12.79 0 0 1-6.23 10.742 46.506 46.506 0 0 1-24.734 6.61l-19.346-.338a12.44 12.44 0 0 0-6.208 1.534L36.587 292.08M132.515 236.21c.89 5.372-1.846 10.802-6.903 13.256l-5.82 2.824"/>
            <path stroke-width="2" d="M147.584 218.715c-1.038-2.904-3.967-4.706-7.05-4.337l-.34.041M135.15 227.496c-1.037-2.903-3.966-4.706-7.05-4.337l-.34.042"/>
            <g>
                <path stroke-width="4" d="M297.67 289.638l4.798-274.958"/>
                <path stroke-width="2" d="M283.768 111.92l1.546-88.538M282.61 178.288l.644-36.924M280.523 297.84l1.305-74.767"/>
                <path stroke-width="4" d="M266.509 12.052l-1.545 88.521"/>
                <path stroke-width="2" d="M302.41 13.819l-17.043 9.448-19.243-11.615"/>
                <path stroke-width="4" d="M297.593 289.777l-17.043 9.448-19.243-11.615M266.124 11.652l17.044-9.448L302.41 13.82"/>
            </g>
            <g>
                <path stroke-width="2" d="M269.526 124.89l-44.631 154.906-3.522 11.864c-.309 1.03-.487 2.826.7 3.633M88.52 9.945l182.394 111.798"/>
                <path stroke-width="4" d="M250.798 250.763l-6.559 23.6-3.51 11.42c-1.023 3.73-5.688 8.704-10.42 11.11-2.781 1.414-4.97 1.636-6.287.767M132.911 243.305l69.412 42.036 21.201 12.004M273.623 171.937l14.804-51.965a6.097 6.097 0 0 0-2.734-6.903l-20.894-12.5L109.522 6.694l-.955-.55c-8.077-4.66-18.386-.56-21.059 8.372l-1.495 5-45.865 160.557a7.973 7.973 0 0 0 3.526 9.004l25.21 15.458"/>
                <path stroke-width="2" d="M273.151 172.068l-10.12 6.825"/>
                <path stroke-width="4" d="M273.558 172.031l13.495 9.328a9.862 9.862 0 0 1 3.852 10.898l-11.634 39.5-6.616 22.301a5.68 5.68 0 0 1-5.766 5.287 12.237 12.237 0 0 1-3.19-.48l-12.616-8.034"/>
                <path stroke-width="2" d="M251.596 249.803l-6.562-4.125a4.46 4.46 0 0 1-1.902-5.045l17.633-59.377a3.767 3.767 0 0 1 5.353-2.267l13.305 7.955a6.102 6.102 0 0 1 3.037 7.111l-17.621 59.827a3.08 3.08 0 0 1-4.675 1.685l-8.568-5.764z"/>
                <path stroke-width="2" d="M266.633 258.968l1.719-5.277 17.783-59.554a8.254 8.254 0 0 0-3.29-9.202l-5.262-3.552M269.595 124.91c1.022-3.73 5.687-8.703 10.419-11.109 4.732-2.406 7.747-1.363 7.677 2.636"/>
            </g>
            <path stroke-width="4" d="M37.64 291.058c-3.413 2.958-9.252 2.743-15.917-1.262-10.664-6.407-19.403-20.09-19.52-30.56-.055-5.002 1.868-8.367 5.055-9.817"/>
            <path stroke-width="2" d="M7.259 249.418c3.482-1.584 8.473-.883 14.042 2.463 10.664 6.407 19.403 20.09 19.52 30.56.043 3.926-1.131 6.843-3.18 8.617"/>
        </g>
    </g>
</svg>
