<?xml version="1.0" encoding="utf-8"?>
<!-- Generator: Adobe Illustrator 22.0.1, SVG Export Plug-In . SVG Version: 6.00 Build 0)  -->
<svg version="1.1" id="Слой_1" xmlns="http://www.w3.org/2000/svg" xmlns:xlink="http://www.w3.org/1999/xlink" x="0px" y="0px"
	 viewBox="0 0 300 300" style="enable-background:new 0 0 300 300;" xml:space="preserve">
<style type="text/css">
	.st0{fill:#C6592E;}
	.st1{fill:#CD7524;}
	.st2{fill:#FFFFFF;}
	
		.st3{fill:none;stroke:#545352;stroke-width:2;stroke-linecap:round;stroke-linejoin:round;stroke-miterlimit:10;stroke-dasharray:7;}
	.st4{fill:none;stroke:#545352;stroke-width:4;stroke-linecap:round;stroke-linejoin:round;stroke-miterlimit:10;}
	.st5{fill:none;stroke:#545352;stroke-width:2;stroke-linecap:round;stroke-linejoin:round;stroke-miterlimit:10;}
</style>
<path class="st0" d="M130.6,2L130.6,2c-3.3,0-6,2.7-6,6v17.7h12V8C136.6,4.7,133.9,2,130.6,2z"/>
<polygon class="st1" points="90.4,265.8 6,217 6,207.9 62,175.5 148,224 148,233.7 "/>
<path class="st1" d="M252.9,228.5l-0.3-6.7c-0.3-7.3-1.3-14.6-2.9-21.7l-2-8.6l-0.6,0.2c-0.4-1.3-0.7-2.4-1-3.5
	c-1.9-6.7-4-13.2-6-19.9c-2-6.6-3.8-13.3-6-19.8c-1.5-4.4-4-8.7-8.6-10.4c-3.9-1.5-6.5-0.9-8.8,2.5c-2.4,3.5-3.6,9-5.3,13.2
	c-0.4-1.5-1.2-2.6-2.2-3.5c-3.2-2.7-8.1-2.1-10.8,1.2c-7.3,8.8-16.6,27-16.6,27c-9.9,23.1-17.7,45.7-21.1,70.6l-0.5,10.8
	c-0.3,6.8,2.4,13.4,7.7,17.6c6.8,5.4,16,6,23.3,1.8l50-28.7C248.8,245.8,253.3,237.4,252.9,228.5z M220.6,144.2c0-0.1,0-0.2,0-0.2
	c3.1-2.4,5.5,0,7.1,2.6c0.2,0.3,0.3,0.6,0.5,0.9c-0.3,0.5-0.4,1-0.3,1.7c0.9,5.1,2,10.1,2.8,15.2c0.5,3.2,0.9,6.8,0,10
	c-1,3.5-5.3,8.2-8.8,3.7c-2.9-3.8-2.1-11.7-2.2-16.3C219.5,155.8,219.8,150,220.6,144.2z M193.5,190.5l-0.1-0.1
	c-3-1.3-4.5-4.6-3.5-7.6c1.3-4.1,3.2-9.7,4.6-14.3c1.7-5.2,4.8-9.8,9.1-13.2l0.7-0.6c2.7,3,0.3,8.6-0.2,12.3
	c-0.4,3.6-0.5,7.2-0.2,10.9l-2.3,8.6C200.7,190,196.9,191.9,193.5,190.5z"/>
<g>
	<path class="st2" d="M237,206.9c2.5,1.6,4,4.6,4,8.9c0,9.8-7.9,22.5-17.8,28.3c-5.8,3.5-11,3.7-14.2,1.3l-0.6-0.5
		c-1.9-1.7-2.9-4.4-2.9-8c0-9.8,7.9-22.5,17.8-28.3c5-3,9.5-3.6,12.8-2.2L237,206.9z"/>
</g>
<g>
	<g>
		<g>
			<line class="st3" x1="55" y1="128.8" x2="55" y2="180"/>
			<line class="st3" x1="55.2" y1="128.6" x2="109.1" y2="97.8"/>
			<line class="st3" x1="165.7" y1="192.6" x2="55.2" y2="128.6"/>
			<line class="st3" x1="174.8" y1="187.3" x2="165.7" y2="192.6"/>
			<line class="st3" x1="288.8" y1="121.1" x2="231.2" y2="154.5"/>
			<line class="st3" x1="238.5" y1="92.3" x2="288.8" y2="121.1"/>
			<line class="st3" x1="55" y1="279.3" x2="55" y2="299.3"/>
			<polyline class="st3" points="289,120.8 289,159 297.5,171.6 297.5,297.6 			"/>
			<line class="st3" x1="174.5" y1="282.1" x2="174.5" y2="298.6"/>
			<line class="st3" x1="166" y1="192.8" x2="166" y2="217.9"/>
		</g>
	</g>
</g>
<g>
	<polyline class="st4" points="131,68 109.1,55.6 109.1,27.7 	"/>
	<line class="st5" x1="131" y1="40.1" x2="131" y2="68"/>
	<polyline class="st4" points="131,68 152.9,55.6 152.9,27.7 	"/>
	<polyline class="st5" points="109.1,27.4 131,40.1 152.9,27.4 	"/>
	<line class="st4" x1="125" y1="18.2" x2="109.1" y2="27.4"/>
	<line class="st4" x1="152.9" y1="27.4" x2="137" y2="18.2"/>
</g>
<line class="st4" x1="123" y1="81.8" x2="123" y2="64"/>
<line class="st5" x1="131" y1="68" x2="131" y2="80"/>
<line class="st4" x1="139" y1="81.8" x2="139" y2="64"/>
<line class="st4" x1="123" y1="106.9" x2="123" y2="94"/>
<line class="st5" x1="131" y1="90.4" x2="131" y2="111.2"/>
<line class="st4" x1="139" y1="106.9" x2="139" y2="94"/>
<path class="st4" d="M137,28V6.6l0,0c-1.7-6.1-10.3-6.1-12,0l0,0V28"/>
<path class="st4" d="M137,28.7c-0.1,0.7-0.4,1.4-1.2,1.9c-2,1.6-5.7,1.9-8.4,0.7c-1.4-0.6-2.2-1.6-2.4-2.5"/>
<path class="st5" d="M137,22.7c-0.1,0.7-0.4,1.4-1.2,1.9c-2,1.6-5.7,1.9-8.4,0.7c-1.4-0.6-2.2-1.6-2.4-2.5"/>
<g>
	<line class="st5" x1="91" y1="298.1" x2="91" y2="266.1"/>
	<polyline class="st4" points="9,219 9,251 91,298.1 	"/>
	<line class="st4" x1="90.4" y1="265.8" x2="9" y2="219"/>
	<polyline class="st4" points="6,208 6,217 9.1,218.8 	"/>
	<polyline class="st4" points="148,224 148,233 144.9,234.8 	"/>
	<polyline class="st4" points="145,236 145,267 91,298.1 	"/>
	<line class="st4" x1="91" y1="265.8" x2="147" y2="233.7"/>
	<polyline class="st5" points="147.2,223.1 90.6,256.1 6.4,207.9 	"/>
	<polyline class="st4" points="6.4,207.9 63.1,174.9 148,224 	"/>
	<line class="st5" x1="91" y1="256" x2="91" y2="266"/>
</g>
<g>
	<line class="st5" x1="20" y1="207" x2="20" y2="143"/>
	<line class="st5" x1="62" y1="182" x2="62" y2="119"/>
	<line class="st5" x1="43" y1="193" x2="43" y2="124"/>
	<line class="st5" x1="62" y1="182" x2="20" y2="207"/>
	<line class="st5" x1="61.8" y1="124.7" x2="20" y2="149.1"/>
	<line class="st5" x1="61.8" y1="147.7" x2="20" y2="172.1"/>
	<line class="st5" x1="61.8" y1="166.7" x2="20" y2="191.1"/>
	<path class="st5" d="M20,143l7.2,4.2c2.7,1.6,6.2,0.9,8.1-1.6L38,142"/>
	<path class="st5" d="M62,119l7.2,4.2c2.7,1.6,6.2,0.9,8.1-1.6L80,118"/>
	<line class="st5" x1="62" y1="119" x2="20" y2="143"/>
	<line class="st5" x1="20" y1="207" x2="47" y2="222"/>
	<line class="st5" x1="62" y1="182" x2="88.5" y2="197.8"/>
	<line class="st5" x1="20" y1="180.9" x2="47" y2="222"/>
	<line class="st5" x1="62" y1="158.5" x2="89" y2="198"/>
</g>
<g>
	<g>
		<path class="st5" d="M93,81c9.5,0,9.5,8,19,8s9.5-8,19-8c9.5,0,9.5,8,19,8c9.5,0,9.5-8,19-8"/>
	</g>
	<g>
		<path class="st5" d="M92.8,90c9.5,0,9.5,8,19,8s9.5-8,19-8c9.5,0,9.5,8,19,8c9.5,0,9.5-8,19-8"/>
	</g>
	<g>
		<path class="st5" d="M168.8,90c9.5,0,9.5,8,19,8c9.5,0,9.5-8,19-8c9.5,0,9.5,8,19,8c9.5,0,9.5-8,19-8"/>
	</g>
</g>
<path class="st4" d="M230.3,167.2l0.8,3.8c0.7,3.6-0.8,7.3-3.9,9.4l0,0c-7.4,4.8-17-0.9-16.5-9.7l0.9-14c0.3-3.1-1.3-6.1-4.1-7.5
	l0,0c-3.5-1.8-7.7-0.6-9.9,2.7c-0.3,0.5-0.7,1.1-1.1,1.7c-20.2,31.3-33,66.8-36.9,103.8c0,0.3-0.1,0.5-0.1,0.8l0,0
	c-0.9,8.4,3.2,16.6,10.4,20.9l0,0c6.9,4.2,15.5,4.2,22.4,0.1l51.9-30.8c5.7-3.4,9.2-9.5,9.2-16.1l0,0c0-13.7-2.4-27.3-7-40.2
	l-14-46.6c-0.9-2.9-2.8-5.4-5.3-6.9h0c-4.1-2.5-9.6-0.5-11,4.2l-4.8,16.2"/>
<path class="st4" d="M190.5,183.3c-0.9,2.7,0.3,5.7,2.9,7l0,0c3.2,1.7,7.1,0.1,8.3-3.4l4.5-27.5c0.2-1.4-0.5-2.8-1.8-3.4l0,0
	c-1.7-0.8-3.7,0.1-4.3,1.8L190.5,183.3z"/>
<path class="st4" d="M226.7,146.2c-0.3-1.8-2-2.9-3.8-2.5l0,0c-1.4,0.3-2.3,1.5-2.4,2.9l-0.5,26.9c0.5,3.5,3.9,5.7,7.3,4.6l0,0
	c2.6-0.8,4.3-3.4,3.9-6.1L226.7,146.2z"/>
<polyline class="st5" points="180.7,242.9 176.7,263 165.9,263 "/>
<line class="st5" x1="176.7" y1="263" x2="186.8" y2="273.1"/>
<line class="st5" x1="191.6" y1="177.1" x2="182.7" y2="205.7"/>
<line class="st5" x1="203.4" y1="179.9" x2="194.2" y2="235.6"/>
<polyline class="st4" points="123,106.9 131,111.7 139,106.9 "/>
</svg>
