<?xml version="1.0" encoding="utf-8"?>
<!-- Generator: Adobe Illustrator 22.0.1, SVG Export Plug-In . SVG Version: 6.00 Build 0)  -->
<svg version="1.1" xmlns="http://www.w3.org/2000/svg" xmlns:xlink="http://www.w3.org/1999/xlink" x="0px" y="0px"
	 viewBox="0 0 300 300" style="enable-background:new 0 0 300 300;" xml:space="preserve">
<style type="text/css">
	.st0{fill:#CD7524;}
	.st1{fill:none;stroke:#545352;stroke-width:2;stroke-linecap:round;stroke-linejoin:round;stroke-miterlimit:10;}
	.st2{fill:#545352;}
	.st3{fill:none;stroke:#FFFFFF;stroke-width:2;stroke-linecap:round;stroke-linejoin:round;stroke-miterlimit:10;}
	.st4{fill:none;stroke:#FFFFFF;stroke-width:4;stroke-linecap:round;stroke-linejoin:round;stroke-miterlimit:10;}
	.st5{fill:#FFFFFF;}
	.st6{fill:none;stroke:#545352;stroke-width:4;stroke-linecap:round;stroke-linejoin:round;stroke-miterlimit:10;}
	.st7{fill:#C6592E;}
	
		.st8{fill:none;stroke:#545352;stroke-width:2;stroke-linecap:round;stroke-linejoin:round;stroke-miterlimit:10;stroke-dasharray:7;}
</style>
<g id="Слой_8">
</g>
<g id="Слой_2">
</g>
<g id="Слой_3">
	<g>
		<path class="st7" d="M130.571,2L130.571,2c-3.314,0-6,2.686-6,6v17.738h12V8C136.571,4.686,133.885,2,130.571,2z"/>
		<polygon class="st0" points="90.424,265.815 6,217 6,207.864 62,175.488 148,224 148,233.669 		"/>
		<path class="st0" d="M201.451,145.958L201.451,145.958c-7.368,5.62-13.16,13.045-16.817,21.559l-3.955,9.207
			c-9.909,23.069-16.653,47.373-20.049,72.25l-0.503,11.333c-0.35,7.881,3.801,15.278,10.709,19.087h0
			c6.346,3.498,14.056,3.432,20.341-0.175l50.009-28.702c7.61-4.694,12.1-13.124,11.749-22.058l-0.264-6.706
			c-0.288-7.327-1.27-14.609-2.93-21.751l-2.003-8.614l-7.568,3.114l-4.224,0.187l-16.639-9.962l-3.049,2.193
			c-2.745,1.974-6.595,0.214-6.898-3.154l-0.445-4.954l-4.347-3.323l-2.902,10.969c-0.936,3.539-4.785,5.434-8.161,4.018
			l-0.147-0.062c-2.996-1.256-4.511-4.563-3.509-7.618c1.331-4.06,3.158-9.691,4.64-14.267c1.678-5.183,4.832-9.762,9.076-13.179
			l5.758-4.635L201.451,145.958z"/>
		<g>
			<path class="st5" d="M237.002,206.942c2.528,1.567,4.046,4.596,4.046,8.881c0,9.805-7.949,22.473-17.754,28.295
				c-5.833,3.463-11.008,3.724-14.245,1.302l-0.573-0.475c-1.856-1.703-2.936-4.424-2.936-8.04c0-9.805,7.949-22.473,17.754-28.295
				c5.014-2.977,9.543-3.587,12.772-2.162L237.002,206.942z"/>
		</g>
		<g>
			<g>
				<g>
					<line class="st8" x1="55" y1="128.84" x2="55" y2="180"/>
					<line class="st8" x1="55.248" y1="128.587" x2="109.111" y2="97.783"/>
					<line class="st8" x1="165.748" y1="192.592" x2="55.248" y2="128.587"/>
					<line class="st8" x1="174.783" y1="187.34" x2="165.748" y2="192.592"/>
					<line class="st8" x1="288.752" y1="121.092" x2="231.226" y2="154.531"/>
					<line class="st8" x1="238.458" y1="92.261" x2="288.752" y2="121.092"/>
					<line class="st8" x1="55" y1="279.34" x2="55" y2="299.34"/>
					<polyline class="st8" points="289,120.84 289,159.024 297.5,171.634 297.5,297.646 					"/>
					<line class="st8" x1="174.5" y1="282.146" x2="174.5" y2="298.646"/>
					<line class="st8" x1="166" y1="192.84" x2="166" y2="217.863"/>
				</g>
			</g>
		</g>
		<g>
			<polyline class="st6" points="131,68 109.111,55.615 109.111,27.727 			"/>
			<line class="st1" x1="131" y1="40.111" x2="131" y2="68"/>
			<polyline class="st6" points="131,68 152.889,55.615 152.889,27.727 			"/>
			<polyline class="st1" points="109.111,27.423 131,40.095 152.889,27.423 			"/>
			<line class="st6" x1="125" y1="18.224" x2="109.111" y2="27.423"/>
			<line class="st6" x1="152.889" y1="27.423" x2="137" y2="18.224"/>
		</g>
		<line class="st6" x1="123" y1="81.849" x2="123" y2="64.007"/>
		<line class="st1" x1="131" y1="68" x2="131" y2="80"/>
		<line class="st6" x1="139" y1="81.849" x2="139" y2="64.007"/>
		<line class="st6" x1="123" y1="106.891" x2="123" y2="94"/>
		<line class="st1" x1="131" y1="90.404" x2="131" y2="111.154"/>
		<line class="st6" x1="139" y1="106.891" x2="139" y2="94"/>
		<path class="st6" d="M137,27.97c0,0,0-21.364,0-21.364v0c-1.68-6.141-10.32-6.141-12,0l0,0c0,0,0,21.364,0,21.364"/>
		<path class="st6" d="M136.993,28.653c-0.056,0.679-0.445,1.356-1.189,1.941c-1.985,1.56-5.745,1.879-8.399,0.711
			c-1.427-0.628-2.243-1.558-2.384-2.526"/>
		<path class="st1" d="M136.993,22.725c-0.056,0.679-0.445,1.356-1.189,1.941c-1.985,1.56-5.745,1.879-8.399,0.711
			c-1.427-0.628-2.243-1.558-2.384-2.526"/>
		<g>
			<line class="st1" x1="91" y1="298.146" x2="91" y2="266.146"/>
			<polyline class="st6" points="9,219 9,251 91,298.146 			"/>
			<line class="st6" x1="90.424" y1="265.815" x2="9" y2="219"/>
			<polyline class="st6" points="6,208 6,217 9.114,218.804 			"/>
			<polyline class="st6" points="148,224 148,233 144.886,234.804 			"/>
			<polyline class="st6" points="145,236 145,267 91,298.146 			"/>
			<line class="st6" x1="91" y1="265.815" x2="147" y2="233.669"/>
			<polyline class="st1" points="147.237,223.136 90.596,256.136 6.43,207.864 			"/>
			<polyline class="st6" points="6.43,207.864 63.07,174.864 148,224 			"/>
			<line class="st1" x1="91" y1="256" x2="91" y2="266"/>
		</g>
		<g>
			<line class="st1" x1="20" y1="207" x2="20" y2="143"/>
			<line class="st1" x1="62" y1="182" x2="62" y2="119"/>
			<line class="st1" x1="43" y1="193" x2="43" y2="124"/>
			<line class="st1" x1="62" y1="182" x2="20" y2="207"/>
			<line class="st1" x1="61.835" y1="124.71" x2="20" y2="149.108"/>
			<line class="st1" x1="61.835" y1="147.71" x2="20" y2="172.108"/>
			<line class="st1" x1="61.835" y1="166.71" x2="20" y2="191.108"/>
			<path class="st1" d="M20,143l7.231,4.218c2.718,1.586,6.193,0.883,8.081-1.635L38,142"/>
			<path class="st1" d="M62,119l7.231,4.218c2.718,1.586,6.193,0.883,8.081-1.635L80,118"/>
			<line class="st1" x1="62" y1="119" x2="20" y2="143"/>
			<line class="st1" x1="20" y1="207" x2="47" y2="222"/>
			<line class="st1" x1="62" y1="182" x2="88.528" y2="197.774"/>
			<line class="st1" x1="20" y1="180.909" x2="47" y2="222"/>
			<line class="st1" x1="62" y1="158.467" x2="89" y2="198"/>
		</g>
		<g>
			<g>
				<path class="st1" d="M93,81c9.499,0,9.499,8,18.998,8c9.499,0,9.499-8,18.999-8c9.501,0,9.501,8,19.002,8
					c9.501,0,9.501-8,19.002-8"/>
			</g>
			<g>
				<path class="st1" d="M92.75,90c9.499,0,9.499,8,18.998,8c9.499,0,9.499-8,18.999-8c9.501,0,9.501,8,19.002,8
					c9.501,0,9.501-8,19.002-8"/>
			</g>
			<g>
				<path class="st1" d="M168.75,90c9.499,0,9.499,8,18.998,8c9.499,0,9.499-8,18.999-8c9.501,0,9.501,8,19.002,8
					c9.501,0,9.501-8,19.002-8"/>
			</g>
		</g>
		<g>
			<g>
				<path class="st6" d="M213.101,158.142L213.101,158.142c-1.335-4.693-4.212-8.799-8.168-11.655l-3.547-2.562
					c-0.498-0.365-1.016-0.777-1.527-1.203c-2.222-1.854-2.268-5.252-0.095-7.162l0,0c1.225-1.077,3.034-1.157,4.349-0.193
					l18.759,13.745l0.088,0.048c5.383,2.959,9.583,7.624,11.976,13.209l0,0c0.262,0.488,0.653,0.896,1.13,1.178l15.098,7.7"/>
				<path class="st6" d="M213.671,142.389l3.973-0.904c2.9-0.66,4.716-3.546,4.056-6.445h0c-0.199-0.877-1.072-1.426-1.949-1.226
					l-2.7,0.414c-3.371,0.517-6.617,1.643-9.58,3.321"/>
				<path class="st6" d="M218.822,141.443l1.381,0.791c2.581,1.478,5.871,0.584,7.349-1.996v0c0.447-0.78,0.177-1.775-0.604-2.222
					l-5.107-2.925"/>
				<path class="st6" d="M228.926,147.81c0.665-0.447,1.24-1.049,1.664-1.791l0,0c0.447-0.78,0.177-1.775-0.604-2.222l-3.369-1.929"
					/>
				<path class="st6" d="M229.456,153.588c0.559-0.38,0.844-1.085,0.657-1.774l-0.651-3.742"/>
				<line class="st1" x1="228.072" y1="147.821" x2="228.072" y2="147.821"/>
				<path class="st6" d="M198.602,162.572c0.534,6.731,4.356,12.838,10.311,16.238l7.251,4.139l19.659,11.11"/>
				<path class="st1" d="M204.921,141.33L204.921,141.33c0.842-1.051,0.673-2.585-0.377-3.427l-2.075-1.663
					c-1.05-0.842-2.585-0.673-3.427,0.377h0c-0.842,1.051-0.673,2.585,0.377,3.427l2.075,1.663
					C202.545,142.549,204.079,142.38,204.921,141.33z"/>
			</g>
			<g>
				<path class="st6" d="M235.945,194.026c1.882,1.109,4.695,0.853,7.839-1.014c5.666-3.364,10.259-10.684,10.259-16.35
					c0-2.476-0.877-4.227-2.338-5.132"/>
				<path class="st1" d="M251.164,171.246c-1.866-0.824-4.482-0.471-7.38,1.249c-5.666,3.364-10.259,10.684-10.259,16.35
					c0,2.089,0.624,3.661,1.697,4.646"/>
			</g>
		</g>
		<g>
			<path class="st6" d="M201.982,145.958L201.982,145.958c-7.344,4.351-13.128,10.909-16.528,18.74l-6.204,14.291l-0.922,2.33
				c-9.744,24.632-16.055,50.487-18.757,76.838v0c-0.862,8.411,3.207,16.564,10.446,20.931h0c6.892,4.157,15.511,4.187,22.432,0.078
				l51.902-30.814c5.674-3.369,9.153-9.479,9.153-16.078v0c0-13.717-2.362-27.314-6.966-40.197"/>
			<path class="st6" d="M209.32,150.714L209.32,150.714c-6.647,3.839-11.625,10.018-13.96,17.331l-4.87,15.249
				c-0.866,2.711,0.345,5.653,2.869,6.969l0,0c3.208,1.673,7.15,0.062,8.269-3.378l3.216-9.882"/>
			<path class="st6" d="M209.322,180.465v3.354c0,3.481,3.851,5.583,6.779,3.699l1.653-1.063"/>
			<g>
				<polyline class="st1" points="180.685,242.919 176.683,262.995 165.945,262.995 				"/>
				<line class="st1" x1="176.683" y1="262.995" x2="186.763" y2="273.075"/>
			</g>
			<line class="st1" x1="191.609" y1="177.059" x2="182.7" y2="205.714"/>
			<line class="st1" x1="203.683" y1="183.109" x2="194.148" y2="236.133"/>
		</g>
		<path class="st1" d="M210.043,145.755c1.02-1.478,2.604-2.505,4.416-2.808h0"/>
		<polyline class="st6" points="123,106.891 131,111.678 139,106.891 		"/>
	</g>
</g>
</svg>
