<?xml version="1.0" encoding="utf-8"?>
<!-- Generator: Adobe Illustrator 22.0.1, SVG Export Plug-In . SVG Version: 6.00 Build 0)  -->
<svg version="1.1" id="Слой_1" xmlns="http://www.w3.org/2000/svg" xmlns:xlink="http://www.w3.org/1999/xlink" x="0px" y="0px"
	 viewBox="0 0 300 300" style="enable-background:new 0 0 300 300;" xml:space="preserve">
<style type="text/css">
	.st0{display:none;}
	.st1{display:inline;opacity:0.19;}
	.st2{fill:none;stroke:#545352;stroke-linecap:round;stroke-linejoin:round;stroke-miterlimit:10;}
	.st3{fill:#CD7524;}
	.st4{fill:#FFFFFF;}
	.st5{fill:#545352;}
	.st6{fill:none;stroke:#545352;stroke-width:4;stroke-linecap:round;stroke-linejoin:round;stroke-miterlimit:10;}
	.st7{fill:none;stroke:#545352;stroke-width:2;stroke-linecap:round;stroke-linejoin:round;stroke-miterlimit:10;}
</style>
<g id="Слой_1_1_" class="st0">
	<g class="st1">
		<g>
			<g>
				<g>
					<polygon class="st2" points="22.8,20.5 22.8,-7.8 -1.7,-21.9 -26.2,-7.8 -26.2,20.5 -1.7,34.7 					"/>
				</g>
				<polyline class="st2" points="22.8,-8.1 -26.2,20.9 -26.2,-8.1 22.8,20.9 -1.2,34.9 -1.2,-22.1 				"/>
			</g>
			<g>
				<g>
					<polygon class="st2" points="71.8,20.5 71.8,-7.8 47.3,-21.9 22.8,-7.8 22.8,20.5 47.3,34.7 					"/>
				</g>
				<polyline class="st2" points="71.8,-8.1 22.8,20.9 22.8,-8.1 71.8,20.9 47.8,34.9 47.8,-22.1 				"/>
			</g>
			<g>
				<g>
					<polygon class="st2" points="120.8,20.5 120.8,-7.8 96.3,-21.9 71.8,-7.8 71.8,20.5 96.3,34.7 					"/>
				</g>
				<polyline class="st2" points="120.8,-8.1 71.8,20.9 71.8,-8.1 120.8,20.9 96.8,34.9 96.8,-22.1 				"/>
			</g>
			<g>
				<g>
					<polygon class="st2" points="169.8,20.5 169.8,-7.8 145.3,-21.9 120.8,-7.8 120.8,20.5 145.3,34.7 					"/>
				</g>
				<polyline class="st2" points="169.8,-8.1 120.8,20.9 120.8,-8.1 169.8,20.9 145.8,34.9 145.8,-22.1 				"/>
			</g>
			<g>
				<g>
					<polygon class="st2" points="218.8,20.5 218.8,-7.8 194.3,-21.9 169.8,-7.8 169.8,20.5 194.3,34.7 					"/>
				</g>
				<polyline class="st2" points="218.8,-8.1 169.8,20.9 169.8,-8.1 218.8,20.9 194.8,34.9 194.8,-22.1 				"/>
			</g>
			<g>
				<g>
					<polygon class="st2" points="267.8,20.5 267.8,-7.8 243.3,-21.9 218.8,-7.8 218.8,20.5 243.3,34.7 					"/>
				</g>
				<polyline class="st2" points="267.8,-8.1 218.8,20.9 218.8,-8.1 267.8,20.9 243.8,34.9 243.8,-22.1 				"/>
			</g>
			<g>
				<g>
					<polygon class="st2" points="316.8,20.5 316.8,-7.8 292.3,-21.9 267.8,-7.8 267.8,20.5 292.3,34.7 					"/>
				</g>
				<polyline class="st2" points="316.8,-8.1 267.8,20.9 267.8,-8.1 316.8,20.9 292.8,34.9 292.8,-22.1 				"/>
			</g>
			<g>
				<g>
					<polygon class="st2" points="47.8,63.5 47.8,35.2 23.3,21.1 -1.2,35.2 -1.2,63.5 23.3,77.7 					"/>
				</g>
				<polyline class="st2" points="47.8,34.9 -1.2,63.9 -1.2,34.9 47.8,63.9 23.8,77.9 23.8,20.9 				"/>
			</g>
			<g>
				<g>
					<polygon class="st2" points="96.8,63.5 96.8,35.2 72.3,21.1 47.8,35.2 47.8,63.5 72.3,77.7 					"/>
				</g>
				<polyline class="st2" points="96.8,34.9 47.8,63.9 47.8,34.9 96.8,63.9 72.8,77.9 72.8,20.9 				"/>
			</g>
			<g>
				<g>
					<polygon class="st2" points="145.8,63.5 145.8,35.2 121.3,21.1 96.8,35.2 96.8,63.5 121.3,77.7 					"/>
				</g>
				<polyline class="st2" points="145.8,34.9 96.8,63.9 96.8,34.9 145.8,63.9 121.8,77.9 121.8,20.9 				"/>
			</g>
			<g>
				<g>
					<polygon class="st2" points="194.8,63.5 194.8,35.2 170.3,21.1 145.8,35.2 145.8,63.5 170.3,77.7 					"/>
				</g>
				<polyline class="st2" points="194.8,34.9 145.8,63.9 145.8,34.9 194.8,63.9 170.8,77.9 170.8,20.9 				"/>
			</g>
			<g>
				<g>
					<polygon class="st2" points="243.8,63.5 243.8,35.2 219.3,21.1 194.8,35.2 194.8,63.5 219.3,77.7 					"/>
				</g>
				<polyline class="st2" points="243.8,34.9 194.8,63.9 194.8,34.9 243.8,63.9 219.8,77.9 219.8,20.9 				"/>
			</g>
			<g>
				<g>
					<polygon class="st2" points="292.8,63.5 292.8,35.2 268.3,21.1 243.8,35.2 243.8,63.5 268.3,77.7 					"/>
				</g>
				<polyline class="st2" points="292.8,34.9 243.8,63.9 243.8,34.9 292.8,63.9 268.8,77.9 268.8,20.9 				"/>
			</g>
		</g>
		<g>
			<g>
				<g>
					<polygon class="st2" points="22.8,106.5 22.8,78.2 -1.7,64.1 -26.2,78.2 -26.2,106.5 -1.7,120.7 					"/>
				</g>
				<polyline class="st2" points="22.8,77.9 -26.2,106.9 -26.2,77.9 22.8,106.9 -1.2,120.9 -1.2,63.9 				"/>
			</g>
			<g>
				<g>
					<polygon class="st2" points="71.8,106.5 71.8,78.2 47.3,64.1 22.8,78.2 22.8,106.5 47.3,120.7 					"/>
				</g>
				<polyline class="st2" points="71.8,77.9 22.8,106.9 22.8,77.9 71.8,106.9 47.8,120.9 47.8,63.9 				"/>
			</g>
			<g>
				<g>
					<polygon class="st2" points="120.8,106.5 120.8,78.2 96.3,64.1 71.8,78.2 71.8,106.5 96.3,120.7 					"/>
				</g>
				<polyline class="st2" points="120.8,77.9 71.8,106.9 71.8,77.9 120.8,106.9 96.8,120.9 96.8,63.9 				"/>
			</g>
			<g>
				<g>
					<polygon class="st2" points="169.8,106.5 169.8,78.2 145.3,64.1 120.8,78.2 120.8,106.5 145.3,120.7 					"/>
				</g>
				<polyline class="st2" points="169.8,77.9 120.8,106.9 120.8,77.9 169.8,106.9 145.8,120.9 145.8,63.9 				"/>
			</g>
			<g>
				<g>
					<polygon class="st2" points="218.8,106.5 218.8,78.2 194.3,64.1 169.8,78.2 169.8,106.5 194.3,120.7 					"/>
				</g>
				<polyline class="st2" points="218.8,77.9 169.8,106.9 169.8,77.9 218.8,106.9 194.8,120.9 194.8,63.9 				"/>
			</g>
			<g>
				<g>
					<polygon class="st2" points="267.8,106.5 267.8,78.2 243.3,64.1 218.8,78.2 218.8,106.5 243.3,120.7 					"/>
				</g>
				<polyline class="st2" points="267.8,77.9 218.8,106.9 218.8,77.9 267.8,106.9 243.8,120.9 243.8,63.9 				"/>
			</g>
			<g>
				<g>
					<polygon class="st2" points="316.8,106.5 316.8,78.2 292.3,64.1 267.8,78.2 267.8,106.5 292.3,120.7 					"/>
				</g>
				<polyline class="st2" points="316.8,77.9 267.8,106.9 267.8,77.9 316.8,106.9 292.8,120.9 292.8,63.9 				"/>
			</g>
			<g>
				<g>
					<polygon class="st2" points="47.8,149.5 47.8,121.2 23.3,107.1 -1.2,121.2 -1.2,149.5 23.3,163.7 					"/>
				</g>
				<polyline class="st2" points="47.8,120.9 -1.2,149.9 -1.2,120.9 47.8,149.9 23.8,163.9 23.8,106.9 				"/>
			</g>
			<g>
				<g>
					<polygon class="st2" points="96.8,149.5 96.8,121.2 72.3,107.1 47.8,121.2 47.8,149.5 72.3,163.7 					"/>
				</g>
				<polyline class="st2" points="96.8,120.9 47.8,149.9 47.8,120.9 96.8,149.9 72.8,163.9 72.8,106.9 				"/>
			</g>
			<g>
				<g>
					<polygon class="st2" points="145.8,149.5 145.8,121.2 121.3,107.1 96.8,121.2 96.8,149.5 121.3,163.7 					"/>
				</g>
				<polyline class="st2" points="145.8,120.9 96.8,149.9 96.8,120.9 145.8,149.9 121.8,163.9 121.8,106.9 				"/>
			</g>
			<g>
				<g>
					<polygon class="st2" points="194.8,149.5 194.8,121.2 170.3,107.1 145.8,121.2 145.8,149.5 170.3,163.7 					"/>
				</g>
				<polyline class="st2" points="194.8,120.9 145.8,149.9 145.8,120.9 194.8,149.9 170.8,163.9 170.8,106.9 				"/>
			</g>
			<g>
				<g>
					<polygon class="st2" points="243.8,149.5 243.8,121.2 219.3,107.1 194.8,121.2 194.8,149.5 219.3,163.7 					"/>
				</g>
				<polyline class="st2" points="243.8,120.9 194.8,149.9 194.8,120.9 243.8,149.9 219.8,163.9 219.8,106.9 				"/>
			</g>
			<g>
				<g>
					<polygon class="st2" points="292.8,149.5 292.8,121.2 268.3,107.1 243.8,121.2 243.8,149.5 268.3,163.7 					"/>
				</g>
				<polyline class="st2" points="292.8,120.9 243.8,149.9 243.8,120.9 292.8,149.9 268.8,163.9 268.8,106.9 				"/>
			</g>
		</g>
		<g>
			<g>
				<g>
					<polygon class="st2" points="22.8,192.5 22.8,164.2 -1.7,150.1 -26.2,164.2 -26.2,192.5 -1.7,206.7 					"/>
				</g>
				<polyline class="st2" points="22.8,163.9 -26.2,192.9 -26.2,163.9 22.8,192.9 -1.2,206.9 -1.2,149.9 				"/>
			</g>
			<g>
				<g>
					<polygon class="st2" points="71.8,192.5 71.8,164.2 47.3,150.1 22.8,164.2 22.8,192.5 47.3,206.7 					"/>
				</g>
				<polyline class="st2" points="71.8,163.9 22.8,192.9 22.8,163.9 71.8,192.9 47.8,206.9 47.8,149.9 				"/>
			</g>
			<g>
				<g>
					<polygon class="st2" points="120.8,192.5 120.8,164.2 96.3,150.1 71.8,164.2 71.8,192.5 96.3,206.7 					"/>
				</g>
				<polyline class="st2" points="120.8,163.9 71.8,192.9 71.8,163.9 120.8,192.9 96.8,206.9 96.8,149.9 				"/>
			</g>
			<g>
				<g>
					<polygon class="st2" points="169.8,192.5 169.8,164.2 145.3,150.1 120.8,164.2 120.8,192.5 145.3,206.7 					"/>
				</g>
				<polyline class="st2" points="169.8,163.9 120.8,192.9 120.8,163.9 169.8,192.9 145.8,206.9 145.8,149.9 				"/>
			</g>
			<g>
				<g>
					<polygon class="st2" points="218.8,192.5 218.8,164.2 194.3,150.1 169.8,164.2 169.8,192.5 194.3,206.7 					"/>
				</g>
				<polyline class="st2" points="218.8,163.9 169.8,192.9 169.8,163.9 218.8,192.9 194.8,206.9 194.8,149.9 				"/>
			</g>
			<g>
				<g>
					<polygon class="st2" points="267.8,192.5 267.8,164.2 243.3,150.1 218.8,164.2 218.8,192.5 243.3,206.7 					"/>
				</g>
				<polyline class="st2" points="267.8,163.9 218.8,192.9 218.8,163.9 267.8,192.9 243.8,206.9 243.8,149.9 				"/>
			</g>
			<g>
				<g>
					<polygon class="st2" points="316.8,192.5 316.8,164.2 292.3,150.1 267.8,164.2 267.8,192.5 292.3,206.7 					"/>
				</g>
				<polyline class="st2" points="316.8,163.9 267.8,192.9 267.8,163.9 316.8,192.9 292.8,206.9 292.8,149.9 				"/>
			</g>
			<g>
				<g>
					<polygon class="st2" points="47.8,235.5 47.8,207.2 23.3,193.1 -1.2,207.2 -1.2,235.5 23.3,249.7 					"/>
				</g>
				<polyline class="st2" points="47.8,206.9 -1.2,235.9 -1.2,206.9 47.8,235.9 23.8,249.9 23.8,192.9 				"/>
			</g>
			<g>
				<g>
					<polygon class="st2" points="96.8,235.5 96.8,207.2 72.3,193.1 47.8,207.2 47.8,235.5 72.3,249.7 					"/>
				</g>
				<polyline class="st2" points="96.8,206.9 47.8,235.9 47.8,206.9 96.8,235.9 72.8,249.9 72.8,192.9 				"/>
			</g>
			<g>
				<g>
					<polygon class="st2" points="145.8,235.5 145.8,207.2 121.3,193.1 96.8,207.2 96.8,235.5 121.3,249.7 					"/>
				</g>
				<polyline class="st2" points="145.8,206.9 96.8,235.9 96.8,206.9 145.8,235.9 121.8,249.9 121.8,192.9 				"/>
			</g>
			<g>
				<g>
					<polygon class="st2" points="194.8,235.5 194.8,207.2 170.3,193.1 145.8,207.2 145.8,235.5 170.3,249.7 					"/>
				</g>
				<polyline class="st2" points="194.8,206.9 145.8,235.9 145.8,206.9 194.8,235.9 170.8,249.9 170.8,192.9 				"/>
			</g>
			<g>
				<g>
					<polygon class="st2" points="243.8,235.5 243.8,207.2 219.3,193.1 194.8,207.2 194.8,235.5 219.3,249.7 					"/>
				</g>
				<polyline class="st2" points="243.8,206.9 194.8,235.9 194.8,206.9 243.8,235.9 219.8,249.9 219.8,192.9 				"/>
			</g>
			<g>
				<g>
					<polygon class="st2" points="292.8,235.5 292.8,207.2 268.3,193.1 243.8,207.2 243.8,235.5 268.3,249.7 					"/>
				</g>
				<polyline class="st2" points="292.8,206.9 243.8,235.9 243.8,206.9 292.8,235.9 268.8,249.9 268.8,192.9 				"/>
			</g>
		</g>
		<g>
			<g>
				<g>
					<polygon class="st2" points="22.8,278.5 22.8,250.2 -1.7,236.1 -26.2,250.2 -26.2,278.5 -1.7,292.7 					"/>
				</g>
				<polyline class="st2" points="22.8,249.9 -26.2,278.9 -26.2,249.9 22.8,278.9 -1.2,292.9 -1.2,235.9 				"/>
			</g>
			<g>
				<g>
					<polygon class="st2" points="71.8,278.5 71.8,250.2 47.3,236.1 22.8,250.2 22.8,278.5 47.3,292.7 					"/>
				</g>
				<polyline class="st2" points="71.8,249.9 22.8,278.9 22.8,249.9 71.8,278.9 47.8,292.9 47.8,235.9 				"/>
			</g>
			<g>
				<g>
					<polygon class="st2" points="120.8,278.5 120.8,250.2 96.3,236.1 71.8,250.2 71.8,278.5 96.3,292.7 					"/>
				</g>
				<polyline class="st2" points="120.8,249.9 71.8,278.9 71.8,249.9 120.8,278.9 96.8,292.9 96.8,235.9 				"/>
			</g>
			<g>
				<g>
					<polygon class="st2" points="169.8,278.5 169.8,250.2 145.3,236.1 120.8,250.2 120.8,278.5 145.3,292.7 					"/>
				</g>
				<polyline class="st2" points="169.8,249.9 120.8,278.9 120.8,249.9 169.8,278.9 145.8,292.9 145.8,235.9 				"/>
			</g>
			<g>
				<g>
					<polygon class="st2" points="218.8,278.5 218.8,250.2 194.3,236.1 169.8,250.2 169.8,278.5 194.3,292.7 					"/>
				</g>
				<polyline class="st2" points="218.8,249.9 169.8,278.9 169.8,249.9 218.8,278.9 194.8,292.9 194.8,235.9 				"/>
			</g>
			<g>
				<g>
					<polygon class="st2" points="267.8,278.5 267.8,250.2 243.3,236.1 218.8,250.2 218.8,278.5 243.3,292.7 					"/>
				</g>
				<polyline class="st2" points="267.8,249.9 218.8,278.9 218.8,249.9 267.8,278.9 243.8,292.9 243.8,235.9 				"/>
			</g>
			<g>
				<g>
					<polygon class="st2" points="316.8,278.5 316.8,250.2 292.3,236.1 267.8,250.2 267.8,278.5 292.3,292.7 					"/>
				</g>
				<polyline class="st2" points="316.8,249.9 267.8,278.9 267.8,249.9 316.8,278.9 292.8,292.9 292.8,235.9 				"/>
			</g>
			<g>
				<g>
					<polygon class="st2" points="47.8,321.5 47.8,293.2 23.3,279.1 -1.2,293.2 -1.2,321.5 23.3,335.7 					"/>
				</g>
				<polyline class="st2" points="47.8,292.9 -1.2,321.9 -1.2,292.9 47.8,321.9 23.8,335.9 23.8,278.9 				"/>
			</g>
			<g>
				<g>
					<polygon class="st2" points="96.8,321.5 96.8,293.2 72.3,279.1 47.8,293.2 47.8,321.5 72.3,335.7 					"/>
				</g>
				<polyline class="st2" points="96.8,292.9 47.8,321.9 47.8,292.9 96.8,321.9 72.8,335.9 72.8,278.9 				"/>
			</g>
			<g>
				<g>
					<polygon class="st2" points="145.8,321.5 145.8,293.2 121.3,279.1 96.8,293.2 96.8,321.5 121.3,335.7 					"/>
				</g>
				<polyline class="st2" points="145.8,292.9 96.8,321.9 96.8,292.9 145.8,321.9 121.8,335.9 121.8,278.9 				"/>
			</g>
			<g>
				<g>
					<polygon class="st2" points="194.8,321.5 194.8,293.2 170.3,279.1 145.8,293.2 145.8,321.5 170.3,335.7 					"/>
				</g>
				<polyline class="st2" points="194.8,292.9 145.8,321.9 145.8,292.9 194.8,321.9 170.8,335.9 170.8,278.9 				"/>
			</g>
			<g>
				<g>
					<polygon class="st2" points="243.8,321.5 243.8,293.2 219.3,279.1 194.8,293.2 194.8,321.5 219.3,335.7 					"/>
				</g>
				<polyline class="st2" points="243.8,292.9 194.8,321.9 194.8,292.9 243.8,321.9 219.8,335.9 219.8,278.9 				"/>
			</g>
			<g>
				<g>
					<polygon class="st2" points="292.8,321.5 292.8,293.2 268.3,279.1 243.8,293.2 243.8,321.5 268.3,335.7 					"/>
				</g>
				<polyline class="st2" points="292.8,292.9 243.8,321.9 243.8,292.9 292.8,321.9 268.8,335.9 268.8,278.9 				"/>
			</g>
		</g>
	</g>
</g>
<g id="Слой_3">
	<g>
		<path class="st3" d="M141,233l71,42l35.3-132.4L87,50L52,181l8,5l24,14L141,233z"/>
		<polygon class="st4" points="228.3,198.5 242.8,144.2 167.9,100.5 153.3,154.8 153.3,154.8 		"/>
		<polygon class="st4" points="75.1,109.2 89.7,54.9 162.9,97.6 148,151.7 		"/>
		<path class="st4" d="M73.7,114.7l-17.3,64.5l8.7,5.1l98.8,58.3l17.5-65.1l0-0.1L73.7,114.7z"/>
		<path class="st3" d="M271.1,170.8l14.5,8.7c2.7,1.6,4.1,4.8,3.3,7.9L270.9,252c-0.2,3-2.6,5.4-5.7,5.4l0,0c-1.1,0-2.2-0.1-3.2-0.4
			L244.9,245c-1.8-1.2-2.6-3.4-2-5.5l17-60.5L271.1,170.8z"/>
		<ellipse transform="matrix(0.9244 -0.3815 0.3815 0.9244 -20.0293 41.8998)" class="st5" cx="95.7" cy="71.5" rx="4.1" ry="5.2"/>
		
			<ellipse transform="matrix(0.9244 -0.3815 0.3815 0.9244 -31.2985 75.0602)" class="st5" cx="173.7" cy="116.5" rx="4.1" ry="5.2"/>
		<path class="st5" d="M80.9,189.7l-14.5-9.1c-2.4-1.4-4-4.9-3.7-7.9l0,0c0.3-2.9,2.5-4.2,4.9-2.8l16.1,9.9c2.4,1.4,3.6,4.8,2.9,7.5
			l0,0C85.8,190.1,83.3,191.1,80.9,189.7z"/>
		<g>
			<path class="st5" d="M241,135l-26-15.3c-1.7-1-2.5-3.3-1.9-5.2l0,0c0.6-1.9,2.5-2.7,4.1-1.7l14.8,8.7l11.3,6.5
				c1.7,1,2.5,3.3,1.9,5.2l0,0C244.5,135.2,242.6,135.9,241,135z"/>
			<path class="st5" d="M220,208l-33-19.3c-1.7-1-2.5-3.3-1.9-5.2l0,0c0.6-1.9,2.5-2.7,4.1-1.7l21.8,12.7l11.3,6.5
				c1.7,1,2.5,3.3,1.9,5.2l0,0C223.5,208.2,221.6,208.9,220,208z"/>
			<path class="st5" d="M214,230l-33-19.3c-1.7-1-2.5-3.3-1.9-5.2l0,0c0.6-1.9,2.5-2.7,4.1-1.7l21.8,12.7l11.3,6.5
				c1.7,1,2.5,3.3,1.9,5.2l0,0C217.5,230.2,215.6,230.9,214,230z"/>
			<path class="st4" d="M217,219l-33-19.3c-1.7-1-2.5-3.3-1.9-5.2l0,0c0.6-1.9,2.5-2.7,4.1-1.7l21.8,12.7l11.3,6.5
				c1.7,1,2.5,3.3,1.9,5.2l0,0C220.5,219.2,218.6,219.9,217,219z"/>
			<path class="st4" d="M202.3,264.4l-26.9-15.5c-3.1-1.8-5.3-6.4-4.9-10.2l0,0c0.4-3.8,3.2-5.5,6.4-3.7l29,16.4
				c3.1,1.8,4.8,6.1,3.8,9.7l0,0C208.7,264.7,205.4,266.2,202.3,264.4z"/>
		</g>
		<line class="st6" x1="262" y1="256.9" x2="262" y2="286.8"/>
		<polygon class="st7" points="211.7,275.2 251,127.1 91.5,34.1 52,181.1 		"/>
		<g>
			<line class="st6" x1="298" y1="288" x2="298" y2="13"/>
			<line class="st7" x1="281" y1="110.5" x2="281" y2="22"/>
			<line class="st7" x1="281" y1="176.9" x2="281" y2="140"/>
			<line class="st7" x1="281" y1="296.5" x2="281" y2="221.7"/>
			<line class="st6" x1="262" y1="10.4" x2="262" y2="99.5"/>
			<polyline class="st7" points="297.9,12.1 281,21.9 261.6,10.6 			"/>
			<polyline class="st6" points="297.9,288.1 281,297.9 262,286.8 			"/>
			<polyline class="st6" points="262,10.4 278.5,0.9 297.9,12.1 			"/>
		</g>
		<g>
			<path class="st7" d="M267,123.8l-41.9,155.7l-3.3,11.9c-0.3,1-0.4,2.8,0.8,3.6"/>
			<line class="st7" x1="84" y1="12" x2="268.3" y2="120.6"/>
			<path class="st6" d="M250.4,249.9l-6.1,23.7l-3.3,11.5c-1,3.7-5.5,8.8-10.2,11.3l0,0c-2.8,1.5-4.9,1.7-6.3,0.9"/>
			<path class="st6" d="M271.9,170.7l13.9-52.2c0.7-2.7-0.5-5.5-2.9-6.9l-21.1-12.1L104.9,8.4l-1-0.5c-8.2-4.5-18.4-0.2-20.9,8.7
				l-1.4,5L38.6,182.9c-0.9,3.5,0.6,7.1,3.7,8.9l160.3,93.5L224,297"/>
			<line class="st7" x1="271.4" y1="170.9" x2="261.4" y2="177.9"/>
			<path class="st6" d="M271.8,170.8l13.7,9.1c3.5,2.4,5.2,6.7,4,10.8l-10.9,39.7l-6.2,22.4c-0.2,3-2.6,5.4-5.7,5.4l0,0
				c-1.1,0-2.2-0.1-3.2-0.4l-12.8-7.8"/>
			<path class="st7" d="M251.2,249l-6.6-4c-1.7-1-2.5-3.1-2-5l16.6-59.7c0.6-2.3,3.2-3.4,5.3-2.4l13.4,7.7c2.6,1.3,3.9,4.3,3.2,7.1
				l-16.6,60.1c-0.6,2-2.9,2.9-4.6,1.8L251.2,249z"/>
			<path class="st7" d="M266.4,257.9l1.6-5.3l16.7-59.9c1-3.5-0.4-7.2-3.5-9.1l-5.3-3.5"/>
			<path class="st7" d="M267,123.8c1-3.7,5.5-8.8,10.2-11.3l0,0c4.7-2.5,7.7-1.5,7.7,2.5"/>
		</g>
	</g>
</g>
</svg>
