<svg xmlns="http://www.w3.org/2000/svg" width="466" height="728" viewBox="0 0 466 728">
    <defs>
        <linearGradient id="a" x1="50%" x2="51.825%" y1="-16.922%" y2="82.521%">
            <stop offset="0%" stop-color="#F8F8F7"/>
            <stop offset="100%" stop-color="#FFF"/>
        </linearGradient>
    </defs>
    <path fill="url(#a)" fill-rule="evenodd" d="M420-103L38.737 129.44 35 131.711v85.404l95.54 58.298L35 334.127v74.165L420 643v-41.225L80.121 394.563l.019-50.464 81.568-49.732L420 451.837V418.1L189.373 277.495 420 136.9V-103zm46 831L.231 444.767 0 301.799l36.003-21.89 3.747-2.281-3.747-2.281L0 253.45V114.37L466-169v337.365L283.25 279.496 466 390.635v146.192L163.044 352.594l-30.823 18.745L466 574.31V728z" opacity=".503" transform="rotate(180 233 279.5)"/>
</svg>
