<svg xmlns="http://www.w3.org/2000/svg" width="22" height="22" viewBox="0 0 22 22">
  <metadata><?xpacket begin="﻿" id="W5M0MpCehiHzreSzNTczkc9d"?>
<x:xmpmeta xmlns:x="adobe:ns:meta/" x:xmptk="Adobe XMP Core 5.6-c142 79.160924, 2017/07/13-01:06:39        ">
   <rdf:RDF xmlns:rdf="http://www.w3.org/1999/02/22-rdf-syntax-ns#">
      <rdf:Description rdf:about=""/>
   </rdf:RDF>
</x:xmpmeta>
                                                                                                    
                                                                                                    
                                                                                                    
                                                                                                    
                                                                                                    
                                                                                                    
                                                                                                    
                                                                                                    
                                                                                                    
                                                                                                    
                                                                                                    
                                                                                                    
                                                                                                    
                                                                                                    
                                                                                                    
                                                                                                    
                                                                                                    
                                                                                                    
                                                                                                    
                                                                                                    
                           
<?xpacket end="w"?></metadata>
<defs>
    <style>
      .cls-1 {
        fill: #ff5200;
        fill-rule: evenodd;
      }
    </style>
  </defs>
  <path id="Forma_1" data-name="Forma 1" class="cls-1" d="M256,244.992A11.008,11.008,0,1,0,267.008,256,11,11,0,0,0,256,244.992Zm0,20.3A9.288,9.288,0,1,1,265.288,256,9.282,9.282,0,0,1,256,265.288Zm3.766-6.738-2.55-2.55,2.55-2.55a0.86,0.86,0,1,0-1.216-1.216l-2.55,2.55-2.55-2.55a0.86,0.86,0,1,0-1.216,1.216l2.55,2.55-2.55,2.55a0.86,0.86,0,1,0,1.216,1.216l2.55-2.55,2.55,2.55A0.86,0.86,0,0,0,259.766,258.55Z" transform="translate(-245 -245)"/>
</svg>
