<svg xmlns="http://www.w3.org/2000/svg" width="30" height="30" viewBox="0 0 30 30">
    <path fill="#FF5200" fill-rule="nonzero" d="M15 0c8.272 0 15 6.729 15 15 0 8.27-6.73 15-15 15-8.271 0-15-6.73-15-15C0 6.729 6.729 0 15 0zm0 18.003a3.005 3.005 0 0 1-3.002-3.004c0-.653.212-1.257.568-1.75A3.002 3.002 0 0 1 15 11.997a3 3 0 0 1 2.435 1.253c.354.493.568 1.096.568 1.75a3.008 3.008 0 0 1-3.005 3.003zm6.557-6.677l-2.883.01-.01-2.892 2.516-.008.377-.001v2.891zm1.974 1.924V9.767a3.3 3.3 0 0 0-3.298-3.297H9.766A3.3 3.3 0 0 0 6.47 9.767v10.467a3.3 3.3 0 0 0 3.297 3.298h10.468a3.3 3.3 0 0 0 3.297-3.298V13.25zM19.666 15c0-.619-.125-1.21-.347-1.75h2.548v6.984c0 .903-.734 1.634-1.635 1.634H9.766a1.635 1.635 0 0 1-1.635-1.634V13.25h2.547a4.635 4.635 0 0 0-.344 1.75A4.671 4.671 0 0 0 15 19.666 4.672 4.672 0 0 0 19.666 15z"/>
</svg>
