<svg xmlns="http://www.w3.org/2000/svg" xmlns:xlink="http://www.w3.org/1999/xlink" width="87" height="80" viewBox="0 0 87 80">
    <defs>
        <path id="a" d="M23.19 3.99L2.512 17.034l-.202.128v4.792l5.181 3.272-5.181 3.295v4.162l20.88 13.172v-2.313L4.757 31.912v-2.831l4.425-2.791 14.008 8.837v-1.893l-12.508-7.891 12.508-7.89V3.99zm2.38 46.522L.375 34.618l-.013-8.023 1.948-1.229.202-.128-.202-.128-1.948-1.229V16.076L25.57.174v18.932l-9.886 6.237 9.886 6.237v8.204L9.182 29.445l-1.667 1.052 18.055 11.39v8.625z"/>
        <linearGradient id="b" x1="50%" x2="50%" y1="0%" y2="100%">
            <stop offset="0%" stop-color="#F76300"/>
            <stop offset="100%" stop-color="#DA7A33"/>
        </linearGradient>
        <path id="d" d="M16.883 8.46l-12.01 7.576-4.247-2.679-.01-3.05L16.882.045v8.414zM3.34 11.108l.01 1.053 1.63 1.113 9.523-6.145V4.115L3.34 11.109z"/>
        <linearGradient id="e" x1="50%" x2="50%" y1="0%" y2="100%">
            <stop offset="0%" stop-color="#F76300"/>
            <stop offset="100%" stop-color="#F76B1C"/>
        </linearGradient>
        <path id="g" d="M2.862 46.906L23.539 33.86l.203-.127V28.94l-5.182-3.272 5.182-3.295v-4.162L2.862 5.04v2.314l18.432 11.628v2.833l-4.424 2.79L2.862 15.77v1.893l12.507 7.89-12.507 7.89v13.464zm22.827-12.087L.481 50.72V31.79l9.886-6.237-9.886-6.236v-8.204L16.87 21.45l1.667-1.052L.481 9.008V.383l25.196 15.895.012 8.023-1.947 1.229-.203.128.203.127 1.947 1.229v7.805z"/>
        <linearGradient id="h" x1="10.405%" x2="7.527%" y1="11.757%" y2="11.757%">
            <stop offset="0%" stop-color="#FF5000"/>
            <stop offset="100%" stop-color="#F76300"/>
        </linearGradient>
        <path id="j" d="M.054 7.9L12.065.322l4.246 2.68.011 3.05L.054 16.314V7.9zm13.544-2.65l-.011-1.053-1.63-1.114L2.436 9.23v3.014L13.598 5.25z"/>
    </defs>
    <g fill="none" fill-rule="evenodd">
        <g transform="translate(0 14.624)">
            <mask id="c" fill="#fff">
                <use xlink:href="#a"/>
            </mask>
            <path fill="url(#b)" d="M-38.943 462.796h876.068V-49.27H-38.943z" mask="url(#c)"/>
        </g>
        <g transform="translate(4.143 22.366)">
            <mask id="f" fill="#fff">
                <use xlink:href="#d"/>
            </mask>
            <path fill="url(#e)" d="M-43.086 455.054h876.068V-57.011H-43.086z" mask="url(#f)"/>
        </g>
        <g transform="translate(26.514)">
            <mask id="i" fill="#fff">
                <use xlink:href="#g"/>
            </mask>
            <path fill="url(#h)" d="M-65.457 477.42H810.61V-34.647H-65.457z" mask="url(#i)"/>
        </g>
        <g transform="translate(31.486 26.667)">
            <mask id="k" fill="#fff">
                <use xlink:href="#j"/>
            </mask>
            <path fill="#FF5200" d="M-70.429 450.753H805.64V-61.312H-70.429z" mask="url(#k)"/>
        </g>
        <path fill="#1C2B27" d="M33.415 77.172c0 .33-.117.592-.35.785-.235.193-.546.29-.933.29-.466 0-.823-.053-1.073-.16v-.276c.275.121.625.181 1.052.181.313 0 .56-.075.745-.223a.719.719 0 0 0 .275-.587c0-.15-.03-.273-.092-.371a.842.842 0 0 0-.297-.27 3.543 3.543 0 0 0-.606-.263c-.388-.14-.657-.289-.806-.45-.149-.163-.224-.378-.224-.647 0-.296.113-.538.336-.724.224-.187.51-.28.862-.28.358 0 .695.07 1.01.21l-.097.24a2.265 2.265 0 0 0-.908-.207c-.282 0-.506.068-.673.204a.67.67 0 0 0-.25.551c0 .147.025.267.076.361a.726.726 0 0 0 .252.253c.117.075.317.165.6.27.298.107.521.21.671.31.15.1.258.213.327.341a.95.95 0 0 1 .103.462zm1.887 1.075c-.412 0-.734-.132-.964-.395-.23-.264-.346-.633-.346-1.109 0-.47.112-.845.334-1.127.223-.283.523-.425.9-.425.334 0 .598.12.791.362.193.24.29.567.29.982v.215h-2.044c.004.407.094.717.273.932.178.214.434.322.766.322.162 0 .304-.013.427-.036.122-.023.277-.074.465-.151v.244a2.007 2.007 0 0 1-.892.186zm-.076-2.823a.834.834 0 0 0-.658.281c-.164.188-.261.459-.289.812h1.753c0-.343-.071-.61-.214-.804a.694.694 0 0 0-.592-.289zm2.12 2.768h-.258v-4.215h.258v4.215zm2.005-2.713h-.669v2.713h-.258v-2.713h-.527v-.156l.527-.1v-.228c0-.36.064-.625.192-.794.127-.168.337-.252.627-.252.157 0 .314.024.47.071l-.06.23a1.337 1.337 0 0 0-.415-.068c-.201 0-.345.062-.43.186-.083.124-.126.325-.126.604v.275h.669v.232zm.312 1.326v-.222h1.24v.222h-1.24zm4.125.367c0 .33-.117.592-.351.785-.235.193-.545.29-.933.29-.466 0-.823-.053-1.072-.16v-.276c.275.121.625.181 1.051.181.314 0 .561-.075.745-.223a.719.719 0 0 0 .276-.587c0-.15-.03-.273-.092-.371a.843.843 0 0 0-.298-.27 3.546 3.546 0 0 0-.605-.263c-.39-.14-.658-.289-.807-.45-.149-.163-.223-.378-.223-.647 0-.296.112-.538.335-.724.224-.187.51-.28.862-.28.358 0 .695.07 1.01.21l-.097.24a2.266 2.266 0 0 0-.907-.207c-.283 0-.507.068-.673.204a.67.67 0 0 0-.25.551c0 .147.024.267.076.361a.725.725 0 0 0 .252.253c.117.075.316.165.6.27.297.107.52.21.67.31.15.1.259.213.327.341a.95.95 0 0 1 .104.462zm1.886 1.075c-.412 0-.733-.132-.964-.395-.23-.264-.345-.633-.345-1.109 0-.47.11-.845.334-1.127.222-.283.522-.425.9-.425.334 0 .597.12.79.362.193.24.29.567.29.982v.215h-2.044c.004.407.095.717.274.932.178.214.433.322.765.322.162 0 .304-.013.427-.036a2.48 2.48 0 0 0 .465-.151v.244a2.008 2.008 0 0 1-.892.186zm-.075-2.823a.834.834 0 0 0-.658.281c-.165.188-.262.459-.29.812h1.753c0-.343-.07-.61-.213-.804a.694.694 0 0 0-.592-.289zm2.977-.233c.12 0 .25.013.387.038l-.05.258a1.457 1.457 0 0 0-.368-.046c-.241 0-.44.106-.594.32-.155.212-.232.481-.232.807v1.624h-.258v-2.945h.219l.025.532h.02c.116-.217.24-.369.372-.456a.844.844 0 0 1 .48-.132zm1.584 3.001l-1.095-2.945h.266l.733 2.002c.097.257.171.48.22.672h.015c.071-.246.144-.471.22-.678l.732-1.996h.266l-1.096 2.945h-.26zm2.09 0h-.258v-2.945h.258v2.945zm-.295-3.762c0-.173.055-.26.165-.26.053 0 .095.023.126.068.03.046.046.11.046.192a.353.353 0 0 1-.046.192.144.144 0 0 1-.126.07c-.11 0-.165-.088-.165-.262zm2.376 3.817c-.405 0-.722-.133-.952-.398-.23-.265-.344-.636-.344-1.11 0-.488.119-.868.357-1.14.238-.272.565-.408.978-.408.246 0 .48.045.704.133l-.07.239a1.996 1.996 0 0 0-.64-.128c-.346 0-.61.112-.79.335-.178.223-.268.544-.268.963 0 .397.09.708.269.933.179.224.43.338.751.338.258 0 .496-.049.717-.144v.249c-.18.092-.418.138-.712.138zm2.553 0c-.413 0-.734-.132-.965-.395-.23-.264-.345-.633-.345-1.109 0-.47.111-.845.334-1.127.222-.283.522-.425.9-.425.334 0 .597.12.79.362.194.24.29.567.29.982v.215h-2.043c.003.407.094.717.273.932.178.214.434.322.766.322.162 0 .303-.013.426-.036s.278-.074.466-.151v.244a2.007 2.007 0 0 1-.892.186zm-.076-2.823a.834.834 0 0 0-.658.281c-.165.188-.262.459-.29.812h1.754c0-.343-.072-.61-.214-.804a.694.694 0 0 0-.592-.289zm4.31 2.768h-.27v-3.7H59.61v-.26h2.748v.26h-1.24v3.7zm2.512.055c-.412 0-.733-.132-.964-.395-.23-.264-.346-.633-.346-1.109 0-.47.112-.845.334-1.127.223-.283.523-.425.9-.425.334 0 .598.12.791.362.193.24.29.567.29.982v.215H62.59c.004.407.094.717.273.932.179.214.434.322.766.322.162 0 .304-.013.427-.036s.277-.074.465-.151v.244a2.007 2.007 0 0 1-.892.186zm-.076-2.823a.834.834 0 0 0-.657.281c-.165.188-.262.459-.29.812h1.753c0-.343-.07-.61-.213-.804a.694.694 0 0 0-.593-.289zm2.994 2.823c-.405 0-.722-.133-.952-.398-.23-.265-.343-.636-.343-1.11 0-.488.118-.868.357-1.14.237-.272.564-.408.977-.408.246 0 .48.045.705.133l-.07.239a1.996 1.996 0 0 0-.64-.128c-.347 0-.611.112-.79.335-.179.223-.269.544-.269.963 0 .397.09.708.27.933.178.224.428.338.75.338.258 0 .497-.049.717-.144v.249c-.18.092-.418.138-.712.138zm3.385-.055v-1.909c0-.296-.06-.511-.18-.646-.12-.134-.306-.202-.559-.202-.339 0-.587.09-.744.268-.158.177-.237.466-.237.864v1.625h-.258v-4.215h.258v1.341l-.012.377h.018a.96.96 0 0 1 .402-.384c.161-.08.362-.12.603-.12.643 0 .965.359.965 1.075v1.926h-.256zm3.151 0v-1.909c0-.296-.06-.511-.18-.646-.12-.134-.306-.202-.559-.202-.339 0-.587.09-.744.268-.158.177-.237.466-.237.864v1.625h-.258v-2.945h.219l.05.404h.016c.184-.306.512-.46.984-.46.643 0 .965.359.965 1.075v1.926h-.256zm3.518-1.475c0 .48-.112.856-.336 1.126-.225.27-.534.404-.93.404a1.17 1.17 0 0 1-.656-.186 1.183 1.183 0 0 1-.435-.538 2 2 0 0 1-.152-.806c0-.481.112-.856.337-1.124.224-.268.531-.402.923-.402.39 0 .695.136.917.408.222.272.332.644.332 1.118zm-2.238 0c0 .405.086.72.257.946.171.227.413.34.727.34.313 0 .555-.113.726-.34.171-.226.258-.541.258-.946 0-.406-.088-.721-.26-.946-.173-.224-.416-.336-.73-.336-.312 0-.553.112-.724.335-.169.223-.254.54-.254.947zm3.282 1.475h-.258v-4.215h.258v4.215zm3.294-1.475c0 .48-.112.856-.336 1.126-.225.27-.534.404-.929.404a1.17 1.17 0 0 1-.657-.186 1.183 1.183 0 0 1-.435-.538 2 2 0 0 1-.152-.806c0-.481.112-.856.337-1.124.224-.268.531-.402.923-.402.39 0 .695.136.917.408.222.272.332.644.332 1.118zm-2.238 0c0 .405.086.72.257.946.171.227.413.34.727.34.313 0 .555-.113.726-.34.171-.226.258-.541.258-.946 0-.406-.088-.721-.26-.946-.173-.224-.416-.336-.73-.336-.312 0-.553.112-.723.335-.17.223-.255.54-.255.947zm5.236-1.47v.184l-.587.038c.156.203.235.427.235.67 0 .285-.091.515-.273.69-.181.177-.425.265-.732.265-.128 0-.219-.006-.27-.017a.676.676 0 0 0-.236.198.407.407 0 0 0-.08.241c0 .094.034.163.103.206.068.044.183.065.345.065h.496c.307 0 .543.065.707.193.163.13.245.32.245.572 0 .31-.121.55-.364.718-.242.169-.588.253-1.037.253-.357 0-.633-.071-.828-.213a.696.696 0 0 1-.294-.596c0-.202.061-.37.181-.502a.93.93 0 0 1 .493-.275.497.497 0 0 1-.205-.16.392.392 0 0 1-.077-.24c0-.197.12-.37.363-.52a.812.812 0 0 1-.387-.331.972.972 0 0 1-.138-.52c0-.293.09-.53.27-.708.18-.178.423-.267.73-.267.185 0 .33.019.432.056h.908zm-2.295 3.442c0 .404.29.606.868.606.744 0 1.116-.245 1.116-.738 0-.177-.057-.305-.174-.385-.117-.079-.305-.119-.566-.119h-.464c-.52 0-.78.212-.78.636zm.216-2.523c0 .227.066.404.2.528.132.126.31.189.533.189.237 0 .418-.062.544-.187.126-.125.189-.305.189-.542 0-.25-.064-.439-.194-.563-.13-.126-.311-.189-.544-.189-.226 0-.404.068-.534.201-.13.135-.194.322-.194.563zm2.186-.92h.266l.6 1.653c.183.508.299.85.347 1.028h.016c.073-.233.192-.581.357-1.044l.6-1.636h.266l-1.27 3.42c-.103.278-.19.466-.259.564a.7.7 0 0 1-.244.22.722.722 0 0 1-.337.072c-.1 0-.21-.018-.331-.056v-.232c.1.03.209.044.326.044a.428.428 0 0 0 .235-.065.591.591 0 0 0 .183-.202 2.68 2.68 0 0 0 .19-.434c.073-.198.119-.327.14-.386l-1.085-2.945z"/>
        <path fill="#4A4847" d="M49.133 64.7c0-2.906-2.395-5.235-5.042-5.235h-7.563c-1.387 0-2.521-1.178-2.521-2.618s1.134-2.617 2.52-2.617h7.564c1.387 0 2.521 1.178 2.521 2.617h2.521c-.076-2.905-2.344-5.234-5.042-5.234h-7.563c-2.824 0-5.042 2.46-5.042 5.234 0 2.958 2.344 5.235 5.042 5.235h7.563c1.387 0 2.521 1.178 2.521 2.617 0 1.44-1.134 2.618-2.521 2.618h-7.563c-1.387 0-2.521-1.178-2.521-2.618h-2.521c.075 2.958 2.294 5.235 5.042 5.235h7.563c2.824 0 5.042-2.46 5.042-5.235zm19.664 0c0-2.906-2.395-5.235-5.042-5.235h-7.563c-1.387 0-2.521-1.178-2.521-2.618s1.134-2.617 2.521-2.617h7.563c1.387 0 2.521 1.178 2.521 2.617h2.521c-.076-2.905-2.344-5.234-5.042-5.234h-7.563c-2.824 0-5.042 2.46-5.042 5.234 0 2.958 2.344 5.235 5.042 5.235h7.563c1.387 0 2.521 1.178 2.521 2.617 0 1.44-1.134 2.618-2.52 2.618h-7.564c-1.387 0-2.521-1.178-2.521-2.618H51.15c.075 2.958 2.294 5.235 5.042 5.235h7.563c2.824 0 5.042-2.46 5.042-5.235zm18.152-10.47v-2.617H69.3v2.617h7.563v15.704h2.522V54.23h7.563z"/>
    </g>
</svg>
