<svg xmlns="http://www.w3.org/2000/svg" width="80" height="80" viewBox="0 0 80 80">
    <path fill="#FFF" fill-rule="nonzero" d="M40 0C17.906 0 0 17.908 0 40.005S17.906 80 40 80s40-17.908 40-40.005S62.094 0 40 0zm0 76.131c-19.893 0-36.122-16.23-36.122-36.126C3.878 20.109 20.107 3.878 40 3.878S76.122 20.11 76.122 40.005 60 76.13 40 76.13zm18.27-38.85c-.107 0-.107-.107-.214-.107l-22.2-12.78c-.737-.416-1.358-.63-2.095-.63-1.464 0-3.034 1.154-3.034 3.665v25.132c.107 2.511 1.57 3.665 3.141 3.665.737 0 1.464-.213 2.2-.63L57.32 43.34c1.57-.834 2.308-1.987 2.405-3.248.116-.504-.088-1.765-1.455-2.812zM34.604 52.046v-23.88l20.63 11.935-20.63 11.945z"/>
</svg>
