<svg xmlns="http://www.w3.org/2000/svg" width="30" height="30" viewBox="0 0 30 30">
    <path fill="#FF5200" fill-rule="nonzero" d="M15 0c8.284 0 15 6.716 15 15 0 8.284-6.716 15-15 15-8.284 0-15-6.716-15-15C0 6.716 6.716 0 15 0zm-2.733 18.288v-7.005c2.244 1.172 4.475 2.335 6.734 3.513l-6.734 3.492zm12.953 1.719c.37-1.604.37-3.356.37-5.007 0-1.651.003-3.403-.366-5.007-.259-1.126-1.18-1.957-2.29-2.081-2.625-.294-5.284-.295-7.93-.294-2.647-.001-5.306 0-7.933.294-1.108.124-2.03.955-2.288 2.081-.37 1.604-.374 3.356-.374 5.007 0 1.651 0 3.402.37 5.007.259 1.126 1.18 1.957 2.288 2.08 2.627.294 5.285.296 7.932.294 2.647.002 5.305 0 7.931-.293 1.11-.124 2.03-.955 2.29-2.081z"/>
</svg>
