<?xml version="1.0" encoding="utf-8"?><svg width="1686" height="730" viewBox="0 0 1686 730" xmlns="http://www.w3.org/2000/svg" xmlns:xlink="http://www.w3.org/1999/xlink"><svg width="25" height="18" viewBox="-1 -1 25 18" id="svg--arrow-left" xmlns="http://www.w3.org/2000/svg"><path fill="#FF5200" d="M.602 6.94L7.271.327a1.137 1.137 0 0 1 1.598 0 1.114 1.114 0 0 1 0 1.585L3.881 6.857h18.116A1 1 0 0 1 23 7.867v.267a1 1 0 0 1-1.003 1.009H3.88l4.988 4.944a1.114 1.114 0 0 1 0 1.585 1.137 1.137 0 0 1-1.599 0L.601 9.06A1 1 0 0 1 0 8.134v-.268c0-.415.244-.772.602-.927z"/></svg><svg width="25" height="18" viewBox="-1 -1 25 18" id="svg--arrow-right" x="25" xmlns="http://www.w3.org/2000/svg"><path fill="#FF5200" d="M22.398 6.94L15.729.327a1.137 1.137 0 0 0-1.598 0 1.114 1.114 0 0 0 0 1.585l4.988 4.944H1.003A1 1 0 0 0 0 7.867v.267a1 1 0 0 0 1.003 1.009H19.12l-4.988 4.944a1.114 1.114 0 0 0 0 1.585 1.137 1.137 0 0 0 1.599 0L22.4 9.06a1 1 0 0 0 .6-.926v-.268c0-.415-.244-.772-.602-.927z"/></svg><svg width="25" height="18" viewBox="-1 -1 25 18" id="svg--arrow-w-left" x="50" xmlns="http://www.w3.org/2000/svg"><path fill="#FFF" d="M3.656 7h18.34A1 1 0 0 1 23 8c0 .552-.439 1-1.003 1H3.656l5.02 5.087a1.131 1.131 0 0 1 0 1.585 1.095 1.095 0 0 1-1.564 0L.324 8.792A1.124 1.124 0 0 1 0 8.001v-.043a1.13 1.13 0 0 1 .324-.75L7.113.328a1.095 1.095 0 0 1 1.563 0 1.131 1.131 0 0 1 0 1.585L3.656 7z"/></svg><svg width="25" height="18" viewBox="-1 -1 25 18" id="svg--arrow-w-right" x="75" xmlns="http://www.w3.org/2000/svg"><path fill="#FFF" d="M22.398 6.94L15.729.327a1.137 1.137 0 0 0-1.598 0 1.114 1.114 0 0 0 0 1.585l4.988 4.944H1.003A1 1 0 0 0 0 7.867v.267a1 1 0 0 0 1.003 1.009H19.12l-4.988 4.944a1.114 1.114 0 0 0 0 1.585 1.137 1.137 0 0 0 1.599 0L22.4 9.06a1 1 0 0 0 .6-.926v-.268c0-.415-.244-.772-.602-.927z"/></svg><svg width="468" height="730" viewBox="-1 -1 468 730" id="svg--bg-big-element" x="100" xmlns="http://www.w3.org/2000/svg"><defs><linearGradient id="ea" x1="50%" x2="51.825%" y1="-16.922%" y2="82.521%"><stop offset="0%" stop-color="#F8F8F7"/><stop offset="100%" stop-color="#FFF"/></linearGradient></defs><path fill="url(#ea)" fill-rule="evenodd" d="M420-103L38.737 129.44 35 131.711v85.404l95.54 58.298L35 334.127v74.165L420 643v-41.225L80.121 394.563l.019-50.464 81.568-49.732L420 451.837V418.1L189.373 277.495 420 136.9V-103zm46 831L.231 444.767 0 301.799l36.003-21.89 3.747-2.281-3.747-2.281L0 253.45V114.37L466-169v337.365L283.25 279.496 466 390.635v146.192L163.044 352.594l-30.823 18.745L466 574.31V728z" opacity=".503" transform="rotate(180 233 279.5)"/></svg><svg width="12.47" height="12.47" viewBox="-1 -1 12.47 12.47" id="svg--close" x="568" xmlns="http://www.w3.org/2000/svg"><defs><style>.fcls-1{fill:#4a4847;fill-rule:evenodd}</style></defs><path id="fПрямоугольник_скругл._углы1014" data-name="Прямоугольник, скругл. углы1014" class="fcls-1" d="M2914.41 1013l3.54 3.54a1 1 0 0 1 0 1.41 1.008 1.008 0 0 1-1.42 0l-3.53-3.54-3.54 3.54a1 1 0 0 1-1.41-1.41l3.54-3.54-3.54-3.54a1 1 0 0 1 1.41-1.41l3.54 3.54 3.53-3.54a1.008 1.008 0 0 1 1.42 0 1 1 0 0 1 0 1.41z" transform="translate(-2907.78 -1007.78)"/></svg><svg width="32" height="32" viewBox="-1 -1 32 32" id="svg--facebook" x="581" xmlns="http://www.w3.org/2000/svg"><path fill="#FF5200" d="M15 0C6.729 0 0 6.729 0 15c0 8.27 6.729 15 15 15 8.27 0 15-6.73 15-15 0-8.271-6.728-15-15-15zm3.73 15.528h-2.44v8.698h-3.616v-8.698h-1.72v-3.074h1.72v-1.989c0-1.424.677-3.649 3.65-3.649l2.679.01V9.81h-1.945c-.317 0-.767.159-.767.838v1.806h2.755l-.316 3.074z"/></svg><svg width="302" height="580" viewBox="-1 -1 302 580" id="svg--home-logo-pic" x="613" xmlns="http://www.w3.org/2000/svg"><path fill="#FF5200" fill-rule="evenodd" d="M271 43L25.407 192.87 23 194.336v55.066l61.542 37.589L23 324.847v47.82L271 524v-26.58L52.065 363.814l.012-32.538 52.543-32.066L271 400.744V378.99l-148.56-90.657L271 197.68V43zm29 535L.149 395.493 0 303.369l23.178-14.106 2.412-1.47-2.412-1.47L0 272.216v-89.621L300 0v217.388l-117.65 71.61L300 360.612v94.202L104.964 336.1 85.12 348.178 300 478.966V578z"/></svg><svg width="32" height="32" viewBox="-1 -1 32 32" id="svg--instagram" x="915" xmlns="http://www.w3.org/2000/svg"><path fill="#FF5200" d="M15 0c8.272 0 15 6.729 15 15 0 8.27-6.73 15-15 15-8.271 0-15-6.73-15-15C0 6.729 6.729 0 15 0zm0 18.003a3.005 3.005 0 0 1-3.002-3.004c0-.653.212-1.257.568-1.75A3.002 3.002 0 0 1 15 11.997a3 3 0 0 1 2.435 1.253c.354.493.568 1.096.568 1.75a3.008 3.008 0 0 1-3.005 3.003zm6.557-6.677l-2.883.01-.01-2.892 2.516-.008.377-.001v2.891zm1.974 1.924V9.767a3.3 3.3 0 0 0-3.298-3.297H9.766A3.3 3.3 0 0 0 6.47 9.767v10.467a3.3 3.3 0 0 0 3.297 3.298h10.468a3.3 3.3 0 0 0 3.297-3.298V13.25zM19.666 15c0-.619-.125-1.21-.347-1.75h2.548v6.984c0 .903-.734 1.634-1.635 1.634H9.766a1.635 1.635 0 0 1-1.635-1.634V13.25h2.547a4.635 4.635 0 0 0-.344 1.75A4.671 4.671 0 0 0 15 19.666 4.672 4.672 0 0 0 19.666 15z"/></svg><svg width="120" height="222" viewBox="-1 -1 120 222" id="svg--line-left" x="947" xmlns="http://www.w3.org/2000/svg"><path fill="none" fill-rule="evenodd" stroke="#FF5200" stroke-linecap="round" stroke-linejoin="round" stroke-width="4" d="M2 2h35.317C54.08 3.571 62.532 12.148 62.675 27.729c.143 15.58.215 68.246.215 157.995 2.598 20.524 11.633 31.117 27.105 31.78 15.472.662 24.14.662 26.005 0"/></svg><svg width="144" height="138" viewBox="-1 -1 144 138" id="svg--line-left-l" x="1067" xmlns="http://www.w3.org/2000/svg"><path fill="none" fill-rule="evenodd" stroke="#FF5200" stroke-linecap="round" stroke-linejoin="round" stroke-width="4" d="M-22 2h35.325c16.766.96 25.22 6.201 25.364 15.723.144 9.522.215 41.706.215 96.553 2.599 12.542 11.636 19.016 27.111 19.42 15.476.405 40.137.405 73.985 0"/></svg><svg width="120" height="222" viewBox="-1 -1 120 222" id="svg--line-right" x="1211" xmlns="http://www.w3.org/2000/svg"><path fill="none" fill-rule="evenodd" stroke="#FF5200" stroke-linecap="round" stroke-linejoin="round" stroke-width="4" d="M116 2H80.683C63.92 3.571 55.468 12.148 55.325 27.729c-.143 15.58-.215 68.246-.215 157.995-2.598 20.524-11.633 31.117-27.105 31.78-15.472.662-24.14.662-26.005 0"/></svg><svg width="152" height="138" viewBox="-1 -1 152 138" id="svg--line-right-r" x="1331" xmlns="http://www.w3.org/2000/svg"><path fill="none" fill-rule="evenodd" stroke="#FF5200" stroke-linecap="round" stroke-linejoin="round" stroke-width="4" d="M2 2h35.325c16.766.96 25.22 6.201 25.364 15.723.144 9.522.215 41.706.215 96.553 2.599 12.542 11.636 19.016 27.111 19.42 15.476.405 40.137.405 73.985 0"/></svg><svg width="89" height="82" viewBox="-1 -1 89 82" id="svg--logo" x="1483" xmlns="http://www.w3.org/2000/svg"><defs><path id="na" d="M23.19 3.99L2.512 17.034l-.202.128v4.792l5.181 3.272-5.181 3.295v4.162l20.88 13.172v-2.313L4.757 31.912v-2.831l4.425-2.791 14.008 8.837v-1.893l-12.508-7.891 12.508-7.89V3.99zm2.38 46.522L.375 34.618l-.013-8.023 1.948-1.229.202-.128-.202-.128-1.948-1.229v-7.805L25.57.174v18.932l-9.886 6.237 9.886 6.237v8.204L9.182 29.445l-1.667 1.052 18.055 11.39v8.625z"/><linearGradient id="nb" x1="50%" x2="50%" y1="0%" y2="100%"><stop offset="0%" stop-color="#F76300"/><stop offset="100%" stop-color="#DA7A33"/></linearGradient><path id="nd" d="M16.883 8.46l-12.01 7.576-4.247-2.679-.01-3.05L16.882.045v8.414zM3.34 11.108l.01 1.053 1.63 1.113 9.523-6.145V4.115L3.34 11.109z"/><linearGradient id="ne" x1="50%" x2="50%" y1="0%" y2="100%"><stop offset="0%" stop-color="#F76300"/><stop offset="100%" stop-color="#F76B1C"/></linearGradient><path id="ng" d="M2.862 46.906L23.539 33.86l.203-.127V28.94l-5.182-3.272 5.182-3.295v-4.162L2.862 5.04v2.314l18.432 11.628v2.833l-4.424 2.79L2.862 15.77v1.893l12.507 7.89-12.507 7.89v13.464zm22.827-12.087L.481 50.72V31.79l9.886-6.237-9.886-6.236v-8.204L16.87 21.45l1.667-1.052L.481 9.008V.383l25.196 15.895.012 8.023-1.947 1.229-.203.128.203.127 1.947 1.229v7.805z"/><linearGradient id="nh" x1="10.405%" x2="7.527%" y1="11.757%" y2="11.757%"><stop offset="0%" stop-color="#FF5000"/><stop offset="100%" stop-color="#F76300"/></linearGradient><path id="nj" d="M.054 7.9L12.065.322l4.246 2.68.011 3.05L.054 16.314V7.9zm13.544-2.65l-.011-1.053-1.63-1.114L2.436 9.23v3.014L13.598 5.25z"/></defs><g fill="none" fill-rule="evenodd"><g transform="translate(0 14.624)"><mask id="nc" fill="#fff"><use xlink:href="#na"/></mask><path fill="url(#nb)" d="M-38.943 462.796h876.068V-49.27H-38.943z" mask="url(#nc)"/></g><g transform="translate(4.143 22.366)"><mask id="nf" fill="#fff"><use xlink:href="#nd"/></mask><path fill="url(#ne)" d="M-43.086 455.054h876.068V-57.011H-43.086z" mask="url(#nf)"/></g><g transform="translate(26.514)"><mask id="ni" fill="#fff"><use xlink:href="#ng"/></mask><path fill="url(#nh)" d="M-65.457 477.42H810.61V-34.647H-65.457z" mask="url(#ni)"/></g><g transform="translate(31.486 26.667)"><mask id="nk" fill="#fff"><use xlink:href="#nj"/></mask><path fill="#FF5200" d="M-70.429 450.753H805.64V-61.312H-70.429z" mask="url(#nk)"/></g><path fill="#1C2B27" d="M33.415 77.172c0 .33-.117.592-.35.785-.235.193-.546.29-.933.29-.466 0-.823-.053-1.073-.16v-.276c.275.121.625.181 1.052.181.313 0 .56-.075.745-.223a.719.719 0 0 0 .275-.587.68.68 0 0 0-.092-.371.842.842 0 0 0-.297-.27 3.543 3.543 0 0 0-.606-.263c-.388-.14-.657-.289-.806-.45-.149-.163-.224-.378-.224-.647a.9.9 0 0 1 .336-.724c.224-.187.51-.28.862-.28.358 0 .695.07 1.01.21l-.097.24a2.265 2.265 0 0 0-.908-.207c-.282 0-.506.068-.673.204a.67.67 0 0 0-.25.551c0 .147.025.267.076.361a.726.726 0 0 0 .252.253c.117.075.317.165.6.27.298.107.521.21.671.31.15.1.258.213.327.341a.95.95 0 0 1 .103.462zm1.887 1.075c-.412 0-.734-.132-.964-.395-.23-.264-.346-.633-.346-1.109 0-.47.112-.845.334-1.127.223-.283.523-.425.9-.425.334 0 .598.12.791.362.193.24.29.567.29.982v.215h-2.044c.004.407.094.717.273.932.178.214.434.322.766.322.162 0 .304-.013.427-.036a2.54 2.54 0 0 0 .465-.151v.244a2.007 2.007 0 0 1-.892.186zm-.076-2.823a.834.834 0 0 0-.658.281c-.164.188-.261.459-.289.812h1.753c0-.343-.071-.61-.214-.804a.694.694 0 0 0-.592-.289zm2.12 2.768h-.258v-4.215h.258v4.215zm2.005-2.713h-.669v2.713h-.258v-2.713h-.527v-.156l.527-.1v-.228c0-.36.064-.625.192-.794.127-.168.337-.252.627-.252.157 0 .314.024.47.071l-.06.23a1.337 1.337 0 0 0-.415-.068c-.201 0-.345.062-.43.186-.083.124-.126.325-.126.604v.275h.669v.232zm.312 1.326v-.222h1.24v.222h-1.24zm4.125.367c0 .33-.117.592-.351.785-.235.193-.545.29-.933.29-.466 0-.823-.053-1.072-.16v-.276c.275.121.625.181 1.051.181.314 0 .561-.075.745-.223a.719.719 0 0 0 .276-.587.68.68 0 0 0-.092-.371.843.843 0 0 0-.298-.27 3.546 3.546 0 0 0-.605-.263c-.39-.14-.658-.289-.807-.45-.149-.163-.223-.378-.223-.647a.9.9 0 0 1 .335-.724c.224-.187.51-.28.862-.28.358 0 .695.07 1.01.21l-.097.24a2.266 2.266 0 0 0-.907-.207c-.283 0-.507.068-.673.204a.67.67 0 0 0-.25.551.74.74 0 0 0 .076.361.725.725 0 0 0 .252.253c.117.075.316.165.6.27.297.107.52.21.67.31.15.1.259.213.327.341a.95.95 0 0 1 .104.462zm1.886 1.075c-.412 0-.733-.132-.964-.395-.23-.264-.345-.633-.345-1.109 0-.47.11-.845.334-1.127.222-.283.522-.425.9-.425.334 0 .597.12.79.362.193.24.29.567.29.982v.215h-2.044c.004.407.095.717.274.932.178.214.433.322.765.322.162 0 .304-.013.427-.036a2.48 2.48 0 0 0 .465-.151v.244a2.008 2.008 0 0 1-.892.186zm-.075-2.823a.834.834 0 0 0-.658.281c-.165.188-.262.459-.29.812h1.753c0-.343-.07-.61-.213-.804a.694.694 0 0 0-.592-.289zm2.977-.233c.12 0 .25.013.387.038l-.05.258a1.457 1.457 0 0 0-.368-.046c-.241 0-.44.106-.594.32-.155.212-.232.481-.232.807v1.624h-.258v-2.945h.219l.025.532h.02c.116-.217.24-.369.372-.456a.844.844 0 0 1 .48-.132zm1.584 3.001l-1.095-2.945h.266l.733 2.002c.097.257.171.48.22.672h.015c.071-.246.144-.471.22-.678l.732-1.996h.266l-1.096 2.945h-.26zm2.09 0h-.258v-2.945h.258v2.945zm-.295-3.762c0-.173.055-.26.165-.26.053 0 .095.023.126.068a.35.35 0 0 1 .046.192.353.353 0 0 1-.046.192.144.144 0 0 1-.126.07c-.11 0-.165-.088-.165-.262zm2.376 3.817c-.405 0-.722-.133-.952-.398-.23-.265-.344-.636-.344-1.11 0-.488.119-.868.357-1.14.238-.272.565-.408.978-.408.246 0 .48.045.704.133l-.07.239a1.996 1.996 0 0 0-.64-.128c-.346 0-.61.112-.79.335-.178.223-.268.544-.268.963 0 .397.09.708.269.933.179.224.43.338.751.338.258 0 .496-.049.717-.144v.249c-.18.092-.418.138-.712.138zm2.553 0c-.413 0-.734-.132-.965-.395-.23-.264-.345-.633-.345-1.109 0-.47.111-.845.334-1.127.222-.283.522-.425.9-.425.334 0 .597.12.79.362.194.24.29.567.29.982v.215h-2.043c.003.407.094.717.273.932.178.214.434.322.766.322.162 0 .303-.013.426-.036s.278-.074.466-.151v.244a2.007 2.007 0 0 1-.892.186zm-.076-2.823a.834.834 0 0 0-.658.281c-.165.188-.262.459-.29.812h1.754c0-.343-.072-.61-.214-.804a.694.694 0 0 0-.592-.289zm4.31 2.768h-.27v-3.7H59.61v-.26h2.748v.26h-1.24v3.7zm2.512.055c-.412 0-.733-.132-.964-.395-.23-.264-.346-.633-.346-1.109 0-.47.112-.845.334-1.127.223-.283.523-.425.9-.425.334 0 .598.12.791.362.193.24.29.567.29.982v.215H62.59c.004.407.094.717.273.932.179.214.434.322.766.322.162 0 .304-.013.427-.036s.277-.074.465-.151v.244a2.007 2.007 0 0 1-.892.186zm-.076-2.823a.834.834 0 0 0-.657.281c-.165.188-.262.459-.29.812h1.753c0-.343-.07-.61-.213-.804a.694.694 0 0 0-.593-.289zm2.994 2.823c-.405 0-.722-.133-.952-.398-.23-.265-.343-.636-.343-1.11 0-.488.118-.868.357-1.14.237-.272.564-.408.977-.408.246 0 .48.045.705.133l-.07.239a1.996 1.996 0 0 0-.64-.128c-.347 0-.611.112-.79.335-.179.223-.269.544-.269.963 0 .397.09.708.27.933.178.224.428.338.75.338.258 0 .497-.049.717-.144v.249c-.18.092-.418.138-.712.138zm3.385-.055v-1.909c0-.296-.06-.511-.18-.646-.12-.134-.306-.202-.559-.202-.339 0-.587.09-.744.268-.158.177-.237.466-.237.864v1.625h-.258v-4.215h.258v1.341l-.012.377h.018a.96.96 0 0 1 .402-.384c.161-.08.362-.12.603-.12.643 0 .965.359.965 1.075v1.926h-.256zm3.151 0v-1.909c0-.296-.06-.511-.18-.646-.12-.134-.306-.202-.559-.202-.339 0-.587.09-.744.268-.158.177-.237.466-.237.864v1.625h-.258v-2.945h.219l.05.404h.016c.184-.306.512-.46.984-.46.643 0 .965.359.965 1.075v1.926h-.256zm3.518-1.475c0 .48-.112.856-.336 1.126-.225.27-.534.404-.93.404a1.17 1.17 0 0 1-.656-.186 1.183 1.183 0 0 1-.435-.538 2 2 0 0 1-.152-.806c0-.481.112-.856.337-1.124.224-.268.531-.402.923-.402.39 0 .695.136.917.408.222.272.332.644.332 1.118zm-2.238 0c0 .405.086.72.257.946.171.227.413.34.727.34.313 0 .555-.113.726-.34.171-.226.258-.541.258-.946 0-.406-.088-.721-.26-.946-.173-.224-.416-.336-.73-.336-.312 0-.553.112-.724.335-.169.223-.254.54-.254.947zm3.282 1.475h-.258v-4.215h.258v4.215zm3.294-1.475c0 .48-.112.856-.336 1.126-.225.27-.534.404-.929.404a1.17 1.17 0 0 1-.657-.186 1.183 1.183 0 0 1-.435-.538 2 2 0 0 1-.152-.806c0-.481.112-.856.337-1.124.224-.268.531-.402.923-.402.39 0 .695.136.917.408.222.272.332.644.332 1.118zm-2.238 0c0 .405.086.72.257.946.171.227.413.34.727.34.313 0 .555-.113.726-.34.171-.226.258-.541.258-.946 0-.406-.088-.721-.26-.946-.173-.224-.416-.336-.73-.336-.312 0-.553.112-.723.335-.17.223-.255.54-.255.947zm5.236-1.47v.184l-.587.038c.156.203.235.427.235.67 0 .285-.091.515-.273.69-.181.177-.425.265-.732.265-.128 0-.219-.006-.27-.017a.676.676 0 0 0-.236.198.407.407 0 0 0-.08.241c0 .094.034.163.103.206.068.044.183.065.345.065h.496c.307 0 .543.065.707.193.163.13.245.32.245.572 0 .31-.121.55-.364.718-.242.169-.588.253-1.037.253-.357 0-.633-.071-.828-.213a.696.696 0 0 1-.294-.596.72.72 0 0 1 .181-.502.93.93 0 0 1 .493-.275.497.497 0 0 1-.205-.16.392.392 0 0 1-.077-.24c0-.197.12-.37.363-.52a.812.812 0 0 1-.387-.331.972.972 0 0 1-.138-.52c0-.293.09-.53.27-.708.18-.178.423-.267.73-.267.185 0 .33.019.432.056h.908zm-2.295 3.442c0 .404.29.606.868.606.744 0 1.116-.245 1.116-.738 0-.177-.057-.305-.174-.385-.117-.079-.305-.119-.566-.119h-.464c-.52 0-.78.212-.78.636zm.216-2.523c0 .227.066.404.2.528.132.126.31.189.533.189.237 0 .418-.062.544-.187.126-.125.189-.305.189-.542 0-.25-.064-.439-.194-.563-.13-.126-.311-.189-.544-.189-.226 0-.404.068-.534.201-.13.135-.194.322-.194.563zm2.186-.92h.266l.6 1.653c.183.508.299.85.347 1.028h.016c.073-.233.192-.581.357-1.044l.6-1.636h.266l-1.27 3.42c-.103.278-.19.466-.259.564a.7.7 0 0 1-.244.22.722.722 0 0 1-.337.072c-.1 0-.21-.018-.331-.056v-.232c.1.03.209.044.326.044a.428.428 0 0 0 .235-.065.591.591 0 0 0 .183-.202 2.68 2.68 0 0 0 .19-.434c.073-.198.119-.327.14-.386l-1.085-2.945z"/><path fill="#4A4847" d="M49.133 64.7c0-2.906-2.395-5.235-5.042-5.235h-7.563c-1.387 0-2.521-1.178-2.521-2.618s1.134-2.617 2.52-2.617h7.564c1.387 0 2.521 1.178 2.521 2.617h2.521c-.076-2.905-2.344-5.234-5.042-5.234h-7.563c-2.824 0-5.042 2.46-5.042 5.234 0 2.958 2.344 5.235 5.042 5.235h7.563c1.387 0 2.521 1.178 2.521 2.617 0 1.44-1.134 2.618-2.521 2.618h-7.563c-1.387 0-2.521-1.178-2.521-2.618h-2.521c.075 2.958 2.294 5.235 5.042 5.235h7.563c2.824 0 5.042-2.46 5.042-5.235zm19.664 0c0-2.906-2.395-5.235-5.042-5.235h-7.563c-1.387 0-2.521-1.178-2.521-2.618s1.134-2.617 2.521-2.617h7.563c1.387 0 2.521 1.178 2.521 2.617h2.521c-.076-2.905-2.344-5.234-5.042-5.234h-7.563c-2.824 0-5.042 2.46-5.042 5.234 0 2.958 2.344 5.235 5.042 5.235h7.563c1.387 0 2.521 1.178 2.521 2.617 0 1.44-1.134 2.618-2.52 2.618h-7.564c-1.387 0-2.521-1.178-2.521-2.618H51.15c.075 2.958 2.294 5.235 5.042 5.235h7.563c2.824 0 5.042-2.46 5.042-5.235zm18.152-10.47v-2.617H69.3v2.617h7.563v15.704h2.522V54.23h7.563z"/></g></svg><svg width="82" height="82" viewBox="-1 -1 82 82" id="svg--play" x="1572" xmlns="http://www.w3.org/2000/svg"><path fill="#FFF" d="M40 0C17.906 0 0 17.908 0 40.005S17.906 80 40 80s40-17.908 40-40.005S62.094 0 40 0zm0 76.131c-19.893 0-36.122-16.23-36.122-36.126C3.878 20.109 20.107 3.878 40 3.878S76.122 20.11 76.122 40.005 60 76.13 40 76.13zm18.27-38.85c-.107 0-.107-.107-.214-.107l-22.2-12.78c-.737-.416-1.358-.63-2.095-.63-1.464 0-3.034 1.154-3.034 3.665v25.132c.107 2.511 1.57 3.665 3.141 3.665.737 0 1.464-.213 2.2-.63L57.32 43.34c1.57-.834 2.308-1.987 2.405-3.248.116-.504-.088-1.765-1.455-2.812zM34.604 52.046v-23.88l20.63 11.935-20.63 11.945z"/></svg><svg width="32" height="32" viewBox="-1 -1 32 32" id="svg--youtube" x="1654" xmlns="http://www.w3.org/2000/svg"><path fill="#FF5200" d="M15 0c8.284 0 15 6.716 15 15 0 8.284-6.716 15-15 15-8.284 0-15-6.716-15-15C0 6.716 6.716 0 15 0zm-2.733 18.288v-7.005c2.244 1.172 4.475 2.335 6.734 3.513l-6.734 3.492zm12.953 1.719c.37-1.604.37-3.356.37-5.007 0-1.651.003-3.403-.366-5.007-.259-1.126-1.18-1.957-2.29-2.081-2.625-.294-5.284-.295-7.93-.294-2.647-.001-5.306 0-7.933.294-1.108.124-2.03.955-2.288 2.081-.37 1.604-.374 3.356-.374 5.007 0 1.651 0 3.402.37 5.007.259 1.126 1.18 1.957 2.288 2.08 2.627.294 5.285.296 7.932.294 2.647.002 5.305 0 7.931-.293 1.11-.124 2.03-.955 2.29-2.081z"/></svg></svg>